<?xml version="1.0" encoding="utf-8" standalone="no"?>
<!DOCTYPE svg PUBLIC "-//W3C//DTD SVG 1.1//EN"
  "http://www.w3.org/Graphics/SVG/1.1/DTD/svg11.dtd">
<svg xmlns:xlink="http://www.w3.org/1999/xlink" width="446.4pt" height="252pt" viewBox="0 0 446.4 252" xmlns="http://www.w3.org/2000/svg" version="1.1">
 <metadata>
  <rdf:RDF xmlns:dc="http://purl.org/dc/elements/1.1/" xmlns:cc="http://creativecommons.org/ns#" xmlns:rdf="http://www.w3.org/1999/02/22-rdf-syntax-ns#">
   <cc:Work>
    <dc:type rdf:resource="http://purl.org/dc/dcmitype/StillImage"/>
    <dc:date>2026-02-27T15:28:22.698569</dc:date>
    <dc:format>image/svg+xml</dc:format>
    <dc:creator>
     <cc:Agent>
      <dc:title>Matplotlib v3.10.7, https://matplotlib.org/</dc:title>
     </cc:Agent>
    </dc:creator>
   </cc:Work>
  </rdf:RDF>
 </metadata>
 <defs>
  <style type="text/css">*{stroke-linejoin: round; stroke-linecap: butt}</style>
 </defs>
 <g id="figure_1">
  <g id="patch_1">
   <path d="M 0 252 
L 446.4 252 
L 446.4 0 
L 0 0 
z
" style="fill: #ffffff"/>
  </g>
  <g id="axes_1">
   <g id="patch_2">
    <path d="M 45.83 210.04 
L 435.6 210.04 
L 435.6 24.72 
L 45.83 24.72 
z
" style="fill: #ffffff"/>
   </g>
   <g id="matplotlib.axis_1">
    <g id="xtick_1">
     <g id="line2d_1">
      <defs>
       <path id="ma94714662c" d="M 0 0 
L 0 3.5 
" style="stroke: #000000; stroke-width: 0.8"/>
      </defs>
      <g>
       <use xlink:href="#ma94714662c" x="101.511429" y="210.04" style="stroke: #000000; stroke-width: 0.8"/>
      </g>
     </g>
     <g id="text_1">
      <text style="font-size: 10px; font-family: 'Arial'; text-anchor: middle" x="101.511429" y="224.197812" transform="rotate(-0 101.511429 224.197812)">−7.5</text>
     </g>
    </g>
    <g id="xtick_2">
     <g id="line2d_2">
      <g>
       <use xlink:href="#ma94714662c" x="164.785779" y="210.04" style="stroke: #000000; stroke-width: 0.8"/>
      </g>
     </g>
     <g id="text_2">
      <text style="font-size: 10px; font-family: 'Arial'; text-anchor: middle" x="164.785779" y="224.197812" transform="rotate(-0 164.785779 224.197812)">−7.0</text>
     </g>
    </g>
    <g id="xtick_3">
     <g id="line2d_3">
      <g>
       <use xlink:href="#ma94714662c" x="228.06013" y="210.04" style="stroke: #000000; stroke-width: 0.8"/>
      </g>
     </g>
     <g id="text_3">
      <text style="font-size: 10px; font-family: 'Arial'; text-anchor: middle" x="228.06013" y="224.197812" transform="rotate(-0 228.06013 224.197812)">−6.5</text>
     </g>
    </g>
    <g id="xtick_4">
     <g id="line2d_4">
      <g>
       <use xlink:href="#ma94714662c" x="291.334481" y="210.04" style="stroke: #000000; stroke-width: 0.8"/>
      </g>
     </g>
     <g id="text_4">
      <text style="font-size: 10px; font-family: 'Arial'; text-anchor: middle" x="291.334481" y="224.197812" transform="rotate(-0 291.334481 224.197812)">−6.0</text>
     </g>
    </g>
    <g id="xtick_5">
     <g id="line2d_5">
      <g>
       <use xlink:href="#ma94714662c" x="354.608831" y="210.04" style="stroke: #000000; stroke-width: 0.8"/>
      </g>
     </g>
     <g id="text_5">
      <text style="font-size: 10px; font-family: 'Arial'; text-anchor: middle" x="354.608831" y="224.197812" transform="rotate(-0 354.608831 224.197812)">−5.5</text>
     </g>
    </g>
    <g id="xtick_6">
     <g id="line2d_6">
      <g>
       <use xlink:href="#ma94714662c" x="417.883182" y="210.04" style="stroke: #000000; stroke-width: 0.8"/>
      </g>
     </g>
     <g id="text_6">
      <text style="font-size: 10px; font-family: 'Arial'; text-anchor: middle" x="417.883182" y="224.197812" transform="rotate(-0 417.883182 224.197812)">−5.0</text>
     </g>
    </g>
    <g id="text_7">
     <text style="font-size: 11px; font-family: 'Arial'; text-anchor: middle" x="240.715" y="238.192969" transform="rotate(-0 240.715 238.192969)">Gibbs free energy (kcal/mol)</text>
    </g>
   </g>
   <g id="matplotlib.axis_2">
    <g id="ytick_1">
     <g id="line2d_7">
      <defs>
       <path id="mf524da5ff5" d="M 0 0 
L -3.5 0 
" style="stroke: #000000; stroke-width: 0.8"/>
      </defs>
      <g>
       <use xlink:href="#mf524da5ff5" x="45.83" y="210.04" style="stroke: #000000; stroke-width: 0.8"/>
      </g>
     </g>
     <g id="text_8">
      <text style="font-size: 10px; font-family: 'Arial'; text-anchor: end" x="38.83" y="213.618906" transform="rotate(-0 38.83 213.618906)">0.0</text>
     </g>
    </g>
    <g id="ytick_2">
     <g id="line2d_8">
      <g>
       <use xlink:href="#mf524da5ff5" x="45.83" y="172.976" style="stroke: #000000; stroke-width: 0.8"/>
      </g>
     </g>
     <g id="text_9">
      <text style="font-size: 10px; font-family: 'Arial'; text-anchor: end" x="38.83" y="176.554906" transform="rotate(-0 38.83 176.554906)">0.2</text>
     </g>
    </g>
    <g id="ytick_3">
     <g id="line2d_9">
      <g>
       <use xlink:href="#mf524da5ff5" x="45.83" y="135.912" style="stroke: #000000; stroke-width: 0.8"/>
      </g>
     </g>
     <g id="text_10">
      <text style="font-size: 10px; font-family: 'Arial'; text-anchor: end" x="38.83" y="139.490906" transform="rotate(-0 38.83 139.490906)">0.4</text>
     </g>
    </g>
    <g id="ytick_4">
     <g id="line2d_10">
      <g>
       <use xlink:href="#mf524da5ff5" x="45.83" y="98.848" style="stroke: #000000; stroke-width: 0.8"/>
      </g>
     </g>
     <g id="text_11">
      <text style="font-size: 10px; font-family: 'Arial'; text-anchor: end" x="38.83" y="102.426906" transform="rotate(-0 38.83 102.426906)">0.6</text>
     </g>
    </g>
    <g id="ytick_5">
     <g id="line2d_11">
      <g>
       <use xlink:href="#mf524da5ff5" x="45.83" y="61.784" style="stroke: #000000; stroke-width: 0.8"/>
      </g>
     </g>
     <g id="text_12">
      <text style="font-size: 10px; font-family: 'Arial'; text-anchor: end" x="38.83" y="65.362906" transform="rotate(-0 38.83 65.362906)">0.8</text>
     </g>
    </g>
    <g id="ytick_6">
     <g id="line2d_12">
      <g>
       <use xlink:href="#mf524da5ff5" x="45.83" y="24.72" style="stroke: #000000; stroke-width: 0.8"/>
      </g>
     </g>
     <g id="text_13">
      <text style="font-size: 10px; font-family: 'Arial'; text-anchor: end" x="38.83" y="28.298906" transform="rotate(-0 38.83 28.298906)">1.0</text>
     </g>
    </g>
    <g id="text_14">
     <text style="font-size: 11px; font-family: 'Arial'; text-anchor: middle" x="18.614844" y="117.38" transform="rotate(-90 18.614844 117.38)">Conflict probability</text>
    </g>
   </g>
   <g id="line2d_13">
    <path d="M 63.546818 209.071117 
L 76.201688 208.544346 
L 88.856558 207.857662 
L 101.511429 207.490804 
L 114.166299 207.020472 
L 126.821169 206.324382 
L 139.476039 205.308466 
L 152.130909 204.189077 
L 164.785779 203.060281 
L 177.440649 201.658693 
L 190.095519 199.974907 
L 202.75039 198.29112 
L 215.40526 197.049445 
L 228.06013 195.469132 
L 240.715 193.427893 
L 253.36987 190.75641 
L 266.02474 187.341804 
L 278.67961 184.096517 
L 291.334481 179.581335 
L 303.989351 175.649364 
L 316.644221 172.761529 
L 329.299091 168.246347 
L 341.953961 162.564743 
L 354.608831 155.537991 
L 367.263701 149.254363 
L 379.918571 141.729059 
L 392.573442 133.234873 
L 405.228312 124.92882 
L 417.883182 114.741441 
" clip-path="url(#pd520075435)" style="fill: none; stroke: #333333; stroke-width: 1.6; stroke-linecap: square"/>
    <defs>
     <path id="ma09e0f5f76" d="M 0 2 
C 0.530406 2 1.03916 1.789267 1.414214 1.414214 
C 1.789267 1.03916 2 0.530406 2 0 
C 2 -0.530406 1.789267 -1.03916 1.414214 -1.414214 
C 1.03916 -1.789267 0.530406 -2 0 -2 
C -0.530406 -2 -1.03916 -1.789267 -1.414214 -1.414214 
C -1.789267 -1.03916 -2 -0.530406 -2 0 
C -2 0.530406 -1.789267 1.03916 -1.414214 1.414214 
C -1.03916 1.789267 -0.530406 2 0 2 
z
" style="stroke: #333333"/>
    </defs>
    <g clip-path="url(#pd520075435)">
     <use xlink:href="#ma09e0f5f76" x="63.546818" y="209.071117" style="fill: #333333; stroke: #333333"/>
     <use xlink:href="#ma09e0f5f76" x="76.201688" y="208.544346" style="fill: #333333; stroke: #333333"/>
     <use xlink:href="#ma09e0f5f76" x="88.856558" y="207.857662" style="fill: #333333; stroke: #333333"/>
     <use xlink:href="#ma09e0f5f76" x="101.511429" y="207.490804" style="fill: #333333; stroke: #333333"/>
     <use xlink:href="#ma09e0f5f76" x="114.166299" y="207.020472" style="fill: #333333; stroke: #333333"/>
     <use xlink:href="#ma09e0f5f76" x="126.821169" y="206.324382" style="fill: #333333; stroke: #333333"/>
     <use xlink:href="#ma09e0f5f76" x="139.476039" y="205.308466" style="fill: #333333; stroke: #333333"/>
     <use xlink:href="#ma09e0f5f76" x="152.130909" y="204.189077" style="fill: #333333; stroke: #333333"/>
     <use xlink:href="#ma09e0f5f76" x="164.785779" y="203.060281" style="fill: #333333; stroke: #333333"/>
     <use xlink:href="#ma09e0f5f76" x="177.440649" y="201.658693" style="fill: #333333; stroke: #333333"/>
     <use xlink:href="#ma09e0f5f76" x="190.095519" y="199.974907" style="fill: #333333; stroke: #333333"/>
     <use xlink:href="#ma09e0f5f76" x="202.75039" y="198.29112" style="fill: #333333; stroke: #333333"/>
     <use xlink:href="#ma09e0f5f76" x="215.40526" y="197.049445" style="fill: #333333; stroke: #333333"/>
     <use xlink:href="#ma09e0f5f76" x="228.06013" y="195.469132" style="fill: #333333; stroke: #333333"/>
     <use xlink:href="#ma09e0f5f76" x="240.715" y="193.427893" style="fill: #333333; stroke: #333333"/>
     <use xlink:href="#ma09e0f5f76" x="253.36987" y="190.75641" style="fill: #333333; stroke: #333333"/>
     <use xlink:href="#ma09e0f5f76" x="266.02474" y="187.341804" style="fill: #333333; stroke: #333333"/>
     <use xlink:href="#ma09e0f5f76" x="278.67961" y="184.096517" style="fill: #333333; stroke: #333333"/>
     <use xlink:href="#ma09e0f5f76" x="291.334481" y="179.581335" style="fill: #333333; stroke: #333333"/>
     <use xlink:href="#ma09e0f5f76" x="303.989351" y="175.649364" style="fill: #333333; stroke: #333333"/>
     <use xlink:href="#ma09e0f5f76" x="316.644221" y="172.761529" style="fill: #333333; stroke: #333333"/>
     <use xlink:href="#ma09e0f5f76" x="329.299091" y="168.246347" style="fill: #333333; stroke: #333333"/>
     <use xlink:href="#ma09e0f5f76" x="341.953961" y="162.564743" style="fill: #333333; stroke: #333333"/>
     <use xlink:href="#ma09e0f5f76" x="354.608831" y="155.537991" style="fill: #333333; stroke: #333333"/>
     <use xlink:href="#ma09e0f5f76" x="367.263701" y="149.254363" style="fill: #333333; stroke: #333333"/>
     <use xlink:href="#ma09e0f5f76" x="379.918571" y="141.729059" style="fill: #333333; stroke: #333333"/>
     <use xlink:href="#ma09e0f5f76" x="392.573442" y="133.234873" style="fill: #333333; stroke: #333333"/>
     <use xlink:href="#ma09e0f5f76" x="405.228312" y="124.92882" style="fill: #333333; stroke: #333333"/>
     <use xlink:href="#ma09e0f5f76" x="417.883182" y="114.741441" style="fill: #333333; stroke: #333333"/>
    </g>
   </g>
   <g id="patch_3">
    <path d="M 45.83 210.04 
L 45.83 24.72 
" style="fill: none; stroke: #000000; stroke-linejoin: miter; stroke-linecap: square"/>
   </g>
   <g id="patch_4">
    <path d="M 435.6 210.04 
L 435.6 24.72 
" style="fill: none; stroke: #000000; stroke-linejoin: miter; stroke-linecap: square"/>
   </g>
   <g id="patch_5">
    <path d="M 45.83 210.04 
L 435.6 210.04 
" style="fill: none; stroke: #000000; stroke-linejoin: miter; stroke-linecap: square"/>
   </g>
   <g id="patch_6">
    <path d="M 45.83 24.72 
L 435.6 24.72 
" style="fill: none; stroke: #000000; stroke-linejoin: miter; stroke-linecap: square"/>
   </g>
   <g id="text_15">
    <text style="font-size: 11px; font-family: 'Arial'; text-anchor: middle" x="240.715" y="18.72" transform="rotate(-0 240.715 18.72)">sequence length = 6, σ = 0.25, total vertex count = 199</text>
   </g>
  </g>
 </g>
 <defs>
  <clipPath id="pd520075435">
   <rect x="45.83" y="24.72" width="389.77" height="185.32"/>
  </clipPath>
 </defs>
</svg>
