<?xml version="1.0" encoding="utf-8" standalone="no"?>
<!DOCTYPE svg PUBLIC "-//W3C//DTD SVG 1.1//EN"
  "http://www.w3.org/Graphics/SVG/1.1/DTD/svg11.dtd">
<svg xmlns:xlink="http://www.w3.org/1999/xlink" width="446.4pt" height="252pt" viewBox="0 0 446.4 252" xmlns="http://www.w3.org/2000/svg" version="1.1">
 <metadata>
  <rdf:RDF xmlns:dc="http://purl.org/dc/elements/1.1/" xmlns:cc="http://creativecommons.org/ns#" xmlns:rdf="http://www.w3.org/1999/02/22-rdf-syntax-ns#">
   <cc:Work>
    <dc:type rdf:resource="http://purl.org/dc/dcmitype/StillImage"/>
    <dc:date>2026-02-27T15:28:23.606492</dc:date>
    <dc:format>image/svg+xml</dc:format>
    <dc:creator>
     <cc:Agent>
      <dc:title>Matplotlib v3.10.7, https://matplotlib.org/</dc:title>
     </cc:Agent>
    </dc:creator>
   </cc:Work>
  </rdf:RDF>
 </metadata>
 <defs>
  <style type="text/css">*{stroke-linejoin: round; stroke-linecap: butt}</style>
 </defs>
 <g id="figure_1">
  <g id="patch_1">
   <path d="M 0 252 
L 446.4 252 
L 446.4 0 
L 0 0 
z
" style="fill: #ffffff"/>
  </g>
  <g id="axes_1">
   <g id="patch_2">
    <path d="M 45.83 210.04 
L 435.6 210.04 
L 435.6 24.72 
L 45.83 24.72 
z
" style="fill: #ffffff"/>
   </g>
   <g id="matplotlib.axis_1">
    <g id="xtick_1">
     <g id="line2d_1">
      <defs>
       <path id="m056e134390" d="M 0 0 
L 0 3.5 
" style="stroke: #000000; stroke-width: 0.8"/>
      </defs>
      <g>
       <use xlink:href="#m056e134390" x="86.655711" y="210.04" style="stroke: #000000; stroke-width: 0.8"/>
      </g>
     </g>
     <g id="text_1">
      <text style="font-size: 10px; font-family: 'Arial'; text-anchor: middle" x="86.655711" y="224.197812" transform="rotate(-0 86.655711 224.197812)">−10</text>
     </g>
    </g>
    <g id="xtick_2">
     <g id="line2d_2">
      <g>
       <use xlink:href="#m056e134390" x="163.685356" y="210.04" style="stroke: #000000; stroke-width: 0.8"/>
      </g>
     </g>
     <g id="text_2">
      <text style="font-size: 10px; font-family: 'Arial'; text-anchor: middle" x="163.685356" y="224.197812" transform="rotate(-0 163.685356 224.197812)">−9</text>
     </g>
    </g>
    <g id="xtick_3">
     <g id="line2d_3">
      <g>
       <use xlink:href="#m056e134390" x="240.715" y="210.04" style="stroke: #000000; stroke-width: 0.8"/>
      </g>
     </g>
     <g id="text_3">
      <text style="font-size: 10px; font-family: 'Arial'; text-anchor: middle" x="240.715" y="224.197812" transform="rotate(-0 240.715 224.197812)">−8</text>
     </g>
    </g>
    <g id="xtick_4">
     <g id="line2d_4">
      <g>
       <use xlink:href="#m056e134390" x="317.744644" y="210.04" style="stroke: #000000; stroke-width: 0.8"/>
      </g>
     </g>
     <g id="text_4">
      <text style="font-size: 10px; font-family: 'Arial'; text-anchor: middle" x="317.744644" y="224.197812" transform="rotate(-0 317.744644 224.197812)">−7</text>
     </g>
    </g>
    <g id="xtick_5">
     <g id="line2d_5">
      <g>
       <use xlink:href="#m056e134390" x="394.774289" y="210.04" style="stroke: #000000; stroke-width: 0.8"/>
      </g>
     </g>
     <g id="text_5">
      <text style="font-size: 10px; font-family: 'Arial'; text-anchor: middle" x="394.774289" y="224.197812" transform="rotate(-0 394.774289 224.197812)">−6</text>
     </g>
    </g>
    <g id="text_6">
     <text style="font-size: 11px; font-family: 'Arial'; text-anchor: middle" x="240.715" y="238.192969" transform="rotate(-0 240.715 238.192969)">Gibbs free energy (kcal/mol)</text>
    </g>
   </g>
   <g id="matplotlib.axis_2">
    <g id="ytick_1">
     <g id="line2d_6">
      <defs>
       <path id="m15ae0c498f" d="M 0 0 
L -3.5 0 
" style="stroke: #000000; stroke-width: 0.8"/>
      </defs>
      <g>
       <use xlink:href="#m15ae0c498f" x="45.83" y="210.04" style="stroke: #000000; stroke-width: 0.8"/>
      </g>
     </g>
     <g id="text_7">
      <text style="font-size: 10px; font-family: 'Arial'; text-anchor: end" x="38.83" y="213.618906" transform="rotate(-0 38.83 213.618906)">0.0</text>
     </g>
    </g>
    <g id="ytick_2">
     <g id="line2d_7">
      <g>
       <use xlink:href="#m15ae0c498f" x="45.83" y="172.976" style="stroke: #000000; stroke-width: 0.8"/>
      </g>
     </g>
     <g id="text_8">
      <text style="font-size: 10px; font-family: 'Arial'; text-anchor: end" x="38.83" y="176.554906" transform="rotate(-0 38.83 176.554906)">0.2</text>
     </g>
    </g>
    <g id="ytick_3">
     <g id="line2d_8">
      <g>
       <use xlink:href="#m15ae0c498f" x="45.83" y="135.912" style="stroke: #000000; stroke-width: 0.8"/>
      </g>
     </g>
     <g id="text_9">
      <text style="font-size: 10px; font-family: 'Arial'; text-anchor: end" x="38.83" y="139.490906" transform="rotate(-0 38.83 139.490906)">0.4</text>
     </g>
    </g>
    <g id="ytick_4">
     <g id="line2d_9">
      <g>
       <use xlink:href="#m15ae0c498f" x="45.83" y="98.848" style="stroke: #000000; stroke-width: 0.8"/>
      </g>
     </g>
     <g id="text_10">
      <text style="font-size: 10px; font-family: 'Arial'; text-anchor: end" x="38.83" y="102.426906" transform="rotate(-0 38.83 102.426906)">0.6</text>
     </g>
    </g>
    <g id="ytick_5">
     <g id="line2d_10">
      <g>
       <use xlink:href="#m15ae0c498f" x="45.83" y="61.784" style="stroke: #000000; stroke-width: 0.8"/>
      </g>
     </g>
     <g id="text_11">
      <text style="font-size: 10px; font-family: 'Arial'; text-anchor: end" x="38.83" y="65.362906" transform="rotate(-0 38.83 65.362906)">0.8</text>
     </g>
    </g>
    <g id="ytick_6">
     <g id="line2d_11">
      <g>
       <use xlink:href="#m15ae0c498f" x="45.83" y="24.72" style="stroke: #000000; stroke-width: 0.8"/>
      </g>
     </g>
     <g id="text_12">
      <text style="font-size: 10px; font-family: 'Arial'; text-anchor: end" x="38.83" y="28.298906" transform="rotate(-0 38.83 28.298906)">1.0</text>
     </g>
    </g>
    <g id="text_13">
     <text style="font-size: 11px; font-family: 'Arial'; text-anchor: middle" x="18.614844" y="117.38" transform="rotate(-90 18.614844 117.38)">Conflict probability</text>
    </g>
   </g>
   <g id="line2d_12">
    <path d="M 63.546818 209.878643 
L 71.249783 209.826941 
L 78.952747 209.779656 
L 86.655711 209.725925 
L 94.358676 209.662442 
L 102.06164 209.593069 
L 109.764605 209.518755 
L 117.467569 209.419572 
L 125.170534 209.294308 
L 132.873498 209.160111 
L 140.576462 209.012432 
L 148.279427 208.838182 
L 155.982391 208.659711 
L 163.685356 208.471096 
L 171.38832 208.237323 
L 179.091285 207.985454 
L 186.794249 207.700306 
L 194.497213 207.318297 
L 202.200178 206.915673 
L 209.903142 206.49106 
L 217.606107 205.984508 
L 225.309071 205.415553 
L 233.012036 204.830989 
L 240.715 204.164618 
L 248.417964 203.433423 
L 256.120929 202.62042 
L 263.823893 201.544946 
L 271.526858 200.179611 
L 279.229822 198.73921 
L 286.932787 197.167099 
L 294.635751 195.471459 
L 302.338715 193.559323 
L 310.04168 191.334486 
L 317.744644 188.939719 
L 325.447609 186.348908 
L 333.150573 183.128114 
L 340.853538 179.205968 
L 348.556502 174.519871 
L 356.259466 169.413742 
L 363.962431 163.880806 
L 371.665395 157.393013 
L 379.36836 150.459369 
L 387.071324 143.427491 
L 394.774289 135.92414 
L 402.477253 128.043362 
L 410.180217 119.356322 
L 417.883182 109.335492 
" clip-path="url(#p104ee4718f)" style="fill: none; stroke: #333333; stroke-width: 1.6; stroke-linecap: square"/>
    <defs>
     <path id="me169b54903" d="M 0 2 
C 0.530406 2 1.03916 1.789267 1.414214 1.414214 
C 1.789267 1.03916 2 0.530406 2 0 
C 2 -0.530406 1.789267 -1.03916 1.414214 -1.414214 
C 1.03916 -1.789267 0.530406 -2 0 -2 
C -0.530406 -2 -1.03916 -1.789267 -1.414214 -1.414214 
C -1.789267 -1.03916 -2 -0.530406 -2 0 
C -2 0.530406 -1.789267 1.03916 -1.414214 1.414214 
C -1.03916 1.789267 -0.530406 2 0 2 
z
" style="stroke: #333333"/>
    </defs>
    <g clip-path="url(#p104ee4718f)">
     <use xlink:href="#me169b54903" x="63.546818" y="209.878643" style="fill: #333333; stroke: #333333"/>
     <use xlink:href="#me169b54903" x="71.249783" y="209.826941" style="fill: #333333; stroke: #333333"/>
     <use xlink:href="#me169b54903" x="78.952747" y="209.779656" style="fill: #333333; stroke: #333333"/>
     <use xlink:href="#me169b54903" x="86.655711" y="209.725925" style="fill: #333333; stroke: #333333"/>
     <use xlink:href="#me169b54903" x="94.358676" y="209.662442" style="fill: #333333; stroke: #333333"/>
     <use xlink:href="#me169b54903" x="102.06164" y="209.593069" style="fill: #333333; stroke: #333333"/>
     <use xlink:href="#me169b54903" x="109.764605" y="209.518755" style="fill: #333333; stroke: #333333"/>
     <use xlink:href="#me169b54903" x="117.467569" y="209.419572" style="fill: #333333; stroke: #333333"/>
     <use xlink:href="#me169b54903" x="125.170534" y="209.294308" style="fill: #333333; stroke: #333333"/>
     <use xlink:href="#me169b54903" x="132.873498" y="209.160111" style="fill: #333333; stroke: #333333"/>
     <use xlink:href="#me169b54903" x="140.576462" y="209.012432" style="fill: #333333; stroke: #333333"/>
     <use xlink:href="#me169b54903" x="148.279427" y="208.838182" style="fill: #333333; stroke: #333333"/>
     <use xlink:href="#me169b54903" x="155.982391" y="208.659711" style="fill: #333333; stroke: #333333"/>
     <use xlink:href="#me169b54903" x="163.685356" y="208.471096" style="fill: #333333; stroke: #333333"/>
     <use xlink:href="#me169b54903" x="171.38832" y="208.237323" style="fill: #333333; stroke: #333333"/>
     <use xlink:href="#me169b54903" x="179.091285" y="207.985454" style="fill: #333333; stroke: #333333"/>
     <use xlink:href="#me169b54903" x="186.794249" y="207.700306" style="fill: #333333; stroke: #333333"/>
     <use xlink:href="#me169b54903" x="194.497213" y="207.318297" style="fill: #333333; stroke: #333333"/>
     <use xlink:href="#me169b54903" x="202.200178" y="206.915673" style="fill: #333333; stroke: #333333"/>
     <use xlink:href="#me169b54903" x="209.903142" y="206.49106" style="fill: #333333; stroke: #333333"/>
     <use xlink:href="#me169b54903" x="217.606107" y="205.984508" style="fill: #333333; stroke: #333333"/>
     <use xlink:href="#me169b54903" x="225.309071" y="205.415553" style="fill: #333333; stroke: #333333"/>
     <use xlink:href="#me169b54903" x="233.012036" y="204.830989" style="fill: #333333; stroke: #333333"/>
     <use xlink:href="#me169b54903" x="240.715" y="204.164618" style="fill: #333333; stroke: #333333"/>
     <use xlink:href="#me169b54903" x="248.417964" y="203.433423" style="fill: #333333; stroke: #333333"/>
     <use xlink:href="#me169b54903" x="256.120929" y="202.62042" style="fill: #333333; stroke: #333333"/>
     <use xlink:href="#me169b54903" x="263.823893" y="201.544946" style="fill: #333333; stroke: #333333"/>
     <use xlink:href="#me169b54903" x="271.526858" y="200.179611" style="fill: #333333; stroke: #333333"/>
     <use xlink:href="#me169b54903" x="279.229822" y="198.73921" style="fill: #333333; stroke: #333333"/>
     <use xlink:href="#me169b54903" x="286.932787" y="197.167099" style="fill: #333333; stroke: #333333"/>
     <use xlink:href="#me169b54903" x="294.635751" y="195.471459" style="fill: #333333; stroke: #333333"/>
     <use xlink:href="#me169b54903" x="302.338715" y="193.559323" style="fill: #333333; stroke: #333333"/>
     <use xlink:href="#me169b54903" x="310.04168" y="191.334486" style="fill: #333333; stroke: #333333"/>
     <use xlink:href="#me169b54903" x="317.744644" y="188.939719" style="fill: #333333; stroke: #333333"/>
     <use xlink:href="#me169b54903" x="325.447609" y="186.348908" style="fill: #333333; stroke: #333333"/>
     <use xlink:href="#me169b54903" x="333.150573" y="183.128114" style="fill: #333333; stroke: #333333"/>
     <use xlink:href="#me169b54903" x="340.853538" y="179.205968" style="fill: #333333; stroke: #333333"/>
     <use xlink:href="#me169b54903" x="348.556502" y="174.519871" style="fill: #333333; stroke: #333333"/>
     <use xlink:href="#me169b54903" x="356.259466" y="169.413742" style="fill: #333333; stroke: #333333"/>
     <use xlink:href="#me169b54903" x="363.962431" y="163.880806" style="fill: #333333; stroke: #333333"/>
     <use xlink:href="#me169b54903" x="371.665395" y="157.393013" style="fill: #333333; stroke: #333333"/>
     <use xlink:href="#me169b54903" x="379.36836" y="150.459369" style="fill: #333333; stroke: #333333"/>
     <use xlink:href="#me169b54903" x="387.071324" y="143.427491" style="fill: #333333; stroke: #333333"/>
     <use xlink:href="#me169b54903" x="394.774289" y="135.92414" style="fill: #333333; stroke: #333333"/>
     <use xlink:href="#me169b54903" x="402.477253" y="128.043362" style="fill: #333333; stroke: #333333"/>
     <use xlink:href="#me169b54903" x="410.180217" y="119.356322" style="fill: #333333; stroke: #333333"/>
     <use xlink:href="#me169b54903" x="417.883182" y="109.335492" style="fill: #333333; stroke: #333333"/>
    </g>
   </g>
   <g id="patch_3">
    <path d="M 45.83 210.04 
L 45.83 24.72 
" style="fill: none; stroke: #000000; stroke-linejoin: miter; stroke-linecap: square"/>
   </g>
   <g id="patch_4">
    <path d="M 435.6 210.04 
L 435.6 24.72 
" style="fill: none; stroke: #000000; stroke-linejoin: miter; stroke-linecap: square"/>
   </g>
   <g id="patch_5">
    <path d="M 45.83 210.04 
L 435.6 210.04 
" style="fill: none; stroke: #000000; stroke-linejoin: miter; stroke-linecap: square"/>
   </g>
   <g id="patch_6">
    <path d="M 45.83 24.72 
L 435.6 24.72 
" style="fill: none; stroke: #000000; stroke-linejoin: miter; stroke-linecap: square"/>
   </g>
   <g id="text_14">
    <text style="font-size: 11px; font-family: 'Arial'; text-anchor: middle" x="240.715" y="18.72" transform="rotate(-0 240.715 18.72)">sequence length = 8, σ = 0.25, total vertex count = 3366</text>
   </g>
  </g>
 </g>
 <defs>
  <clipPath id="p104ee4718f">
   <rect x="45.83" y="24.72" width="389.77" height="185.32"/>
  </clipPath>
 </defs>
</svg>
