<?xml version="1.0" encoding="utf-8" standalone="no"?>
<!DOCTYPE svg PUBLIC "-//W3C//DTD SVG 1.1//EN"
  "http://www.w3.org/Graphics/SVG/1.1/DTD/svg11.dtd">
<svg xmlns:xlink="http://www.w3.org/1999/xlink" width="446.4pt" height="252pt" viewBox="0 0 446.4 252" xmlns="http://www.w3.org/2000/svg" version="1.1">
 <metadata>
  <rdf:RDF xmlns:dc="http://purl.org/dc/elements/1.1/" xmlns:cc="http://creativecommons.org/ns#" xmlns:rdf="http://www.w3.org/1999/02/22-rdf-syntax-ns#">
   <cc:Work>
    <dc:type rdf:resource="http://purl.org/dc/dcmitype/StillImage"/>
    <dc:date>2026-02-27T15:28:23.347043</dc:date>
    <dc:format>image/svg+xml</dc:format>
    <dc:creator>
     <cc:Agent>
      <dc:title>Matplotlib v3.10.7, https://matplotlib.org/</dc:title>
     </cc:Agent>
    </dc:creator>
   </cc:Work>
  </rdf:RDF>
 </metadata>
 <defs>
  <style type="text/css">*{stroke-linejoin: round; stroke-linecap: butt}</style>
 </defs>
 <g id="figure_1">
  <g id="patch_1">
   <path d="M 0 252 
L 446.4 252 
L 446.4 0 
L 0 0 
z
" style="fill: #ffffff"/>
  </g>
  <g id="axes_1">
   <g id="patch_2">
    <path d="M 45.83 210.04 
L 432.529481 210.04 
L 432.529481 24.72 
L 45.83 24.72 
z
" style="fill: #ffffff"/>
   </g>
   <g id="matplotlib.axis_1">
    <g id="xtick_1">
     <g id="line2d_1">
      <defs>
       <path id="mc52ba99b86" d="M 0 0 
L 0 3.5 
" style="stroke: #000000; stroke-width: 0.8"/>
      </defs>
      <g>
       <use xlink:href="#mc52ba99b86" x="73.451391" y="210.04" style="stroke: #000000; stroke-width: 0.8"/>
      </g>
     </g>
     <g id="text_1">
      <text style="font-size: 10px; font-family: 'Arial'; text-anchor: middle" x="73.451391" y="224.197812" transform="rotate(-0 73.451391 224.197812)">−9.0</text>
     </g>
    </g>
    <g id="xtick_2">
     <g id="line2d_2">
      <g>
       <use xlink:href="#mc52ba99b86" x="123.672103" y="210.04" style="stroke: #000000; stroke-width: 0.8"/>
      </g>
     </g>
     <g id="text_2">
      <text style="font-size: 10px; font-family: 'Arial'; text-anchor: middle" x="123.672103" y="224.197812" transform="rotate(-0 123.672103 224.197812)">−8.5</text>
     </g>
    </g>
    <g id="xtick_3">
     <g id="line2d_3">
      <g>
       <use xlink:href="#mc52ba99b86" x="173.892815" y="210.04" style="stroke: #000000; stroke-width: 0.8"/>
      </g>
     </g>
     <g id="text_3">
      <text style="font-size: 10px; font-family: 'Arial'; text-anchor: middle" x="173.892815" y="224.197812" transform="rotate(-0 173.892815 224.197812)">−8.0</text>
     </g>
    </g>
    <g id="xtick_4">
     <g id="line2d_4">
      <g>
       <use xlink:href="#mc52ba99b86" x="224.113527" y="210.04" style="stroke: #000000; stroke-width: 0.8"/>
      </g>
     </g>
     <g id="text_4">
      <text style="font-size: 10px; font-family: 'Arial'; text-anchor: middle" x="224.113527" y="224.197812" transform="rotate(-0 224.113527 224.197812)">−7.5</text>
     </g>
    </g>
    <g id="xtick_5">
     <g id="line2d_5">
      <g>
       <use xlink:href="#mc52ba99b86" x="274.334238" y="210.04" style="stroke: #000000; stroke-width: 0.8"/>
      </g>
     </g>
     <g id="text_5">
      <text style="font-size: 10px; font-family: 'Arial'; text-anchor: middle" x="274.334238" y="224.197812" transform="rotate(-0 274.334238 224.197812)">−7.0</text>
     </g>
    </g>
    <g id="xtick_6">
     <g id="line2d_6">
      <g>
       <use xlink:href="#mc52ba99b86" x="324.55495" y="210.04" style="stroke: #000000; stroke-width: 0.8"/>
      </g>
     </g>
     <g id="text_6">
      <text style="font-size: 10px; font-family: 'Arial'; text-anchor: middle" x="324.55495" y="224.197812" transform="rotate(-0 324.55495 224.197812)">−6.5</text>
     </g>
    </g>
    <g id="xtick_7">
     <g id="line2d_7">
      <g>
       <use xlink:href="#mc52ba99b86" x="374.775662" y="210.04" style="stroke: #000000; stroke-width: 0.8"/>
      </g>
     </g>
     <g id="text_7">
      <text style="font-size: 10px; font-family: 'Arial'; text-anchor: middle" x="374.775662" y="224.197812" transform="rotate(-0 374.775662 224.197812)">−6.0</text>
     </g>
    </g>
    <g id="xtick_8">
     <g id="line2d_8">
      <g>
       <use xlink:href="#mc52ba99b86" x="424.996374" y="210.04" style="stroke: #000000; stroke-width: 0.8"/>
      </g>
     </g>
     <g id="text_8">
      <text style="font-size: 10px; font-family: 'Arial'; text-anchor: middle" x="424.996374" y="224.197812" transform="rotate(-0 424.996374 224.197812)">−5.5</text>
     </g>
    </g>
    <g id="text_9">
     <text style="font-size: 11px; font-family: 'Arial'; text-anchor: middle" x="239.17974" y="238.192969" transform="rotate(-0 239.17974 238.192969)">Gibbs free energy (kcal/mol)</text>
    </g>
   </g>
   <g id="matplotlib.axis_2">
    <g id="ytick_1">
     <g id="line2d_9">
      <defs>
       <path id="meda984c19e" d="M 0 0 
L -3.5 0 
" style="stroke: #000000; stroke-width: 0.8"/>
      </defs>
      <g>
       <use xlink:href="#meda984c19e" x="45.83" y="210.04" style="stroke: #000000; stroke-width: 0.8"/>
      </g>
     </g>
     <g id="text_10">
      <text style="font-size: 10px; font-family: 'Arial'; text-anchor: end" x="38.83" y="213.618906" transform="rotate(-0 38.83 213.618906)">0.0</text>
     </g>
    </g>
    <g id="ytick_2">
     <g id="line2d_10">
      <g>
       <use xlink:href="#meda984c19e" x="45.83" y="172.976" style="stroke: #000000; stroke-width: 0.8"/>
      </g>
     </g>
     <g id="text_11">
      <text style="font-size: 10px; font-family: 'Arial'; text-anchor: end" x="38.83" y="176.554906" transform="rotate(-0 38.83 176.554906)">0.2</text>
     </g>
    </g>
    <g id="ytick_3">
     <g id="line2d_11">
      <g>
       <use xlink:href="#meda984c19e" x="45.83" y="135.912" style="stroke: #000000; stroke-width: 0.8"/>
      </g>
     </g>
     <g id="text_12">
      <text style="font-size: 10px; font-family: 'Arial'; text-anchor: end" x="38.83" y="139.490906" transform="rotate(-0 38.83 139.490906)">0.4</text>
     </g>
    </g>
    <g id="ytick_4">
     <g id="line2d_12">
      <g>
       <use xlink:href="#meda984c19e" x="45.83" y="98.848" style="stroke: #000000; stroke-width: 0.8"/>
      </g>
     </g>
     <g id="text_13">
      <text style="font-size: 10px; font-family: 'Arial'; text-anchor: end" x="38.83" y="102.426906" transform="rotate(-0 38.83 102.426906)">0.6</text>
     </g>
    </g>
    <g id="ytick_5">
     <g id="line2d_13">
      <g>
       <use xlink:href="#meda984c19e" x="45.83" y="61.784" style="stroke: #000000; stroke-width: 0.8"/>
      </g>
     </g>
     <g id="text_14">
      <text style="font-size: 10px; font-family: 'Arial'; text-anchor: end" x="38.83" y="65.362906" transform="rotate(-0 38.83 65.362906)">0.8</text>
     </g>
    </g>
    <g id="ytick_6">
     <g id="line2d_14">
      <g>
       <use xlink:href="#meda984c19e" x="45.83" y="24.72" style="stroke: #000000; stroke-width: 0.8"/>
      </g>
     </g>
     <g id="text_15">
      <text style="font-size: 10px; font-family: 'Arial'; text-anchor: end" x="38.83" y="28.298906" transform="rotate(-0 38.83 28.298906)">1.0</text>
     </g>
    </g>
    <g id="text_16">
     <text style="font-size: 11px; font-family: 'Arial'; text-anchor: middle" x="18.614844" y="117.38" transform="rotate(-90 18.614844 117.38)">Conflict probability</text>
    </g>
   </g>
   <g id="line2d_15">
    <path d="M 63.407249 209.308342 
L 73.451391 209.11595 
L 83.495534 208.911985 
L 93.539676 208.686382 
L 103.583819 208.408614 
L 113.627961 208.077841 
L 123.672103 207.76401 
L 133.716246 207.402542 
L 143.760388 206.985722 
L 153.80453 206.518916 
L 163.848673 206.03886 
L 173.892815 205.476782 
L 183.936957 204.921245 
L 193.9811 204.287879 
L 204.025242 203.471348 
L 214.069384 202.553001 
L 224.113527 201.639686 
L 234.157669 200.445584 
L 244.201811 199.161073 
L 254.245954 197.670248 
L 264.290096 195.959021 
L 274.334238 194.320422 
L 284.378381 192.433744 
L 294.422523 190.073215 
L 304.466666 186.873679 
L 314.510808 183.150308 
L 324.55495 178.72547 
L 334.599093 173.769753 
L 344.643235 167.521306 
L 354.687377 161.111834 
L 364.73152 154.653383 
L 374.775662 147.487092 
L 384.819804 140.132939 
L 394.863947 132.767212 
L 404.908089 124.040823 
L 414.952231 115.065683 
" clip-path="url(#pedf7bd6a8f)" style="fill: none; stroke: #333333; stroke-width: 1.6; stroke-linecap: square"/>
    <defs>
     <path id="me5f1c1467d" d="M 0 2 
C 0.530406 2 1.03916 1.789267 1.414214 1.414214 
C 1.789267 1.03916 2 0.530406 2 0 
C 2 -0.530406 1.789267 -1.03916 1.414214 -1.414214 
C 1.03916 -1.789267 0.530406 -2 0 -2 
C -0.530406 -2 -1.03916 -1.789267 -1.414214 -1.414214 
C -1.789267 -1.03916 -2 -0.530406 -2 0 
C -2 0.530406 -1.789267 1.03916 -1.414214 1.414214 
C -1.03916 1.789267 -0.530406 2 0 2 
z
" style="stroke: #333333"/>
    </defs>
    <g clip-path="url(#pedf7bd6a8f)">
     <use xlink:href="#me5f1c1467d" x="63.407249" y="209.308342" style="fill: #333333; stroke: #333333"/>
     <use xlink:href="#me5f1c1467d" x="73.451391" y="209.11595" style="fill: #333333; stroke: #333333"/>
     <use xlink:href="#me5f1c1467d" x="83.495534" y="208.911985" style="fill: #333333; stroke: #333333"/>
     <use xlink:href="#me5f1c1467d" x="93.539676" y="208.686382" style="fill: #333333; stroke: #333333"/>
     <use xlink:href="#me5f1c1467d" x="103.583819" y="208.408614" style="fill: #333333; stroke: #333333"/>
     <use xlink:href="#me5f1c1467d" x="113.627961" y="208.077841" style="fill: #333333; stroke: #333333"/>
     <use xlink:href="#me5f1c1467d" x="123.672103" y="207.76401" style="fill: #333333; stroke: #333333"/>
     <use xlink:href="#me5f1c1467d" x="133.716246" y="207.402542" style="fill: #333333; stroke: #333333"/>
     <use xlink:href="#me5f1c1467d" x="143.760388" y="206.985722" style="fill: #333333; stroke: #333333"/>
     <use xlink:href="#me5f1c1467d" x="153.80453" y="206.518916" style="fill: #333333; stroke: #333333"/>
     <use xlink:href="#me5f1c1467d" x="163.848673" y="206.03886" style="fill: #333333; stroke: #333333"/>
     <use xlink:href="#me5f1c1467d" x="173.892815" y="205.476782" style="fill: #333333; stroke: #333333"/>
     <use xlink:href="#me5f1c1467d" x="183.936957" y="204.921245" style="fill: #333333; stroke: #333333"/>
     <use xlink:href="#me5f1c1467d" x="193.9811" y="204.287879" style="fill: #333333; stroke: #333333"/>
     <use xlink:href="#me5f1c1467d" x="204.025242" y="203.471348" style="fill: #333333; stroke: #333333"/>
     <use xlink:href="#me5f1c1467d" x="214.069384" y="202.553001" style="fill: #333333; stroke: #333333"/>
     <use xlink:href="#me5f1c1467d" x="224.113527" y="201.639686" style="fill: #333333; stroke: #333333"/>
     <use xlink:href="#me5f1c1467d" x="234.157669" y="200.445584" style="fill: #333333; stroke: #333333"/>
     <use xlink:href="#me5f1c1467d" x="244.201811" y="199.161073" style="fill: #333333; stroke: #333333"/>
     <use xlink:href="#me5f1c1467d" x="254.245954" y="197.670248" style="fill: #333333; stroke: #333333"/>
     <use xlink:href="#me5f1c1467d" x="264.290096" y="195.959021" style="fill: #333333; stroke: #333333"/>
     <use xlink:href="#me5f1c1467d" x="274.334238" y="194.320422" style="fill: #333333; stroke: #333333"/>
     <use xlink:href="#me5f1c1467d" x="284.378381" y="192.433744" style="fill: #333333; stroke: #333333"/>
     <use xlink:href="#me5f1c1467d" x="294.422523" y="190.073215" style="fill: #333333; stroke: #333333"/>
     <use xlink:href="#me5f1c1467d" x="304.466666" y="186.873679" style="fill: #333333; stroke: #333333"/>
     <use xlink:href="#me5f1c1467d" x="314.510808" y="183.150308" style="fill: #333333; stroke: #333333"/>
     <use xlink:href="#me5f1c1467d" x="324.55495" y="178.72547" style="fill: #333333; stroke: #333333"/>
     <use xlink:href="#me5f1c1467d" x="334.599093" y="173.769753" style="fill: #333333; stroke: #333333"/>
     <use xlink:href="#me5f1c1467d" x="344.643235" y="167.521306" style="fill: #333333; stroke: #333333"/>
     <use xlink:href="#me5f1c1467d" x="354.687377" y="161.111834" style="fill: #333333; stroke: #333333"/>
     <use xlink:href="#me5f1c1467d" x="364.73152" y="154.653383" style="fill: #333333; stroke: #333333"/>
     <use xlink:href="#me5f1c1467d" x="374.775662" y="147.487092" style="fill: #333333; stroke: #333333"/>
     <use xlink:href="#me5f1c1467d" x="384.819804" y="140.132939" style="fill: #333333; stroke: #333333"/>
     <use xlink:href="#me5f1c1467d" x="394.863947" y="132.767212" style="fill: #333333; stroke: #333333"/>
     <use xlink:href="#me5f1c1467d" x="404.908089" y="124.040823" style="fill: #333333; stroke: #333333"/>
     <use xlink:href="#me5f1c1467d" x="414.952231" y="115.065683" style="fill: #333333; stroke: #333333"/>
    </g>
   </g>
   <g id="patch_3">
    <path d="M 45.83 210.04 
L 45.83 24.72 
" style="fill: none; stroke: #000000; stroke-linejoin: miter; stroke-linecap: square"/>
   </g>
   <g id="patch_4">
    <path d="M 432.529481 210.04 
L 432.529481 24.72 
" style="fill: none; stroke: #000000; stroke-linejoin: miter; stroke-linecap: square"/>
   </g>
   <g id="patch_5">
    <path d="M 45.83 210.04 
L 432.529481 210.04 
" style="fill: none; stroke: #000000; stroke-linejoin: miter; stroke-linecap: square"/>
   </g>
   <g id="patch_6">
    <path d="M 45.83 24.72 
L 432.529481 24.72 
" style="fill: none; stroke: #000000; stroke-linejoin: miter; stroke-linecap: square"/>
   </g>
   <g id="text_17">
    <text style="font-size: 11px; font-family: 'Arial'; text-anchor: middle" x="239.17974" y="18.72" transform="rotate(-0 239.17974 18.72)">sequence length = 7, σ = 0.5, total vertex count = 1487</text>
   </g>
  </g>
 </g>
 <defs>
  <clipPath id="pedf7bd6a8f">
   <rect x="45.83" y="24.72" width="386.699481" height="185.32"/>
  </clipPath>
 </defs>
</svg>
