<?xml version="1.0" encoding="utf-8" standalone="no"?>
<!DOCTYPE svg PUBLIC "-//W3C//DTD SVG 1.1//EN"
  "http://www.w3.org/Graphics/SVG/1.1/DTD/svg11.dtd">
<svg xmlns:xlink="http://www.w3.org/1999/xlink" width="704pt" height="396pt" viewBox="0 0 704 396" xmlns="http://www.w3.org/2000/svg" version="1.1">
 <metadata>
  <rdf:RDF xmlns:dc="http://purl.org/dc/elements/1.1/" xmlns:cc="http://creativecommons.org/ns#" xmlns:rdf="http://www.w3.org/1999/02/22-rdf-syntax-ns#">
   <cc:Work>
    <dc:type rdf:resource="http://purl.org/dc/dcmitype/StillImage"/>
    <dc:date>2026-03-05T10:49:39.601004</dc:date>
    <dc:format>image/svg+xml</dc:format>
    <dc:creator>
     <cc:Agent>
      <dc:title>Matplotlib v3.10.7, https://matplotlib.org/</dc:title>
     </cc:Agent>
    </dc:creator>
   </cc:Work>
  </rdf:RDF>
 </metadata>
 <defs>
  <style type="text/css">*{stroke-linejoin: round; stroke-linecap: butt}</style>
 </defs>
 <g id="figure_1">
  <g id="patch_1">
   <path d="M 0 396 
L 704 396 
L 704 0 
L 0 0 
z
" style="fill: #ffffff"/>
  </g>
  <g id="axes_1">
   <g id="patch_2">
    <path d="M 68.58 338.58 
L 693.2 338.58 
L 693.2 35.2 
L 68.58 35.2 
z
" style="fill: #ffffff"/>
   </g>
   <g id="patch_3">
    <path d="M 96.971818 338.58 
L 104.069773 338.58 
L 104.069773 335.904691 
L 96.971818 335.904691 
z
" clip-path="url(#pa4876dc133)" style="fill: #d62728; opacity: 0.8; stroke: #000000; stroke-width: 2; stroke-linejoin: miter"/>
   </g>
   <g id="patch_4">
    <path d="M 104.069773 338.58 
L 111.167727 338.58 
L 111.167727 337.242346 
L 104.069773 337.242346 
z
" clip-path="url(#pa4876dc133)" style="fill: #d62728; opacity: 0.8; stroke: #000000; stroke-width: 2; stroke-linejoin: miter"/>
   </g>
   <g id="patch_5">
    <path d="M 111.167727 338.58 
L 118.265682 338.58 
L 118.265682 337.242346 
L 111.167727 337.242346 
z
" clip-path="url(#pa4876dc133)" style="fill: #d62728; opacity: 0.8; stroke: #000000; stroke-width: 2; stroke-linejoin: miter"/>
   </g>
   <g id="patch_6">
    <path d="M 118.265682 338.58 
L 125.363636 338.58 
L 125.363636 338.58 
L 118.265682 338.58 
z
" clip-path="url(#pa4876dc133)" style="fill: #d62728; opacity: 0.8; stroke: #000000; stroke-width: 2; stroke-linejoin: miter"/>
   </g>
   <g id="patch_7">
    <path d="M 125.363636 338.58 
L 132.461591 338.58 
L 132.461591 336.573519 
L 125.363636 336.573519 
z
" clip-path="url(#pa4876dc133)" style="fill: #d62728; opacity: 0.8; stroke: #000000; stroke-width: 2; stroke-linejoin: miter"/>
   </g>
   <g id="patch_8">
    <path d="M 132.461591 338.58 
L 139.559545 338.58 
L 139.559545 326.541111 
L 132.461591 326.541111 
z
" clip-path="url(#pa4876dc133)" style="fill: #d62728; opacity: 0.8; stroke: #000000; stroke-width: 2; stroke-linejoin: miter"/>
   </g>
   <g id="patch_9">
    <path d="M 139.559545 338.58 
L 146.6575 338.58 
L 146.6575 332.560556 
L 139.559545 332.560556 
z
" clip-path="url(#pa4876dc133)" style="fill: #d62728; opacity: 0.8; stroke: #000000; stroke-width: 2; stroke-linejoin: miter"/>
   </g>
   <g id="patch_10">
    <path d="M 146.6575 338.58 
L 153.755455 338.58 
L 153.755455 327.878765 
L 146.6575 327.878765 
z
" clip-path="url(#pa4876dc133)" style="fill: #d62728; opacity: 0.8; stroke: #000000; stroke-width: 2; stroke-linejoin: miter"/>
   </g>
   <g id="patch_11">
    <path d="M 153.755455 338.58 
L 160.853409 338.58 
L 160.853409 325.872284 
L 153.755455 325.872284 
z
" clip-path="url(#pa4876dc133)" style="fill: #d62728; opacity: 0.8; stroke: #000000; stroke-width: 2; stroke-linejoin: miter"/>
   </g>
   <g id="patch_12">
    <path d="M 160.853409 338.58 
L 167.951364 338.58 
L 167.951364 328.547593 
L 160.853409 328.547593 
z
" clip-path="url(#pa4876dc133)" style="fill: #d62728; opacity: 0.8; stroke: #000000; stroke-width: 2; stroke-linejoin: miter"/>
   </g>
   <g id="patch_13">
    <path d="M 167.951364 338.58 
L 175.049318 338.58 
L 175.049318 321.190494 
L 167.951364 321.190494 
z
" clip-path="url(#pa4876dc133)" style="fill: #d62728; opacity: 0.8; stroke: #000000; stroke-width: 2; stroke-linejoin: miter"/>
   </g>
   <g id="patch_14">
    <path d="M 175.049318 338.58 
L 182.147273 338.58 
L 182.147273 322.528148 
L 175.049318 322.528148 
z
" clip-path="url(#pa4876dc133)" style="fill: #d62728; opacity: 0.8; stroke: #000000; stroke-width: 2; stroke-linejoin: miter"/>
   </g>
   <g id="patch_15">
    <path d="M 182.147273 338.58 
L 189.245227 338.58 
L 189.245227 331.891728 
L 182.147273 331.891728 
z
" clip-path="url(#pa4876dc133)" style="fill: #d62728; opacity: 0.8; stroke: #000000; stroke-width: 2; stroke-linejoin: miter"/>
   </g>
   <g id="patch_16">
    <path d="M 189.245227 338.58 
L 196.343182 338.58 
L 196.343182 323.865802 
L 189.245227 323.865802 
z
" clip-path="url(#pa4876dc133)" style="fill: #d62728; opacity: 0.8; stroke: #000000; stroke-width: 2; stroke-linejoin: miter"/>
   </g>
   <g id="patch_17">
    <path d="M 196.343182 338.58 
L 203.441136 338.58 
L 203.441136 311.158086 
L 196.343182 311.158086 
z
" clip-path="url(#pa4876dc133)" style="fill: #d62728; opacity: 0.8; stroke: #000000; stroke-width: 2; stroke-linejoin: miter"/>
   </g>
   <g id="patch_18">
    <path d="M 203.441136 338.58 
L 210.539091 338.58 
L 210.539091 318.515185 
L 203.441136 318.515185 
z
" clip-path="url(#pa4876dc133)" style="fill: #d62728; opacity: 0.8; stroke: #000000; stroke-width: 2; stroke-linejoin: miter"/>
   </g>
   <g id="patch_19">
    <path d="M 210.539091 338.58 
L 217.637045 338.58 
L 217.637045 317.177531 
L 210.539091 317.177531 
z
" clip-path="url(#pa4876dc133)" style="fill: #d62728; opacity: 0.8; stroke: #000000; stroke-width: 2; stroke-linejoin: miter"/>
   </g>
   <g id="patch_20">
    <path d="M 217.637045 338.58 
L 224.735 338.58 
L 224.735 319.184012 
L 217.637045 319.184012 
z
" clip-path="url(#pa4876dc133)" style="fill: #d62728; opacity: 0.8; stroke: #000000; stroke-width: 2; stroke-linejoin: miter"/>
   </g>
   <g id="patch_21">
    <path d="M 224.735 338.58 
L 231.832955 338.58 
L 231.832955 328.547593 
L 224.735 328.547593 
z
" clip-path="url(#pa4876dc133)" style="fill: #d62728; opacity: 0.8; stroke: #000000; stroke-width: 2; stroke-linejoin: miter"/>
   </g>
   <g id="patch_22">
    <path d="M 231.832955 338.58 
L 238.930909 338.58 
L 238.930909 326.541111 
L 231.832955 326.541111 
z
" clip-path="url(#pa4876dc133)" style="fill: #d62728; opacity: 0.8; stroke: #000000; stroke-width: 2; stroke-linejoin: miter"/>
   </g>
   <g id="patch_23">
    <path d="M 238.930909 338.58 
L 246.028864 338.58 
L 246.028864 323.865802 
L 238.930909 323.865802 
z
" clip-path="url(#pa4876dc133)" style="fill: #d62728; opacity: 0.8; stroke: #000000; stroke-width: 2; stroke-linejoin: miter"/>
   </g>
   <g id="patch_24">
    <path d="M 246.028864 338.58 
L 253.126818 338.58 
L 253.126818 324.53463 
L 246.028864 324.53463 
z
" clip-path="url(#pa4876dc133)" style="fill: #d62728; opacity: 0.8; stroke: #000000; stroke-width: 2; stroke-linejoin: miter"/>
   </g>
   <g id="patch_25">
    <path d="M 253.126818 338.58 
L 260.224773 338.58 
L 260.224773 317.177531 
L 253.126818 317.177531 
z
" clip-path="url(#pa4876dc133)" style="fill: #d62728; opacity: 0.8; stroke: #000000; stroke-width: 2; stroke-linejoin: miter"/>
   </g>
   <g id="patch_26">
    <path d="M 260.224773 338.58 
L 267.322727 338.58 
L 267.322727 315.839877 
L 260.224773 315.839877 
z
" clip-path="url(#pa4876dc133)" style="fill: #d62728; opacity: 0.8; stroke: #000000; stroke-width: 2; stroke-linejoin: miter"/>
   </g>
   <g id="patch_27">
    <path d="M 267.322727 338.58 
L 274.420682 338.58 
L 274.420682 313.833395 
L 267.322727 313.833395 
z
" clip-path="url(#pa4876dc133)" style="fill: #d62728; opacity: 0.8; stroke: #000000; stroke-width: 2; stroke-linejoin: miter"/>
   </g>
   <g id="patch_28">
    <path d="M 274.420682 338.58 
L 281.518636 338.58 
L 281.518636 309.820432 
L 274.420682 309.820432 
z
" clip-path="url(#pa4876dc133)" style="fill: #d62728; opacity: 0.8; stroke: #000000; stroke-width: 2; stroke-linejoin: miter"/>
   </g>
   <g id="patch_29">
    <path d="M 281.518636 338.58 
L 288.616591 338.58 
L 288.616591 287.080309 
L 281.518636 287.080309 
z
" clip-path="url(#pa4876dc133)" style="fill: #d62728; opacity: 0.8; stroke: #000000; stroke-width: 2; stroke-linejoin: miter"/>
   </g>
   <g id="patch_30">
    <path d="M 288.616591 338.58 
L 295.714545 338.58 
L 295.714545 311.158086 
L 288.616591 311.158086 
z
" clip-path="url(#pa4876dc133)" style="fill: #d62728; opacity: 0.8; stroke: #000000; stroke-width: 2; stroke-linejoin: miter"/>
   </g>
   <g id="patch_31">
    <path d="M 295.714545 338.58 
L 302.8125 338.58 
L 302.8125 297.112716 
L 295.714545 297.112716 
z
" clip-path="url(#pa4876dc133)" style="fill: #d62728; opacity: 0.8; stroke: #000000; stroke-width: 2; stroke-linejoin: miter"/>
   </g>
   <g id="patch_32">
    <path d="M 302.8125 338.58 
L 309.910455 338.58 
L 309.910455 309.151605 
L 302.8125 309.151605 
z
" clip-path="url(#pa4876dc133)" style="fill: #d62728; opacity: 0.8; stroke: #000000; stroke-width: 2; stroke-linejoin: miter"/>
   </g>
   <g id="patch_33">
    <path d="M 309.910455 338.58 
L 317.008409 338.58 
L 317.008409 304.469815 
L 309.910455 304.469815 
z
" clip-path="url(#pa4876dc133)" style="fill: #d62728; opacity: 0.8; stroke: #000000; stroke-width: 2; stroke-linejoin: miter"/>
   </g>
   <g id="patch_34">
    <path d="M 317.008409 338.58 
L 324.106364 338.58 
L 324.106364 303.800988 
L 317.008409 303.800988 
z
" clip-path="url(#pa4876dc133)" style="fill: #d62728; opacity: 0.8; stroke: #000000; stroke-width: 2; stroke-linejoin: miter"/>
   </g>
   <g id="patch_35">
    <path d="M 324.106364 338.58 
L 331.204318 338.58 
L 331.204318 288.417963 
L 324.106364 288.417963 
z
" clip-path="url(#pa4876dc133)" style="fill: #d62728; opacity: 0.8; stroke: #000000; stroke-width: 2; stroke-linejoin: miter"/>
   </g>
   <g id="patch_36">
    <path d="M 331.204318 338.58 
L 338.302273 338.58 
L 338.302273 274.372593 
L 331.204318 274.372593 
z
" clip-path="url(#pa4876dc133)" style="fill: #d62728; opacity: 0.8; stroke: #000000; stroke-width: 2; stroke-linejoin: miter"/>
   </g>
   <g id="patch_37">
    <path d="M 338.302273 338.58 
L 345.400227 338.58 
L 345.400227 286.411481 
L 338.302273 286.411481 
z
" clip-path="url(#pa4876dc133)" style="fill: #d62728; opacity: 0.8; stroke: #000000; stroke-width: 2; stroke-linejoin: miter"/>
   </g>
   <g id="patch_38">
    <path d="M 345.400227 338.58 
L 352.498182 338.58 
L 352.498182 266.346667 
L 345.400227 266.346667 
z
" clip-path="url(#pa4876dc133)" style="fill: #d62728; opacity: 0.8; stroke: #000000; stroke-width: 2; stroke-linejoin: miter"/>
   </g>
   <g id="patch_39">
    <path d="M 352.498182 338.58 
L 359.596136 338.58 
L 359.596136 242.937716 
L 352.498182 242.937716 
z
" clip-path="url(#pa4876dc133)" style="fill: #d62728; opacity: 0.8; stroke: #000000; stroke-width: 2; stroke-linejoin: miter"/>
   </g>
   <g id="patch_40">
    <path d="M 359.596136 338.58 
L 366.694091 338.58 
L 366.694091 252.301296 
L 359.596136 252.301296 
z
" clip-path="url(#pa4876dc133)" style="fill: #d62728; opacity: 0.8; stroke: #000000; stroke-width: 2; stroke-linejoin: miter"/>
   </g>
   <g id="patch_41">
    <path d="M 366.694091 338.58 
L 373.792045 338.58 
L 373.792045 249.625988 
L 366.694091 249.625988 
z
" clip-path="url(#pa4876dc133)" style="fill: #d62728; opacity: 0.8; stroke: #000000; stroke-width: 2; stroke-linejoin: miter"/>
   </g>
   <g id="patch_42">
    <path d="M 373.792045 338.58 
L 380.89 338.58 
L 380.89 244.27537 
L 373.792045 244.27537 
z
" clip-path="url(#pa4876dc133)" style="fill: #d62728; opacity: 0.8; stroke: #000000; stroke-width: 2; stroke-linejoin: miter"/>
   </g>
   <g id="patch_43">
    <path d="M 380.89 338.58 
L 387.987955 338.58 
L 387.987955 275.04142 
L 380.89 275.04142 
z
" clip-path="url(#pa4876dc133)" style="fill: #d62728; opacity: 0.8; stroke: #000000; stroke-width: 2; stroke-linejoin: miter"/>
   </g>
   <g id="patch_44">
    <path d="M 387.987955 338.58 
L 395.085909 338.58 
L 395.085909 285.742654 
L 387.987955 285.742654 
z
" clip-path="url(#pa4876dc133)" style="fill: #d62728; opacity: 0.8; stroke: #000000; stroke-width: 2; stroke-linejoin: miter"/>
   </g>
   <g id="patch_45">
    <path d="M 395.085909 338.58 
L 402.183864 338.58 
L 402.183864 279.72321 
L 395.085909 279.72321 
z
" clip-path="url(#pa4876dc133)" style="fill: #d62728; opacity: 0.8; stroke: #000000; stroke-width: 2; stroke-linejoin: miter"/>
   </g>
   <g id="patch_46">
    <path d="M 402.183864 338.58 
L 409.281818 338.58 
L 409.281818 278.385556 
L 402.183864 278.385556 
z
" clip-path="url(#pa4876dc133)" style="fill: #d62728; opacity: 0.8; stroke: #000000; stroke-width: 2; stroke-linejoin: miter"/>
   </g>
   <g id="patch_47">
    <path d="M 409.281818 338.58 
L 416.379773 338.58 
L 416.379773 299.788025 
L 409.281818 299.788025 
z
" clip-path="url(#pa4876dc133)" style="fill: #d62728; opacity: 0.8; stroke: #000000; stroke-width: 2; stroke-linejoin: miter"/>
   </g>
   <g id="patch_48">
    <path d="M 416.379773 338.58 
L 423.477727 338.58 
L 423.477727 298.45037 
L 416.379773 298.45037 
z
" clip-path="url(#pa4876dc133)" style="fill: #d62728; opacity: 0.8; stroke: #000000; stroke-width: 2; stroke-linejoin: miter"/>
   </g>
   <g id="patch_49">
    <path d="M 423.477727 338.58 
L 430.575682 338.58 
L 430.575682 295.106235 
L 423.477727 295.106235 
z
" clip-path="url(#pa4876dc133)" style="fill: #d62728; opacity: 0.8; stroke: #000000; stroke-width: 2; stroke-linejoin: miter"/>
   </g>
   <g id="patch_50">
    <path d="M 430.575682 338.58 
L 437.673636 338.58 
L 437.673636 309.820432 
L 430.575682 309.820432 
z
" clip-path="url(#pa4876dc133)" style="fill: #d62728; opacity: 0.8; stroke: #000000; stroke-width: 2; stroke-linejoin: miter"/>
   </g>
   <g id="patch_51">
    <path d="M 437.673636 338.58 
L 444.771591 338.58 
L 444.771591 320.521667 
L 437.673636 320.521667 
z
" clip-path="url(#pa4876dc133)" style="fill: #d62728; opacity: 0.8; stroke: #000000; stroke-width: 2; stroke-linejoin: miter"/>
   </g>
   <g id="patch_52">
    <path d="M 444.771591 338.58 
L 451.869545 338.58 
L 451.869545 319.85284 
L 444.771591 319.85284 
z
" clip-path="url(#pa4876dc133)" style="fill: #d62728; opacity: 0.8; stroke: #000000; stroke-width: 2; stroke-linejoin: miter"/>
   </g>
   <g id="patch_53">
    <path d="M 451.869545 338.58 
L 458.9675 338.58 
L 458.9675 323.865802 
L 451.869545 323.865802 
z
" clip-path="url(#pa4876dc133)" style="fill: #d62728; opacity: 0.8; stroke: #000000; stroke-width: 2; stroke-linejoin: miter"/>
   </g>
   <g id="patch_54">
    <path d="M 458.9675 338.58 
L 466.065455 338.58 
L 466.065455 329.885247 
L 458.9675 329.885247 
z
" clip-path="url(#pa4876dc133)" style="fill: #d62728; opacity: 0.8; stroke: #000000; stroke-width: 2; stroke-linejoin: miter"/>
   </g>
   <g id="patch_55">
    <path d="M 466.065455 338.58 
L 473.163409 338.58 
L 473.163409 331.222901 
L 466.065455 331.222901 
z
" clip-path="url(#pa4876dc133)" style="fill: #d62728; opacity: 0.8; stroke: #000000; stroke-width: 2; stroke-linejoin: miter"/>
   </g>
   <g id="patch_56">
    <path d="M 473.163409 338.58 
L 480.261364 338.58 
L 480.261364 334.567037 
L 473.163409 334.567037 
z
" clip-path="url(#pa4876dc133)" style="fill: #d62728; opacity: 0.8; stroke: #000000; stroke-width: 2; stroke-linejoin: miter"/>
   </g>
   <g id="patch_57">
    <path d="M 480.261364 338.58 
L 487.359318 338.58 
L 487.359318 333.89821 
L 480.261364 333.89821 
z
" clip-path="url(#pa4876dc133)" style="fill: #d62728; opacity: 0.8; stroke: #000000; stroke-width: 2; stroke-linejoin: miter"/>
   </g>
   <g id="patch_58">
    <path d="M 487.359318 338.58 
L 494.457273 338.58 
L 494.457273 331.222901 
L 487.359318 331.222901 
z
" clip-path="url(#pa4876dc133)" style="fill: #d62728; opacity: 0.8; stroke: #000000; stroke-width: 2; stroke-linejoin: miter"/>
   </g>
   <g id="patch_59">
    <path d="M 494.457273 338.58 
L 501.555227 338.58 
L 501.555227 336.573519 
L 494.457273 336.573519 
z
" clip-path="url(#pa4876dc133)" style="fill: #d62728; opacity: 0.8; stroke: #000000; stroke-width: 2; stroke-linejoin: miter"/>
   </g>
   <g id="patch_60">
    <path d="M 501.555227 338.58 
L 508.653182 338.58 
L 508.653182 338.58 
L 501.555227 338.58 
z
" clip-path="url(#pa4876dc133)" style="fill: #d62728; opacity: 0.8; stroke: #000000; stroke-width: 2; stroke-linejoin: miter"/>
   </g>
   <g id="patch_61">
    <path d="M 508.653182 338.58 
L 515.751136 338.58 
L 515.751136 336.573519 
L 508.653182 336.573519 
z
" clip-path="url(#pa4876dc133)" style="fill: #d62728; opacity: 0.8; stroke: #000000; stroke-width: 2; stroke-linejoin: miter"/>
   </g>
   <g id="patch_62">
    <path d="M 515.751136 338.58 
L 522.849091 338.58 
L 522.849091 335.904691 
L 515.751136 335.904691 
z
" clip-path="url(#pa4876dc133)" style="fill: #d62728; opacity: 0.8; stroke: #000000; stroke-width: 2; stroke-linejoin: miter"/>
   </g>
   <g id="patch_63">
    <path d="M 522.849091 338.58 
L 529.947045 338.58 
L 529.947045 333.229383 
L 522.849091 333.229383 
z
" clip-path="url(#pa4876dc133)" style="fill: #d62728; opacity: 0.8; stroke: #000000; stroke-width: 2; stroke-linejoin: miter"/>
   </g>
   <g id="patch_64">
    <path d="M 529.947045 338.58 
L 537.045 338.58 
L 537.045 333.89821 
L 529.947045 333.89821 
z
" clip-path="url(#pa4876dc133)" style="fill: #d62728; opacity: 0.8; stroke: #000000; stroke-width: 2; stroke-linejoin: miter"/>
   </g>
   <g id="patch_65">
    <path d="M 537.045 338.58 
L 544.142955 338.58 
L 544.142955 333.229383 
L 537.045 333.229383 
z
" clip-path="url(#pa4876dc133)" style="fill: #d62728; opacity: 0.8; stroke: #000000; stroke-width: 2; stroke-linejoin: miter"/>
   </g>
   <g id="patch_66">
    <path d="M 544.142955 338.58 
L 551.240909 338.58 
L 551.240909 336.573519 
L 544.142955 336.573519 
z
" clip-path="url(#pa4876dc133)" style="fill: #d62728; opacity: 0.8; stroke: #000000; stroke-width: 2; stroke-linejoin: miter"/>
   </g>
   <g id="patch_67">
    <path d="M 551.240909 338.58 
L 558.338864 338.58 
L 558.338864 333.89821 
L 551.240909 333.89821 
z
" clip-path="url(#pa4876dc133)" style="fill: #d62728; opacity: 0.8; stroke: #000000; stroke-width: 2; stroke-linejoin: miter"/>
   </g>
   <g id="patch_68">
    <path d="M 558.338864 338.58 
L 565.436818 338.58 
L 565.436818 335.235864 
L 558.338864 335.235864 
z
" clip-path="url(#pa4876dc133)" style="fill: #d62728; opacity: 0.8; stroke: #000000; stroke-width: 2; stroke-linejoin: miter"/>
   </g>
   <g id="patch_69">
    <path d="M 565.436818 338.58 
L 572.534773 338.58 
L 572.534773 333.89821 
L 565.436818 333.89821 
z
" clip-path="url(#pa4876dc133)" style="fill: #d62728; opacity: 0.8; stroke: #000000; stroke-width: 2; stroke-linejoin: miter"/>
   </g>
   <g id="patch_70">
    <path d="M 572.534773 338.58 
L 579.632727 338.58 
L 579.632727 335.904691 
L 572.534773 335.904691 
z
" clip-path="url(#pa4876dc133)" style="fill: #d62728; opacity: 0.8; stroke: #000000; stroke-width: 2; stroke-linejoin: miter"/>
   </g>
   <g id="patch_71">
    <path d="M 579.632727 338.58 
L 586.730682 338.58 
L 586.730682 335.235864 
L 579.632727 335.235864 
z
" clip-path="url(#pa4876dc133)" style="fill: #d62728; opacity: 0.8; stroke: #000000; stroke-width: 2; stroke-linejoin: miter"/>
   </g>
   <g id="patch_72">
    <path d="M 586.730682 338.58 
L 593.828636 338.58 
L 593.828636 337.242346 
L 586.730682 337.242346 
z
" clip-path="url(#pa4876dc133)" style="fill: #d62728; opacity: 0.8; stroke: #000000; stroke-width: 2; stroke-linejoin: miter"/>
   </g>
   <g id="patch_73">
    <path d="M 593.828636 338.58 
L 600.926591 338.58 
L 600.926591 338.58 
L 593.828636 338.58 
z
" clip-path="url(#pa4876dc133)" style="fill: #d62728; opacity: 0.8; stroke: #000000; stroke-width: 2; stroke-linejoin: miter"/>
   </g>
   <g id="patch_74">
    <path d="M 600.926591 338.58 
L 608.024545 338.58 
L 608.024545 337.911173 
L 600.926591 337.911173 
z
" clip-path="url(#pa4876dc133)" style="fill: #d62728; opacity: 0.8; stroke: #000000; stroke-width: 2; stroke-linejoin: miter"/>
   </g>
   <g id="patch_75">
    <path d="M 608.024545 338.58 
L 615.1225 338.58 
L 615.1225 337.911173 
L 608.024545 337.911173 
z
" clip-path="url(#pa4876dc133)" style="fill: #d62728; opacity: 0.8; stroke: #000000; stroke-width: 2; stroke-linejoin: miter"/>
   </g>
   <g id="patch_76">
    <path d="M 615.1225 338.58 
L 622.220455 338.58 
L 622.220455 337.911173 
L 615.1225 337.911173 
z
" clip-path="url(#pa4876dc133)" style="fill: #d62728; opacity: 0.8; stroke: #000000; stroke-width: 2; stroke-linejoin: miter"/>
   </g>
   <g id="patch_77">
    <path d="M 622.220455 338.58 
L 629.318409 338.58 
L 629.318409 338.58 
L 622.220455 338.58 
z
" clip-path="url(#pa4876dc133)" style="fill: #d62728; opacity: 0.8; stroke: #000000; stroke-width: 2; stroke-linejoin: miter"/>
   </g>
   <g id="patch_78">
    <path d="M 629.318409 338.58 
L 636.416364 338.58 
L 636.416364 337.242346 
L 629.318409 337.242346 
z
" clip-path="url(#pa4876dc133)" style="fill: #d62728; opacity: 0.8; stroke: #000000; stroke-width: 2; stroke-linejoin: miter"/>
   </g>
   <g id="patch_79">
    <path d="M 636.416364 338.58 
L 643.514318 338.58 
L 643.514318 337.242346 
L 636.416364 337.242346 
z
" clip-path="url(#pa4876dc133)" style="fill: #d62728; opacity: 0.8; stroke: #000000; stroke-width: 2; stroke-linejoin: miter"/>
   </g>
   <g id="patch_80">
    <path d="M 643.514318 338.58 
L 650.612273 338.58 
L 650.612273 338.58 
L 643.514318 338.58 
z
" clip-path="url(#pa4876dc133)" style="fill: #d62728; opacity: 0.8; stroke: #000000; stroke-width: 2; stroke-linejoin: miter"/>
   </g>
   <g id="patch_81">
    <path d="M 650.612273 338.58 
L 657.710227 338.58 
L 657.710227 338.58 
L 650.612273 338.58 
z
" clip-path="url(#pa4876dc133)" style="fill: #d62728; opacity: 0.8; stroke: #000000; stroke-width: 2; stroke-linejoin: miter"/>
   </g>
   <g id="patch_82">
    <path d="M 657.710227 338.58 
L 664.808182 338.58 
L 664.808182 297.112716 
L 657.710227 297.112716 
z
" clip-path="url(#pa4876dc133)" style="fill: #d62728; opacity: 0.8; stroke: #000000; stroke-width: 2; stroke-linejoin: miter"/>
   </g>
   <g id="patch_83">
    <path d="M 96.971818 338.58 
L 104.069773 338.58 
L 104.069773 338.58 
L 96.971818 338.58 
z
" clip-path="url(#pa4876dc133)" style="fill: #1f77b4; opacity: 0.8; stroke: #000000; stroke-width: 2; stroke-linejoin: miter"/>
   </g>
   <g id="patch_84">
    <path d="M 104.069773 338.58 
L 111.167727 338.58 
L 111.167727 290.424444 
L 104.069773 290.424444 
z
" clip-path="url(#pa4876dc133)" style="fill: #1f77b4; opacity: 0.8; stroke: #000000; stroke-width: 2; stroke-linejoin: miter"/>
   </g>
   <g id="patch_85">
    <path d="M 111.167727 338.58 
L 118.265682 338.58 
L 118.265682 338.58 
L 111.167727 338.58 
z
" clip-path="url(#pa4876dc133)" style="fill: #1f77b4; opacity: 0.8; stroke: #000000; stroke-width: 2; stroke-linejoin: miter"/>
   </g>
   <g id="patch_86">
    <path d="M 118.265682 338.58 
L 125.363636 338.58 
L 125.363636 338.58 
L 118.265682 338.58 
z
" clip-path="url(#pa4876dc133)" style="fill: #1f77b4; opacity: 0.8; stroke: #000000; stroke-width: 2; stroke-linejoin: miter"/>
   </g>
   <g id="patch_87">
    <path d="M 125.363636 338.58 
L 132.461591 338.58 
L 132.461591 194.113333 
L 125.363636 194.113333 
z
" clip-path="url(#pa4876dc133)" style="fill: #1f77b4; opacity: 0.8; stroke: #000000; stroke-width: 2; stroke-linejoin: miter"/>
   </g>
   <g id="patch_88">
    <path d="M 132.461591 338.58 
L 139.559545 338.58 
L 139.559545 194.113333 
L 132.461591 194.113333 
z
" clip-path="url(#pa4876dc133)" style="fill: #1f77b4; opacity: 0.8; stroke: #000000; stroke-width: 2; stroke-linejoin: miter"/>
   </g>
   <g id="patch_89">
    <path d="M 139.559545 338.58 
L 146.6575 338.58 
L 146.6575 145.957778 
L 139.559545 145.957778 
z
" clip-path="url(#pa4876dc133)" style="fill: #1f77b4; opacity: 0.8; stroke: #000000; stroke-width: 2; stroke-linejoin: miter"/>
   </g>
   <g id="patch_90">
    <path d="M 146.6575 338.58 
L 153.755455 338.58 
L 153.755455 242.268889 
L 146.6575 242.268889 
z
" clip-path="url(#pa4876dc133)" style="fill: #1f77b4; opacity: 0.8; stroke: #000000; stroke-width: 2; stroke-linejoin: miter"/>
   </g>
   <g id="patch_91">
    <path d="M 153.755455 338.58 
L 160.853409 338.58 
L 160.853409 194.113333 
L 153.755455 194.113333 
z
" clip-path="url(#pa4876dc133)" style="fill: #1f77b4; opacity: 0.8; stroke: #000000; stroke-width: 2; stroke-linejoin: miter"/>
   </g>
   <g id="patch_92">
    <path d="M 160.853409 338.58 
L 167.951364 338.58 
L 167.951364 49.646667 
L 160.853409 49.646667 
z
" clip-path="url(#pa4876dc133)" style="fill: #1f77b4; opacity: 0.8; stroke: #000000; stroke-width: 2; stroke-linejoin: miter"/>
   </g>
   <g id="patch_93">
    <path d="M 167.951364 338.58 
L 175.049318 338.58 
L 175.049318 145.957778 
L 167.951364 145.957778 
z
" clip-path="url(#pa4876dc133)" style="fill: #1f77b4; opacity: 0.8; stroke: #000000; stroke-width: 2; stroke-linejoin: miter"/>
   </g>
   <g id="patch_94">
    <path d="M 175.049318 338.58 
L 182.147273 338.58 
L 182.147273 145.957778 
L 175.049318 145.957778 
z
" clip-path="url(#pa4876dc133)" style="fill: #1f77b4; opacity: 0.8; stroke: #000000; stroke-width: 2; stroke-linejoin: miter"/>
   </g>
   <g id="patch_95">
    <path d="M 182.147273 338.58 
L 189.245227 338.58 
L 189.245227 49.646667 
L 182.147273 49.646667 
z
" clip-path="url(#pa4876dc133)" style="fill: #1f77b4; opacity: 0.8; stroke: #000000; stroke-width: 2; stroke-linejoin: miter"/>
   </g>
   <g id="patch_96">
    <path d="M 189.245227 338.58 
L 196.343182 338.58 
L 196.343182 338.58 
L 189.245227 338.58 
z
" clip-path="url(#pa4876dc133)" style="fill: #1f77b4; opacity: 0.8; stroke: #000000; stroke-width: 2; stroke-linejoin: miter"/>
   </g>
   <g id="patch_97">
    <path d="M 196.343182 338.58 
L 203.441136 338.58 
L 203.441136 338.58 
L 196.343182 338.58 
z
" clip-path="url(#pa4876dc133)" style="fill: #1f77b4; opacity: 0.8; stroke: #000000; stroke-width: 2; stroke-linejoin: miter"/>
   </g>
   <g id="patch_98">
    <path d="M 203.441136 338.58 
L 210.539091 338.58 
L 210.539091 338.58 
L 203.441136 338.58 
z
" clip-path="url(#pa4876dc133)" style="fill: #1f77b4; opacity: 0.8; stroke: #000000; stroke-width: 2; stroke-linejoin: miter"/>
   </g>
   <g id="patch_99">
    <path d="M 210.539091 338.58 
L 217.637045 338.58 
L 217.637045 338.58 
L 210.539091 338.58 
z
" clip-path="url(#pa4876dc133)" style="fill: #1f77b4; opacity: 0.8; stroke: #000000; stroke-width: 2; stroke-linejoin: miter"/>
   </g>
   <g id="patch_100">
    <path d="M 217.637045 338.58 
L 224.735 338.58 
L 224.735 338.58 
L 217.637045 338.58 
z
" clip-path="url(#pa4876dc133)" style="fill: #1f77b4; opacity: 0.8; stroke: #000000; stroke-width: 2; stroke-linejoin: miter"/>
   </g>
   <g id="patch_101">
    <path d="M 224.735 338.58 
L 231.832955 338.58 
L 231.832955 338.58 
L 224.735 338.58 
z
" clip-path="url(#pa4876dc133)" style="fill: #1f77b4; opacity: 0.8; stroke: #000000; stroke-width: 2; stroke-linejoin: miter"/>
   </g>
   <g id="patch_102">
    <path d="M 231.832955 338.58 
L 238.930909 338.58 
L 238.930909 338.58 
L 231.832955 338.58 
z
" clip-path="url(#pa4876dc133)" style="fill: #1f77b4; opacity: 0.8; stroke: #000000; stroke-width: 2; stroke-linejoin: miter"/>
   </g>
   <g id="patch_103">
    <path d="M 238.930909 338.58 
L 246.028864 338.58 
L 246.028864 338.58 
L 238.930909 338.58 
z
" clip-path="url(#pa4876dc133)" style="fill: #1f77b4; opacity: 0.8; stroke: #000000; stroke-width: 2; stroke-linejoin: miter"/>
   </g>
   <g id="patch_104">
    <path d="M 246.028864 338.58 
L 253.126818 338.58 
L 253.126818 338.58 
L 246.028864 338.58 
z
" clip-path="url(#pa4876dc133)" style="fill: #1f77b4; opacity: 0.8; stroke: #000000; stroke-width: 2; stroke-linejoin: miter"/>
   </g>
   <g id="patch_105">
    <path d="M 253.126818 338.58 
L 260.224773 338.58 
L 260.224773 338.58 
L 253.126818 338.58 
z
" clip-path="url(#pa4876dc133)" style="fill: #1f77b4; opacity: 0.8; stroke: #000000; stroke-width: 2; stroke-linejoin: miter"/>
   </g>
   <g id="patch_106">
    <path d="M 260.224773 338.58 
L 267.322727 338.58 
L 267.322727 338.58 
L 260.224773 338.58 
z
" clip-path="url(#pa4876dc133)" style="fill: #1f77b4; opacity: 0.8; stroke: #000000; stroke-width: 2; stroke-linejoin: miter"/>
   </g>
   <g id="patch_107">
    <path d="M 267.322727 338.58 
L 274.420682 338.58 
L 274.420682 338.58 
L 267.322727 338.58 
z
" clip-path="url(#pa4876dc133)" style="fill: #1f77b4; opacity: 0.8; stroke: #000000; stroke-width: 2; stroke-linejoin: miter"/>
   </g>
   <g id="patch_108">
    <path d="M 274.420682 338.58 
L 281.518636 338.58 
L 281.518636 338.58 
L 274.420682 338.58 
z
" clip-path="url(#pa4876dc133)" style="fill: #1f77b4; opacity: 0.8; stroke: #000000; stroke-width: 2; stroke-linejoin: miter"/>
   </g>
   <g id="patch_109">
    <path d="M 281.518636 338.58 
L 288.616591 338.58 
L 288.616591 338.58 
L 281.518636 338.58 
z
" clip-path="url(#pa4876dc133)" style="fill: #1f77b4; opacity: 0.8; stroke: #000000; stroke-width: 2; stroke-linejoin: miter"/>
   </g>
   <g id="patch_110">
    <path d="M 288.616591 338.58 
L 295.714545 338.58 
L 295.714545 338.58 
L 288.616591 338.58 
z
" clip-path="url(#pa4876dc133)" style="fill: #1f77b4; opacity: 0.8; stroke: #000000; stroke-width: 2; stroke-linejoin: miter"/>
   </g>
   <g id="patch_111">
    <path d="M 295.714545 338.58 
L 302.8125 338.58 
L 302.8125 338.58 
L 295.714545 338.58 
z
" clip-path="url(#pa4876dc133)" style="fill: #1f77b4; opacity: 0.8; stroke: #000000; stroke-width: 2; stroke-linejoin: miter"/>
   </g>
   <g id="patch_112">
    <path d="M 302.8125 338.58 
L 309.910455 338.58 
L 309.910455 338.58 
L 302.8125 338.58 
z
" clip-path="url(#pa4876dc133)" style="fill: #1f77b4; opacity: 0.8; stroke: #000000; stroke-width: 2; stroke-linejoin: miter"/>
   </g>
   <g id="patch_113">
    <path d="M 309.910455 338.58 
L 317.008409 338.58 
L 317.008409 338.58 
L 309.910455 338.58 
z
" clip-path="url(#pa4876dc133)" style="fill: #1f77b4; opacity: 0.8; stroke: #000000; stroke-width: 2; stroke-linejoin: miter"/>
   </g>
   <g id="patch_114">
    <path d="M 317.008409 338.58 
L 324.106364 338.58 
L 324.106364 338.58 
L 317.008409 338.58 
z
" clip-path="url(#pa4876dc133)" style="fill: #1f77b4; opacity: 0.8; stroke: #000000; stroke-width: 2; stroke-linejoin: miter"/>
   </g>
   <g id="patch_115">
    <path d="M 324.106364 338.58 
L 331.204318 338.58 
L 331.204318 338.58 
L 324.106364 338.58 
z
" clip-path="url(#pa4876dc133)" style="fill: #1f77b4; opacity: 0.8; stroke: #000000; stroke-width: 2; stroke-linejoin: miter"/>
   </g>
   <g id="patch_116">
    <path d="M 331.204318 338.58 
L 338.302273 338.58 
L 338.302273 338.58 
L 331.204318 338.58 
z
" clip-path="url(#pa4876dc133)" style="fill: #1f77b4; opacity: 0.8; stroke: #000000; stroke-width: 2; stroke-linejoin: miter"/>
   </g>
   <g id="patch_117">
    <path d="M 338.302273 338.58 
L 345.400227 338.58 
L 345.400227 338.58 
L 338.302273 338.58 
z
" clip-path="url(#pa4876dc133)" style="fill: #1f77b4; opacity: 0.8; stroke: #000000; stroke-width: 2; stroke-linejoin: miter"/>
   </g>
   <g id="patch_118">
    <path d="M 345.400227 338.58 
L 352.498182 338.58 
L 352.498182 338.58 
L 345.400227 338.58 
z
" clip-path="url(#pa4876dc133)" style="fill: #1f77b4; opacity: 0.8; stroke: #000000; stroke-width: 2; stroke-linejoin: miter"/>
   </g>
   <g id="patch_119">
    <path d="M 352.498182 338.58 
L 359.596136 338.58 
L 359.596136 338.58 
L 352.498182 338.58 
z
" clip-path="url(#pa4876dc133)" style="fill: #1f77b4; opacity: 0.8; stroke: #000000; stroke-width: 2; stroke-linejoin: miter"/>
   </g>
   <g id="patch_120">
    <path d="M 359.596136 338.58 
L 366.694091 338.58 
L 366.694091 338.58 
L 359.596136 338.58 
z
" clip-path="url(#pa4876dc133)" style="fill: #1f77b4; opacity: 0.8; stroke: #000000; stroke-width: 2; stroke-linejoin: miter"/>
   </g>
   <g id="patch_121">
    <path d="M 366.694091 338.58 
L 373.792045 338.58 
L 373.792045 338.58 
L 366.694091 338.58 
z
" clip-path="url(#pa4876dc133)" style="fill: #1f77b4; opacity: 0.8; stroke: #000000; stroke-width: 2; stroke-linejoin: miter"/>
   </g>
   <g id="patch_122">
    <path d="M 373.792045 338.58 
L 380.89 338.58 
L 380.89 338.58 
L 373.792045 338.58 
z
" clip-path="url(#pa4876dc133)" style="fill: #1f77b4; opacity: 0.8; stroke: #000000; stroke-width: 2; stroke-linejoin: miter"/>
   </g>
   <g id="patch_123">
    <path d="M 380.89 338.58 
L 387.987955 338.58 
L 387.987955 338.58 
L 380.89 338.58 
z
" clip-path="url(#pa4876dc133)" style="fill: #1f77b4; opacity: 0.8; stroke: #000000; stroke-width: 2; stroke-linejoin: miter"/>
   </g>
   <g id="patch_124">
    <path d="M 387.987955 338.58 
L 395.085909 338.58 
L 395.085909 338.58 
L 387.987955 338.58 
z
" clip-path="url(#pa4876dc133)" style="fill: #1f77b4; opacity: 0.8; stroke: #000000; stroke-width: 2; stroke-linejoin: miter"/>
   </g>
   <g id="patch_125">
    <path d="M 395.085909 338.58 
L 402.183864 338.58 
L 402.183864 338.58 
L 395.085909 338.58 
z
" clip-path="url(#pa4876dc133)" style="fill: #1f77b4; opacity: 0.8; stroke: #000000; stroke-width: 2; stroke-linejoin: miter"/>
   </g>
   <g id="patch_126">
    <path d="M 402.183864 338.58 
L 409.281818 338.58 
L 409.281818 338.58 
L 402.183864 338.58 
z
" clip-path="url(#pa4876dc133)" style="fill: #1f77b4; opacity: 0.8; stroke: #000000; stroke-width: 2; stroke-linejoin: miter"/>
   </g>
   <g id="patch_127">
    <path d="M 409.281818 338.58 
L 416.379773 338.58 
L 416.379773 338.58 
L 409.281818 338.58 
z
" clip-path="url(#pa4876dc133)" style="fill: #1f77b4; opacity: 0.8; stroke: #000000; stroke-width: 2; stroke-linejoin: miter"/>
   </g>
   <g id="patch_128">
    <path d="M 416.379773 338.58 
L 423.477727 338.58 
L 423.477727 338.58 
L 416.379773 338.58 
z
" clip-path="url(#pa4876dc133)" style="fill: #1f77b4; opacity: 0.8; stroke: #000000; stroke-width: 2; stroke-linejoin: miter"/>
   </g>
   <g id="patch_129">
    <path d="M 423.477727 338.58 
L 430.575682 338.58 
L 430.575682 338.58 
L 423.477727 338.58 
z
" clip-path="url(#pa4876dc133)" style="fill: #1f77b4; opacity: 0.8; stroke: #000000; stroke-width: 2; stroke-linejoin: miter"/>
   </g>
   <g id="patch_130">
    <path d="M 430.575682 338.58 
L 437.673636 338.58 
L 437.673636 338.58 
L 430.575682 338.58 
z
" clip-path="url(#pa4876dc133)" style="fill: #1f77b4; opacity: 0.8; stroke: #000000; stroke-width: 2; stroke-linejoin: miter"/>
   </g>
   <g id="patch_131">
    <path d="M 437.673636 338.58 
L 444.771591 338.58 
L 444.771591 338.58 
L 437.673636 338.58 
z
" clip-path="url(#pa4876dc133)" style="fill: #1f77b4; opacity: 0.8; stroke: #000000; stroke-width: 2; stroke-linejoin: miter"/>
   </g>
   <g id="patch_132">
    <path d="M 444.771591 338.58 
L 451.869545 338.58 
L 451.869545 338.58 
L 444.771591 338.58 
z
" clip-path="url(#pa4876dc133)" style="fill: #1f77b4; opacity: 0.8; stroke: #000000; stroke-width: 2; stroke-linejoin: miter"/>
   </g>
   <g id="patch_133">
    <path d="M 451.869545 338.58 
L 458.9675 338.58 
L 458.9675 338.58 
L 451.869545 338.58 
z
" clip-path="url(#pa4876dc133)" style="fill: #1f77b4; opacity: 0.8; stroke: #000000; stroke-width: 2; stroke-linejoin: miter"/>
   </g>
   <g id="patch_134">
    <path d="M 458.9675 338.58 
L 466.065455 338.58 
L 466.065455 338.58 
L 458.9675 338.58 
z
" clip-path="url(#pa4876dc133)" style="fill: #1f77b4; opacity: 0.8; stroke: #000000; stroke-width: 2; stroke-linejoin: miter"/>
   </g>
   <g id="patch_135">
    <path d="M 466.065455 338.58 
L 473.163409 338.58 
L 473.163409 338.58 
L 466.065455 338.58 
z
" clip-path="url(#pa4876dc133)" style="fill: #1f77b4; opacity: 0.8; stroke: #000000; stroke-width: 2; stroke-linejoin: miter"/>
   </g>
   <g id="patch_136">
    <path d="M 473.163409 338.58 
L 480.261364 338.58 
L 480.261364 338.58 
L 473.163409 338.58 
z
" clip-path="url(#pa4876dc133)" style="fill: #1f77b4; opacity: 0.8; stroke: #000000; stroke-width: 2; stroke-linejoin: miter"/>
   </g>
   <g id="patch_137">
    <path d="M 480.261364 338.58 
L 487.359318 338.58 
L 487.359318 338.58 
L 480.261364 338.58 
z
" clip-path="url(#pa4876dc133)" style="fill: #1f77b4; opacity: 0.8; stroke: #000000; stroke-width: 2; stroke-linejoin: miter"/>
   </g>
   <g id="patch_138">
    <path d="M 487.359318 338.58 
L 494.457273 338.58 
L 494.457273 338.58 
L 487.359318 338.58 
z
" clip-path="url(#pa4876dc133)" style="fill: #1f77b4; opacity: 0.8; stroke: #000000; stroke-width: 2; stroke-linejoin: miter"/>
   </g>
   <g id="patch_139">
    <path d="M 494.457273 338.58 
L 501.555227 338.58 
L 501.555227 338.58 
L 494.457273 338.58 
z
" clip-path="url(#pa4876dc133)" style="fill: #1f77b4; opacity: 0.8; stroke: #000000; stroke-width: 2; stroke-linejoin: miter"/>
   </g>
   <g id="patch_140">
    <path d="M 501.555227 338.58 
L 508.653182 338.58 
L 508.653182 338.58 
L 501.555227 338.58 
z
" clip-path="url(#pa4876dc133)" style="fill: #1f77b4; opacity: 0.8; stroke: #000000; stroke-width: 2; stroke-linejoin: miter"/>
   </g>
   <g id="patch_141">
    <path d="M 508.653182 338.58 
L 515.751136 338.58 
L 515.751136 338.58 
L 508.653182 338.58 
z
" clip-path="url(#pa4876dc133)" style="fill: #1f77b4; opacity: 0.8; stroke: #000000; stroke-width: 2; stroke-linejoin: miter"/>
   </g>
   <g id="patch_142">
    <path d="M 515.751136 338.58 
L 522.849091 338.58 
L 522.849091 338.58 
L 515.751136 338.58 
z
" clip-path="url(#pa4876dc133)" style="fill: #1f77b4; opacity: 0.8; stroke: #000000; stroke-width: 2; stroke-linejoin: miter"/>
   </g>
   <g id="patch_143">
    <path d="M 522.849091 338.58 
L 529.947045 338.58 
L 529.947045 338.58 
L 522.849091 338.58 
z
" clip-path="url(#pa4876dc133)" style="fill: #1f77b4; opacity: 0.8; stroke: #000000; stroke-width: 2; stroke-linejoin: miter"/>
   </g>
   <g id="patch_144">
    <path d="M 529.947045 338.58 
L 537.045 338.58 
L 537.045 338.58 
L 529.947045 338.58 
z
" clip-path="url(#pa4876dc133)" style="fill: #1f77b4; opacity: 0.8; stroke: #000000; stroke-width: 2; stroke-linejoin: miter"/>
   </g>
   <g id="patch_145">
    <path d="M 537.045 338.58 
L 544.142955 338.58 
L 544.142955 338.58 
L 537.045 338.58 
z
" clip-path="url(#pa4876dc133)" style="fill: #1f77b4; opacity: 0.8; stroke: #000000; stroke-width: 2; stroke-linejoin: miter"/>
   </g>
   <g id="patch_146">
    <path d="M 544.142955 338.58 
L 551.240909 338.58 
L 551.240909 338.58 
L 544.142955 338.58 
z
" clip-path="url(#pa4876dc133)" style="fill: #1f77b4; opacity: 0.8; stroke: #000000; stroke-width: 2; stroke-linejoin: miter"/>
   </g>
   <g id="patch_147">
    <path d="M 551.240909 338.58 
L 558.338864 338.58 
L 558.338864 338.58 
L 551.240909 338.58 
z
" clip-path="url(#pa4876dc133)" style="fill: #1f77b4; opacity: 0.8; stroke: #000000; stroke-width: 2; stroke-linejoin: miter"/>
   </g>
   <g id="patch_148">
    <path d="M 558.338864 338.58 
L 565.436818 338.58 
L 565.436818 338.58 
L 558.338864 338.58 
z
" clip-path="url(#pa4876dc133)" style="fill: #1f77b4; opacity: 0.8; stroke: #000000; stroke-width: 2; stroke-linejoin: miter"/>
   </g>
   <g id="patch_149">
    <path d="M 565.436818 338.58 
L 572.534773 338.58 
L 572.534773 338.58 
L 565.436818 338.58 
z
" clip-path="url(#pa4876dc133)" style="fill: #1f77b4; opacity: 0.8; stroke: #000000; stroke-width: 2; stroke-linejoin: miter"/>
   </g>
   <g id="patch_150">
    <path d="M 572.534773 338.58 
L 579.632727 338.58 
L 579.632727 338.58 
L 572.534773 338.58 
z
" clip-path="url(#pa4876dc133)" style="fill: #1f77b4; opacity: 0.8; stroke: #000000; stroke-width: 2; stroke-linejoin: miter"/>
   </g>
   <g id="patch_151">
    <path d="M 579.632727 338.58 
L 586.730682 338.58 
L 586.730682 338.58 
L 579.632727 338.58 
z
" clip-path="url(#pa4876dc133)" style="fill: #1f77b4; opacity: 0.8; stroke: #000000; stroke-width: 2; stroke-linejoin: miter"/>
   </g>
   <g id="patch_152">
    <path d="M 586.730682 338.58 
L 593.828636 338.58 
L 593.828636 338.58 
L 586.730682 338.58 
z
" clip-path="url(#pa4876dc133)" style="fill: #1f77b4; opacity: 0.8; stroke: #000000; stroke-width: 2; stroke-linejoin: miter"/>
   </g>
   <g id="patch_153">
    <path d="M 593.828636 338.58 
L 600.926591 338.58 
L 600.926591 338.58 
L 593.828636 338.58 
z
" clip-path="url(#pa4876dc133)" style="fill: #1f77b4; opacity: 0.8; stroke: #000000; stroke-width: 2; stroke-linejoin: miter"/>
   </g>
   <g id="patch_154">
    <path d="M 600.926591 338.58 
L 608.024545 338.58 
L 608.024545 338.58 
L 600.926591 338.58 
z
" clip-path="url(#pa4876dc133)" style="fill: #1f77b4; opacity: 0.8; stroke: #000000; stroke-width: 2; stroke-linejoin: miter"/>
   </g>
   <g id="patch_155">
    <path d="M 608.024545 338.58 
L 615.1225 338.58 
L 615.1225 338.58 
L 608.024545 338.58 
z
" clip-path="url(#pa4876dc133)" style="fill: #1f77b4; opacity: 0.8; stroke: #000000; stroke-width: 2; stroke-linejoin: miter"/>
   </g>
   <g id="patch_156">
    <path d="M 615.1225 338.58 
L 622.220455 338.58 
L 622.220455 338.58 
L 615.1225 338.58 
z
" clip-path="url(#pa4876dc133)" style="fill: #1f77b4; opacity: 0.8; stroke: #000000; stroke-width: 2; stroke-linejoin: miter"/>
   </g>
   <g id="patch_157">
    <path d="M 622.220455 338.58 
L 629.318409 338.58 
L 629.318409 338.58 
L 622.220455 338.58 
z
" clip-path="url(#pa4876dc133)" style="fill: #1f77b4; opacity: 0.8; stroke: #000000; stroke-width: 2; stroke-linejoin: miter"/>
   </g>
   <g id="patch_158">
    <path d="M 629.318409 338.58 
L 636.416364 338.58 
L 636.416364 338.58 
L 629.318409 338.58 
z
" clip-path="url(#pa4876dc133)" style="fill: #1f77b4; opacity: 0.8; stroke: #000000; stroke-width: 2; stroke-linejoin: miter"/>
   </g>
   <g id="patch_159">
    <path d="M 636.416364 338.58 
L 643.514318 338.58 
L 643.514318 338.58 
L 636.416364 338.58 
z
" clip-path="url(#pa4876dc133)" style="fill: #1f77b4; opacity: 0.8; stroke: #000000; stroke-width: 2; stroke-linejoin: miter"/>
   </g>
   <g id="patch_160">
    <path d="M 643.514318 338.58 
L 650.612273 338.58 
L 650.612273 338.58 
L 643.514318 338.58 
z
" clip-path="url(#pa4876dc133)" style="fill: #1f77b4; opacity: 0.8; stroke: #000000; stroke-width: 2; stroke-linejoin: miter"/>
   </g>
   <g id="patch_161">
    <path d="M 650.612273 338.58 
L 657.710227 338.58 
L 657.710227 338.58 
L 650.612273 338.58 
z
" clip-path="url(#pa4876dc133)" style="fill: #1f77b4; opacity: 0.8; stroke: #000000; stroke-width: 2; stroke-linejoin: miter"/>
   </g>
   <g id="patch_162">
    <path d="M 657.710227 338.58 
L 664.808182 338.58 
L 664.808182 338.58 
L 657.710227 338.58 
z
" clip-path="url(#pa4876dc133)" style="fill: #1f77b4; opacity: 0.8; stroke: #000000; stroke-width: 2; stroke-linejoin: miter"/>
   </g>
   <g id="matplotlib.axis_1">
    <g id="xtick_1">
     <g id="line2d_1">
      <defs>
       <path id="m01e1cf9afc" d="M 0 0 
L 0 6 
" style="stroke: #000000; stroke-width: 2.5"/>
      </defs>
      <g>
       <use xlink:href="#m01e1cf9afc" x="93.574363" y="338.58" style="stroke: #000000; stroke-width: 2.5"/>
      </g>
     </g>
     <g id="text_1">
      <!-- −6 -->
      <g transform="translate(81.780613 360.2375) scale(0.16 -0.16)">
       <defs>
        <path id="DejaVuSans-2212" d="M 678 2272 
L 4684 2272 
L 4684 1741 
L 678 1741 
L 678 2272 
z
" transform="scale(0.015625)"/>
        <path id="DejaVuSans-36" d="M 2113 2584 
Q 1688 2584 1439 2293 
Q 1191 2003 1191 1497 
Q 1191 994 1439 701 
Q 1688 409 2113 409 
Q 2538 409 2786 701 
Q 3034 994 3034 1497 
Q 3034 2003 2786 2293 
Q 2538 2584 2113 2584 
z
M 3366 4563 
L 3366 3988 
Q 3128 4100 2886 4159 
Q 2644 4219 2406 4219 
Q 1781 4219 1451 3797 
Q 1122 3375 1075 2522 
Q 1259 2794 1537 2939 
Q 1816 3084 2150 3084 
Q 2853 3084 3261 2657 
Q 3669 2231 3669 1497 
Q 3669 778 3244 343 
Q 2819 -91 2113 -91 
Q 1303 -91 875 529 
Q 447 1150 447 2328 
Q 447 3434 972 4092 
Q 1497 4750 2381 4750 
Q 2619 4750 2861 4703 
Q 3103 4656 3366 4563 
z
" transform="scale(0.015625)"/>
       </defs>
       <use xlink:href="#DejaVuSans-2212"/>
       <use xlink:href="#DejaVuSans-36" transform="translate(83.789062 0)"/>
      </g>
     </g>
    </g>
    <g id="xtick_2">
     <g id="line2d_2">
      <g>
       <use xlink:href="#m01e1cf9afc" x="207.821127" y="338.58" style="stroke: #000000; stroke-width: 2.5"/>
      </g>
     </g>
     <g id="text_2">
      <!-- −5 -->
      <g transform="translate(196.027377 360.2375) scale(0.16 -0.16)">
       <defs>
        <path id="DejaVuSans-35" d="M 691 4666 
L 3169 4666 
L 3169 4134 
L 1269 4134 
L 1269 2991 
Q 1406 3038 1543 3061 
Q 1681 3084 1819 3084 
Q 2600 3084 3056 2656 
Q 3513 2228 3513 1497 
Q 3513 744 3044 326 
Q 2575 -91 1722 -91 
Q 1428 -91 1123 -41 
Q 819 9 494 109 
L 494 744 
Q 775 591 1075 516 
Q 1375 441 1709 441 
Q 2250 441 2565 725 
Q 2881 1009 2881 1497 
Q 2881 1984 2565 2268 
Q 2250 2553 1709 2553 
Q 1456 2553 1204 2497 
Q 953 2441 691 2322 
L 691 4666 
z
" transform="scale(0.015625)"/>
       </defs>
       <use xlink:href="#DejaVuSans-2212"/>
       <use xlink:href="#DejaVuSans-35" transform="translate(83.789062 0)"/>
      </g>
     </g>
    </g>
    <g id="xtick_3">
     <g id="line2d_3">
      <g>
       <use xlink:href="#m01e1cf9afc" x="322.067891" y="338.58" style="stroke: #000000; stroke-width: 2.5"/>
      </g>
     </g>
     <g id="text_3">
      <!-- −4 -->
      <g transform="translate(310.274141 360.2375) scale(0.16 -0.16)">
       <defs>
        <path id="DejaVuSans-34" d="M 2419 4116 
L 825 1625 
L 2419 1625 
L 2419 4116 
z
M 2253 4666 
L 3047 4666 
L 3047 1625 
L 3713 1625 
L 3713 1100 
L 3047 1100 
L 3047 0 
L 2419 0 
L 2419 1100 
L 313 1100 
L 313 1709 
L 2253 4666 
z
" transform="scale(0.015625)"/>
       </defs>
       <use xlink:href="#DejaVuSans-2212"/>
       <use xlink:href="#DejaVuSans-34" transform="translate(83.789062 0)"/>
      </g>
     </g>
    </g>
    <g id="xtick_4">
     <g id="line2d_4">
      <g>
       <use xlink:href="#m01e1cf9afc" x="436.314654" y="338.58" style="stroke: #000000; stroke-width: 2.5"/>
      </g>
     </g>
     <g id="text_4">
      <!-- −3 -->
      <g transform="translate(424.520904 360.2375) scale(0.16 -0.16)">
       <defs>
        <path id="DejaVuSans-33" d="M 2597 2516 
Q 3050 2419 3304 2112 
Q 3559 1806 3559 1356 
Q 3559 666 3084 287 
Q 2609 -91 1734 -91 
Q 1441 -91 1130 -33 
Q 819 25 488 141 
L 488 750 
Q 750 597 1062 519 
Q 1375 441 1716 441 
Q 2309 441 2620 675 
Q 2931 909 2931 1356 
Q 2931 1769 2642 2001 
Q 2353 2234 1838 2234 
L 1294 2234 
L 1294 2753 
L 1863 2753 
Q 2328 2753 2575 2939 
Q 2822 3125 2822 3475 
Q 2822 3834 2567 4026 
Q 2313 4219 1838 4219 
Q 1578 4219 1281 4162 
Q 984 4106 628 3988 
L 628 4550 
Q 988 4650 1302 4700 
Q 1616 4750 1894 4750 
Q 2613 4750 3031 4423 
Q 3450 4097 3450 3541 
Q 3450 3153 3228 2886 
Q 3006 2619 2597 2516 
z
" transform="scale(0.015625)"/>
       </defs>
       <use xlink:href="#DejaVuSans-2212"/>
       <use xlink:href="#DejaVuSans-33" transform="translate(83.789062 0)"/>
      </g>
     </g>
    </g>
    <g id="xtick_5">
     <g id="line2d_5">
      <g>
       <use xlink:href="#m01e1cf9afc" x="550.561418" y="338.58" style="stroke: #000000; stroke-width: 2.5"/>
      </g>
     </g>
     <g id="text_5">
      <!-- −2 -->
      <g transform="translate(538.767668 360.2375) scale(0.16 -0.16)">
       <defs>
        <path id="DejaVuSans-32" d="M 1228 531 
L 3431 531 
L 3431 0 
L 469 0 
L 469 531 
Q 828 903 1448 1529 
Q 2069 2156 2228 2338 
Q 2531 2678 2651 2914 
Q 2772 3150 2772 3378 
Q 2772 3750 2511 3984 
Q 2250 4219 1831 4219 
Q 1534 4219 1204 4116 
Q 875 4013 500 3803 
L 500 4441 
Q 881 4594 1212 4672 
Q 1544 4750 1819 4750 
Q 2544 4750 2975 4387 
Q 3406 4025 3406 3419 
Q 3406 3131 3298 2873 
Q 3191 2616 2906 2266 
Q 2828 2175 2409 1742 
Q 1991 1309 1228 531 
z
" transform="scale(0.015625)"/>
       </defs>
       <use xlink:href="#DejaVuSans-2212"/>
       <use xlink:href="#DejaVuSans-32" transform="translate(83.789062 0)"/>
      </g>
     </g>
    </g>
    <g id="xtick_6">
     <g id="line2d_6">
      <g>
       <use xlink:href="#m01e1cf9afc" x="664.808182" y="338.58" style="stroke: #000000; stroke-width: 2.5"/>
      </g>
     </g>
     <g id="text_6">
      <!-- −1 -->
      <g transform="translate(653.014432 360.2375) scale(0.16 -0.16)">
       <defs>
        <path id="DejaVuSans-31" d="M 794 531 
L 1825 531 
L 1825 4091 
L 703 3866 
L 703 4441 
L 1819 4666 
L 2450 4666 
L 2450 531 
L 3481 531 
L 3481 0 
L 794 0 
L 794 531 
z
" transform="scale(0.015625)"/>
       </defs>
       <use xlink:href="#DejaVuSans-2212"/>
       <use xlink:href="#DejaVuSans-31" transform="translate(83.789062 0)"/>
      </g>
     </g>
    </g>
    <g id="xtick_7">
     <g id="line2d_7">
      <defs>
       <path id="mcb8503c4fc" d="M 0 0 
L 0 4 
" style="stroke: #000000; stroke-width: 1.2"/>
      </defs>
      <g>
       <use xlink:href="#mcb8503c4fc" x="70.725011" y="338.58" style="stroke: #000000; stroke-width: 1.2"/>
      </g>
     </g>
    </g>
    <g id="xtick_8">
     <g id="line2d_8">
      <g>
       <use xlink:href="#mcb8503c4fc" x="116.423716" y="338.58" style="stroke: #000000; stroke-width: 1.2"/>
      </g>
     </g>
    </g>
    <g id="xtick_9">
     <g id="line2d_9">
      <g>
       <use xlink:href="#mcb8503c4fc" x="139.273069" y="338.58" style="stroke: #000000; stroke-width: 1.2"/>
      </g>
     </g>
    </g>
    <g id="xtick_10">
     <g id="line2d_10">
      <g>
       <use xlink:href="#mcb8503c4fc" x="162.122422" y="338.58" style="stroke: #000000; stroke-width: 1.2"/>
      </g>
     </g>
    </g>
    <g id="xtick_11">
     <g id="line2d_11">
      <g>
       <use xlink:href="#mcb8503c4fc" x="184.971774" y="338.58" style="stroke: #000000; stroke-width: 1.2"/>
      </g>
     </g>
    </g>
    <g id="xtick_12">
     <g id="line2d_12">
      <g>
       <use xlink:href="#mcb8503c4fc" x="230.67048" y="338.58" style="stroke: #000000; stroke-width: 1.2"/>
      </g>
     </g>
    </g>
    <g id="xtick_13">
     <g id="line2d_13">
      <g>
       <use xlink:href="#mcb8503c4fc" x="253.519833" y="338.58" style="stroke: #000000; stroke-width: 1.2"/>
      </g>
     </g>
    </g>
    <g id="xtick_14">
     <g id="line2d_14">
      <g>
       <use xlink:href="#mcb8503c4fc" x="276.369185" y="338.58" style="stroke: #000000; stroke-width: 1.2"/>
      </g>
     </g>
    </g>
    <g id="xtick_15">
     <g id="line2d_15">
      <g>
       <use xlink:href="#mcb8503c4fc" x="299.218538" y="338.58" style="stroke: #000000; stroke-width: 1.2"/>
      </g>
     </g>
    </g>
    <g id="xtick_16">
     <g id="line2d_16">
      <g>
       <use xlink:href="#mcb8503c4fc" x="344.917244" y="338.58" style="stroke: #000000; stroke-width: 1.2"/>
      </g>
     </g>
    </g>
    <g id="xtick_17">
     <g id="line2d_17">
      <g>
       <use xlink:href="#mcb8503c4fc" x="367.766596" y="338.58" style="stroke: #000000; stroke-width: 1.2"/>
      </g>
     </g>
    </g>
    <g id="xtick_18">
     <g id="line2d_18">
      <g>
       <use xlink:href="#mcb8503c4fc" x="390.615949" y="338.58" style="stroke: #000000; stroke-width: 1.2"/>
      </g>
     </g>
    </g>
    <g id="xtick_19">
     <g id="line2d_19">
      <g>
       <use xlink:href="#mcb8503c4fc" x="413.465302" y="338.58" style="stroke: #000000; stroke-width: 1.2"/>
      </g>
     </g>
    </g>
    <g id="xtick_20">
     <g id="line2d_20">
      <g>
       <use xlink:href="#mcb8503c4fc" x="459.164007" y="338.58" style="stroke: #000000; stroke-width: 1.2"/>
      </g>
     </g>
    </g>
    <g id="xtick_21">
     <g id="line2d_21">
      <g>
       <use xlink:href="#mcb8503c4fc" x="482.01336" y="338.58" style="stroke: #000000; stroke-width: 1.2"/>
      </g>
     </g>
    </g>
    <g id="xtick_22">
     <g id="line2d_22">
      <g>
       <use xlink:href="#mcb8503c4fc" x="504.862713" y="338.58" style="stroke: #000000; stroke-width: 1.2"/>
      </g>
     </g>
    </g>
    <g id="xtick_23">
     <g id="line2d_23">
      <g>
       <use xlink:href="#mcb8503c4fc" x="527.712065" y="338.58" style="stroke: #000000; stroke-width: 1.2"/>
      </g>
     </g>
    </g>
    <g id="xtick_24">
     <g id="line2d_24">
      <g>
       <use xlink:href="#mcb8503c4fc" x="573.410771" y="338.58" style="stroke: #000000; stroke-width: 1.2"/>
      </g>
     </g>
    </g>
    <g id="xtick_25">
     <g id="line2d_25">
      <g>
       <use xlink:href="#mcb8503c4fc" x="596.260124" y="338.58" style="stroke: #000000; stroke-width: 1.2"/>
      </g>
     </g>
    </g>
    <g id="xtick_26">
     <g id="line2d_26">
      <g>
       <use xlink:href="#mcb8503c4fc" x="619.109476" y="338.58" style="stroke: #000000; stroke-width: 1.2"/>
      </g>
     </g>
    </g>
    <g id="xtick_27">
     <g id="line2d_27">
      <g>
       <use xlink:href="#mcb8503c4fc" x="641.958829" y="338.58" style="stroke: #000000; stroke-width: 1.2"/>
      </g>
     </g>
    </g>
    <g id="xtick_28">
     <g id="line2d_28">
      <g>
       <use xlink:href="#mcb8503c4fc" x="687.657535" y="338.58" style="stroke: #000000; stroke-width: 1.2"/>
      </g>
     </g>
    </g>
    <g id="text_7">
     <!-- Gibbs free energy (kcal/mol) -->
     <g transform="translate(245.485312 382.002031) scale(0.19 -0.19)">
      <defs>
       <path id="DejaVuSans-47" d="M 3809 666 
L 3809 1919 
L 2778 1919 
L 2778 2438 
L 4434 2438 
L 4434 434 
Q 4069 175 3628 42 
Q 3188 -91 2688 -91 
Q 1594 -91 976 548 
Q 359 1188 359 2328 
Q 359 3472 976 4111 
Q 1594 4750 2688 4750 
Q 3144 4750 3555 4637 
Q 3966 4525 4313 4306 
L 4313 3634 
Q 3963 3931 3569 4081 
Q 3175 4231 2741 4231 
Q 1884 4231 1454 3753 
Q 1025 3275 1025 2328 
Q 1025 1384 1454 906 
Q 1884 428 2741 428 
Q 3075 428 3337 486 
Q 3600 544 3809 666 
z
" transform="scale(0.015625)"/>
       <path id="DejaVuSans-69" d="M 603 3500 
L 1178 3500 
L 1178 0 
L 603 0 
L 603 3500 
z
M 603 4863 
L 1178 4863 
L 1178 4134 
L 603 4134 
L 603 4863 
z
" transform="scale(0.015625)"/>
       <path id="DejaVuSans-62" d="M 3116 1747 
Q 3116 2381 2855 2742 
Q 2594 3103 2138 3103 
Q 1681 3103 1420 2742 
Q 1159 2381 1159 1747 
Q 1159 1113 1420 752 
Q 1681 391 2138 391 
Q 2594 391 2855 752 
Q 3116 1113 3116 1747 
z
M 1159 2969 
Q 1341 3281 1617 3432 
Q 1894 3584 2278 3584 
Q 2916 3584 3314 3078 
Q 3713 2572 3713 1747 
Q 3713 922 3314 415 
Q 2916 -91 2278 -91 
Q 1894 -91 1617 61 
Q 1341 213 1159 525 
L 1159 0 
L 581 0 
L 581 4863 
L 1159 4863 
L 1159 2969 
z
" transform="scale(0.015625)"/>
       <path id="DejaVuSans-73" d="M 2834 3397 
L 2834 2853 
Q 2591 2978 2328 3040 
Q 2066 3103 1784 3103 
Q 1356 3103 1142 2972 
Q 928 2841 928 2578 
Q 928 2378 1081 2264 
Q 1234 2150 1697 2047 
L 1894 2003 
Q 2506 1872 2764 1633 
Q 3022 1394 3022 966 
Q 3022 478 2636 193 
Q 2250 -91 1575 -91 
Q 1294 -91 989 -36 
Q 684 19 347 128 
L 347 722 
Q 666 556 975 473 
Q 1284 391 1588 391 
Q 1994 391 2212 530 
Q 2431 669 2431 922 
Q 2431 1156 2273 1281 
Q 2116 1406 1581 1522 
L 1381 1569 
Q 847 1681 609 1914 
Q 372 2147 372 2553 
Q 372 3047 722 3315 
Q 1072 3584 1716 3584 
Q 2034 3584 2315 3537 
Q 2597 3491 2834 3397 
z
" transform="scale(0.015625)"/>
       <path id="DejaVuSans-20" transform="scale(0.015625)"/>
       <path id="DejaVuSans-66" d="M 2375 4863 
L 2375 4384 
L 1825 4384 
Q 1516 4384 1395 4259 
Q 1275 4134 1275 3809 
L 1275 3500 
L 2222 3500 
L 2222 3053 
L 1275 3053 
L 1275 0 
L 697 0 
L 697 3053 
L 147 3053 
L 147 3500 
L 697 3500 
L 697 3744 
Q 697 4328 969 4595 
Q 1241 4863 1831 4863 
L 2375 4863 
z
" transform="scale(0.015625)"/>
       <path id="DejaVuSans-72" d="M 2631 2963 
Q 2534 3019 2420 3045 
Q 2306 3072 2169 3072 
Q 1681 3072 1420 2755 
Q 1159 2438 1159 1844 
L 1159 0 
L 581 0 
L 581 3500 
L 1159 3500 
L 1159 2956 
Q 1341 3275 1631 3429 
Q 1922 3584 2338 3584 
Q 2397 3584 2469 3576 
Q 2541 3569 2628 3553 
L 2631 2963 
z
" transform="scale(0.015625)"/>
       <path id="DejaVuSans-65" d="M 3597 1894 
L 3597 1613 
L 953 1613 
Q 991 1019 1311 708 
Q 1631 397 2203 397 
Q 2534 397 2845 478 
Q 3156 559 3463 722 
L 3463 178 
Q 3153 47 2828 -22 
Q 2503 -91 2169 -91 
Q 1331 -91 842 396 
Q 353 884 353 1716 
Q 353 2575 817 3079 
Q 1281 3584 2069 3584 
Q 2775 3584 3186 3129 
Q 3597 2675 3597 1894 
z
M 3022 2063 
Q 3016 2534 2758 2815 
Q 2500 3097 2075 3097 
Q 1594 3097 1305 2825 
Q 1016 2553 972 2059 
L 3022 2063 
z
" transform="scale(0.015625)"/>
       <path id="DejaVuSans-6e" d="M 3513 2113 
L 3513 0 
L 2938 0 
L 2938 2094 
Q 2938 2591 2744 2837 
Q 2550 3084 2163 3084 
Q 1697 3084 1428 2787 
Q 1159 2491 1159 1978 
L 1159 0 
L 581 0 
L 581 3500 
L 1159 3500 
L 1159 2956 
Q 1366 3272 1645 3428 
Q 1925 3584 2291 3584 
Q 2894 3584 3203 3211 
Q 3513 2838 3513 2113 
z
" transform="scale(0.015625)"/>
       <path id="DejaVuSans-67" d="M 2906 1791 
Q 2906 2416 2648 2759 
Q 2391 3103 1925 3103 
Q 1463 3103 1205 2759 
Q 947 2416 947 1791 
Q 947 1169 1205 825 
Q 1463 481 1925 481 
Q 2391 481 2648 825 
Q 2906 1169 2906 1791 
z
M 3481 434 
Q 3481 -459 3084 -895 
Q 2688 -1331 1869 -1331 
Q 1566 -1331 1297 -1286 
Q 1028 -1241 775 -1147 
L 775 -588 
Q 1028 -725 1275 -790 
Q 1522 -856 1778 -856 
Q 2344 -856 2625 -561 
Q 2906 -266 2906 331 
L 2906 616 
Q 2728 306 2450 153 
Q 2172 0 1784 0 
Q 1141 0 747 490 
Q 353 981 353 1791 
Q 353 2603 747 3093 
Q 1141 3584 1784 3584 
Q 2172 3584 2450 3431 
Q 2728 3278 2906 2969 
L 2906 3500 
L 3481 3500 
L 3481 434 
z
" transform="scale(0.015625)"/>
       <path id="DejaVuSans-79" d="M 2059 -325 
Q 1816 -950 1584 -1140 
Q 1353 -1331 966 -1331 
L 506 -1331 
L 506 -850 
L 844 -850 
Q 1081 -850 1212 -737 
Q 1344 -625 1503 -206 
L 1606 56 
L 191 3500 
L 800 3500 
L 1894 763 
L 2988 3500 
L 3597 3500 
L 2059 -325 
z
" transform="scale(0.015625)"/>
       <path id="DejaVuSans-28" d="M 1984 4856 
Q 1566 4138 1362 3434 
Q 1159 2731 1159 2009 
Q 1159 1288 1364 580 
Q 1569 -128 1984 -844 
L 1484 -844 
Q 1016 -109 783 600 
Q 550 1309 550 2009 
Q 550 2706 781 3412 
Q 1013 4119 1484 4856 
L 1984 4856 
z
" transform="scale(0.015625)"/>
       <path id="DejaVuSans-6b" d="M 581 4863 
L 1159 4863 
L 1159 1991 
L 2875 3500 
L 3609 3500 
L 1753 1863 
L 3688 0 
L 2938 0 
L 1159 1709 
L 1159 0 
L 581 0 
L 581 4863 
z
" transform="scale(0.015625)"/>
       <path id="DejaVuSans-63" d="M 3122 3366 
L 3122 2828 
Q 2878 2963 2633 3030 
Q 2388 3097 2138 3097 
Q 1578 3097 1268 2742 
Q 959 2388 959 1747 
Q 959 1106 1268 751 
Q 1578 397 2138 397 
Q 2388 397 2633 464 
Q 2878 531 3122 666 
L 3122 134 
Q 2881 22 2623 -34 
Q 2366 -91 2075 -91 
Q 1284 -91 818 406 
Q 353 903 353 1747 
Q 353 2603 823 3093 
Q 1294 3584 2113 3584 
Q 2378 3584 2631 3529 
Q 2884 3475 3122 3366 
z
" transform="scale(0.015625)"/>
       <path id="DejaVuSans-61" d="M 2194 1759 
Q 1497 1759 1228 1600 
Q 959 1441 959 1056 
Q 959 750 1161 570 
Q 1363 391 1709 391 
Q 2188 391 2477 730 
Q 2766 1069 2766 1631 
L 2766 1759 
L 2194 1759 
z
M 3341 1997 
L 3341 0 
L 2766 0 
L 2766 531 
Q 2569 213 2275 61 
Q 1981 -91 1556 -91 
Q 1019 -91 701 211 
Q 384 513 384 1019 
Q 384 1609 779 1909 
Q 1175 2209 1959 2209 
L 2766 2209 
L 2766 2266 
Q 2766 2663 2505 2880 
Q 2244 3097 1772 3097 
Q 1472 3097 1187 3025 
Q 903 2953 641 2809 
L 641 3341 
Q 956 3463 1253 3523 
Q 1550 3584 1831 3584 
Q 2591 3584 2966 3190 
Q 3341 2797 3341 1997 
z
" transform="scale(0.015625)"/>
       <path id="DejaVuSans-6c" d="M 603 4863 
L 1178 4863 
L 1178 0 
L 603 0 
L 603 4863 
z
" transform="scale(0.015625)"/>
       <path id="DejaVuSans-2f" d="M 1625 4666 
L 2156 4666 
L 531 -594 
L 0 -594 
L 1625 4666 
z
" transform="scale(0.015625)"/>
       <path id="DejaVuSans-6d" d="M 3328 2828 
Q 3544 3216 3844 3400 
Q 4144 3584 4550 3584 
Q 5097 3584 5394 3201 
Q 5691 2819 5691 2113 
L 5691 0 
L 5113 0 
L 5113 2094 
Q 5113 2597 4934 2840 
Q 4756 3084 4391 3084 
Q 3944 3084 3684 2787 
Q 3425 2491 3425 1978 
L 3425 0 
L 2847 0 
L 2847 2094 
Q 2847 2600 2669 2842 
Q 2491 3084 2119 3084 
Q 1678 3084 1418 2786 
Q 1159 2488 1159 1978 
L 1159 0 
L 581 0 
L 581 3500 
L 1159 3500 
L 1159 2956 
Q 1356 3278 1631 3431 
Q 1906 3584 2284 3584 
Q 2666 3584 2933 3390 
Q 3200 3197 3328 2828 
z
" transform="scale(0.015625)"/>
       <path id="DejaVuSans-6f" d="M 1959 3097 
Q 1497 3097 1228 2736 
Q 959 2375 959 1747 
Q 959 1119 1226 758 
Q 1494 397 1959 397 
Q 2419 397 2687 759 
Q 2956 1122 2956 1747 
Q 2956 2369 2687 2733 
Q 2419 3097 1959 3097 
z
M 1959 3584 
Q 2709 3584 3137 3096 
Q 3566 2609 3566 1747 
Q 3566 888 3137 398 
Q 2709 -91 1959 -91 
Q 1206 -91 779 398 
Q 353 888 353 1747 
Q 353 2609 779 3096 
Q 1206 3584 1959 3584 
z
" transform="scale(0.015625)"/>
       <path id="DejaVuSans-29" d="M 513 4856 
L 1013 4856 
Q 1481 4119 1714 3412 
Q 1947 2706 1947 2009 
Q 1947 1309 1714 600 
Q 1481 -109 1013 -844 
L 513 -844 
Q 928 -128 1133 580 
Q 1338 1288 1338 2009 
Q 1338 2731 1133 3434 
Q 928 4138 513 4856 
z
" transform="scale(0.015625)"/>
      </defs>
      <use xlink:href="#DejaVuSans-47"/>
      <use xlink:href="#DejaVuSans-69" transform="translate(77.490234 0)"/>
      <use xlink:href="#DejaVuSans-62" transform="translate(105.273438 0)"/>
      <use xlink:href="#DejaVuSans-62" transform="translate(168.75 0)"/>
      <use xlink:href="#DejaVuSans-73" transform="translate(232.226562 0)"/>
      <use xlink:href="#DejaVuSans-20" transform="translate(284.326172 0)"/>
      <use xlink:href="#DejaVuSans-66" transform="translate(316.113281 0)"/>
      <use xlink:href="#DejaVuSans-72" transform="translate(351.318359 0)"/>
      <use xlink:href="#DejaVuSans-65" transform="translate(390.181641 0)"/>
      <use xlink:href="#DejaVuSans-65" transform="translate(451.705078 0)"/>
      <use xlink:href="#DejaVuSans-20" transform="translate(513.228516 0)"/>
      <use xlink:href="#DejaVuSans-65" transform="translate(545.015625 0)"/>
      <use xlink:href="#DejaVuSans-6e" transform="translate(606.539062 0)"/>
      <use xlink:href="#DejaVuSans-65" transform="translate(669.917969 0)"/>
      <use xlink:href="#DejaVuSans-72" transform="translate(731.441406 0)"/>
      <use xlink:href="#DejaVuSans-67" transform="translate(770.804688 0)"/>
      <use xlink:href="#DejaVuSans-79" transform="translate(834.28125 0)"/>
      <use xlink:href="#DejaVuSans-20" transform="translate(893.460938 0)"/>
      <use xlink:href="#DejaVuSans-28" transform="translate(925.248047 0)"/>
      <use xlink:href="#DejaVuSans-6b" transform="translate(964.261719 0)"/>
      <use xlink:href="#DejaVuSans-63" transform="translate(1022.171875 0)"/>
      <use xlink:href="#DejaVuSans-61" transform="translate(1077.152344 0)"/>
      <use xlink:href="#DejaVuSans-6c" transform="translate(1138.431641 0)"/>
      <use xlink:href="#DejaVuSans-2f" transform="translate(1166.214844 0)"/>
      <use xlink:href="#DejaVuSans-6d" transform="translate(1199.90625 0)"/>
      <use xlink:href="#DejaVuSans-6f" transform="translate(1297.318359 0)"/>
      <use xlink:href="#DejaVuSans-6c" transform="translate(1358.5 0)"/>
      <use xlink:href="#DejaVuSans-29" transform="translate(1386.283203 0)"/>
     </g>
    </g>
   </g>
   <g id="matplotlib.axis_2">
    <g id="ytick_1">
     <g id="line2d_29">
      <defs>
       <path id="ma551c7c014" d="M 0 0 
L -6 0 
" style="stroke: #000000; stroke-width: 2.5"/>
      </defs>
      <g>
       <use xlink:href="#ma551c7c014" x="68.58" y="338.58" style="stroke: #000000; stroke-width: 2.5"/>
      </g>
     </g>
     <g id="text_8">
      <!-- 0.0 -->
      <g transform="translate(33.635 344.65875) scale(0.16 -0.16)">
       <defs>
        <path id="DejaVuSans-30" d="M 2034 4250 
Q 1547 4250 1301 3770 
Q 1056 3291 1056 2328 
Q 1056 1369 1301 889 
Q 1547 409 2034 409 
Q 2525 409 2770 889 
Q 3016 1369 3016 2328 
Q 3016 3291 2770 3770 
Q 2525 4250 2034 4250 
z
M 2034 4750 
Q 2819 4750 3233 4129 
Q 3647 3509 3647 2328 
Q 3647 1150 3233 529 
Q 2819 -91 2034 -91 
Q 1250 -91 836 529 
Q 422 1150 422 2328 
Q 422 3509 836 4129 
Q 1250 4750 2034 4750 
z
" transform="scale(0.015625)"/>
        <path id="DejaVuSans-2e" d="M 684 794 
L 1344 794 
L 1344 0 
L 684 0 
L 684 794 
z
" transform="scale(0.015625)"/>
       </defs>
       <use xlink:href="#DejaVuSans-30"/>
       <use xlink:href="#DejaVuSans-2e" transform="translate(63.623047 0)"/>
       <use xlink:href="#DejaVuSans-30" transform="translate(95.410156 0)"/>
      </g>
     </g>
    </g>
    <g id="ytick_2">
     <g id="line2d_30">
      <g>
       <use xlink:href="#ma551c7c014" x="68.58" y="284.72721" style="stroke: #000000; stroke-width: 2.5"/>
      </g>
     </g>
     <g id="text_9">
      <!-- 0.5 -->
      <g transform="translate(33.635 290.80596) scale(0.16 -0.16)">
       <use xlink:href="#DejaVuSans-30"/>
       <use xlink:href="#DejaVuSans-2e" transform="translate(63.623047 0)"/>
       <use xlink:href="#DejaVuSans-35" transform="translate(95.410156 0)"/>
      </g>
     </g>
    </g>
    <g id="ytick_3">
     <g id="line2d_31">
      <g>
       <use xlink:href="#ma551c7c014" x="68.58" y="230.87442" style="stroke: #000000; stroke-width: 2.5"/>
      </g>
     </g>
     <g id="text_10">
      <!-- 1.0 -->
      <g transform="translate(33.635 236.95317) scale(0.16 -0.16)">
       <use xlink:href="#DejaVuSans-31"/>
       <use xlink:href="#DejaVuSans-2e" transform="translate(63.623047 0)"/>
       <use xlink:href="#DejaVuSans-30" transform="translate(95.410156 0)"/>
      </g>
     </g>
    </g>
    <g id="ytick_4">
     <g id="line2d_32">
      <g>
       <use xlink:href="#ma551c7c014" x="68.58" y="177.021629" style="stroke: #000000; stroke-width: 2.5"/>
      </g>
     </g>
     <g id="text_11">
      <!-- 1.5 -->
      <g transform="translate(33.635 183.100379) scale(0.16 -0.16)">
       <use xlink:href="#DejaVuSans-31"/>
       <use xlink:href="#DejaVuSans-2e" transform="translate(63.623047 0)"/>
       <use xlink:href="#DejaVuSans-35" transform="translate(95.410156 0)"/>
      </g>
     </g>
    </g>
    <g id="ytick_5">
     <g id="line2d_33">
      <g>
       <use xlink:href="#ma551c7c014" x="68.58" y="123.168839" style="stroke: #000000; stroke-width: 2.5"/>
      </g>
     </g>
     <g id="text_12">
      <!-- 2.0 -->
      <g transform="translate(33.635 129.247589) scale(0.16 -0.16)">
       <use xlink:href="#DejaVuSans-32"/>
       <use xlink:href="#DejaVuSans-2e" transform="translate(63.623047 0)"/>
       <use xlink:href="#DejaVuSans-30" transform="translate(95.410156 0)"/>
      </g>
     </g>
    </g>
    <g id="ytick_6">
     <g id="line2d_34">
      <g>
       <use xlink:href="#ma551c7c014" x="68.58" y="69.316049" style="stroke: #000000; stroke-width: 2.5"/>
      </g>
     </g>
     <g id="text_13">
      <!-- 2.5 -->
      <g transform="translate(33.635 75.394799) scale(0.16 -0.16)">
       <use xlink:href="#DejaVuSans-32"/>
       <use xlink:href="#DejaVuSans-2e" transform="translate(63.623047 0)"/>
       <use xlink:href="#DejaVuSans-35" transform="translate(95.410156 0)"/>
      </g>
     </g>
    </g>
    <g id="text_14">
     <!-- Normalized frequency -->
     <g transform="translate(25.683594 291.430078) rotate(-90) scale(0.19 -0.19)">
      <defs>
       <path id="DejaVuSans-4e" d="M 628 4666 
L 1478 4666 
L 3547 763 
L 3547 4666 
L 4159 4666 
L 4159 0 
L 3309 0 
L 1241 3903 
L 1241 0 
L 628 0 
L 628 4666 
z
" transform="scale(0.015625)"/>
       <path id="DejaVuSans-7a" d="M 353 3500 
L 3084 3500 
L 3084 2975 
L 922 459 
L 3084 459 
L 3084 0 
L 275 0 
L 275 525 
L 2438 3041 
L 353 3041 
L 353 3500 
z
" transform="scale(0.015625)"/>
       <path id="DejaVuSans-64" d="M 2906 2969 
L 2906 4863 
L 3481 4863 
L 3481 0 
L 2906 0 
L 2906 525 
Q 2725 213 2448 61 
Q 2172 -91 1784 -91 
Q 1150 -91 751 415 
Q 353 922 353 1747 
Q 353 2572 751 3078 
Q 1150 3584 1784 3584 
Q 2172 3584 2448 3432 
Q 2725 3281 2906 2969 
z
M 947 1747 
Q 947 1113 1208 752 
Q 1469 391 1925 391 
Q 2381 391 2643 752 
Q 2906 1113 2906 1747 
Q 2906 2381 2643 2742 
Q 2381 3103 1925 3103 
Q 1469 3103 1208 2742 
Q 947 2381 947 1747 
z
" transform="scale(0.015625)"/>
       <path id="DejaVuSans-71" d="M 947 1747 
Q 947 1113 1208 752 
Q 1469 391 1925 391 
Q 2381 391 2643 752 
Q 2906 1113 2906 1747 
Q 2906 2381 2643 2742 
Q 2381 3103 1925 3103 
Q 1469 3103 1208 2742 
Q 947 2381 947 1747 
z
M 2906 525 
Q 2725 213 2448 61 
Q 2172 -91 1784 -91 
Q 1150 -91 751 415 
Q 353 922 353 1747 
Q 353 2572 751 3078 
Q 1150 3584 1784 3584 
Q 2172 3584 2448 3432 
Q 2725 3281 2906 2969 
L 2906 3500 
L 3481 3500 
L 3481 -1331 
L 2906 -1331 
L 2906 525 
z
" transform="scale(0.015625)"/>
       <path id="DejaVuSans-75" d="M 544 1381 
L 544 3500 
L 1119 3500 
L 1119 1403 
Q 1119 906 1312 657 
Q 1506 409 1894 409 
Q 2359 409 2629 706 
Q 2900 1003 2900 1516 
L 2900 3500 
L 3475 3500 
L 3475 0 
L 2900 0 
L 2900 538 
Q 2691 219 2414 64 
Q 2138 -91 1772 -91 
Q 1169 -91 856 284 
Q 544 659 544 1381 
z
M 1991 3584 
L 1991 3584 
z
" transform="scale(0.015625)"/>
      </defs>
      <use xlink:href="#DejaVuSans-4e"/>
      <use xlink:href="#DejaVuSans-6f" transform="translate(74.804688 0)"/>
      <use xlink:href="#DejaVuSans-72" transform="translate(135.986328 0)"/>
      <use xlink:href="#DejaVuSans-6d" transform="translate(175.349609 0)"/>
      <use xlink:href="#DejaVuSans-61" transform="translate(272.761719 0)"/>
      <use xlink:href="#DejaVuSans-6c" transform="translate(334.041016 0)"/>
      <use xlink:href="#DejaVuSans-69" transform="translate(361.824219 0)"/>
      <use xlink:href="#DejaVuSans-7a" transform="translate(389.607422 0)"/>
      <use xlink:href="#DejaVuSans-65" transform="translate(442.097656 0)"/>
      <use xlink:href="#DejaVuSans-64" transform="translate(503.621094 0)"/>
      <use xlink:href="#DejaVuSans-20" transform="translate(567.097656 0)"/>
      <use xlink:href="#DejaVuSans-66" transform="translate(598.884766 0)"/>
      <use xlink:href="#DejaVuSans-72" transform="translate(634.089844 0)"/>
      <use xlink:href="#DejaVuSans-65" transform="translate(672.953125 0)"/>
      <use xlink:href="#DejaVuSans-71" transform="translate(734.476562 0)"/>
      <use xlink:href="#DejaVuSans-75" transform="translate(797.953125 0)"/>
      <use xlink:href="#DejaVuSans-65" transform="translate(861.332031 0)"/>
      <use xlink:href="#DejaVuSans-6e" transform="translate(922.855469 0)"/>
      <use xlink:href="#DejaVuSans-63" transform="translate(986.234375 0)"/>
      <use xlink:href="#DejaVuSans-79" transform="translate(1041.214844 0)"/>
     </g>
    </g>
   </g>
   <g id="line2d_35">
    <path d="M 104.751105 338.58 
L 104.751105 35.2 
" clip-path="url(#pa4876dc133)" style="fill: none; stroke-dasharray: 11.1,4.8; stroke-dashoffset: 0; stroke: #0000ff; stroke-width: 3"/>
   </g>
   <g id="line2d_36">
    <path d="M 191.860795 338.58 
L 191.860795 35.2 
" clip-path="url(#pa4876dc133)" style="fill: none; stroke-dasharray: 11.1,4.8; stroke-dashoffset: 0; stroke: #0000ff; stroke-width: 3"/>
   </g>
   <g id="patch_163">
    <path d="M 68.58 338.58 
L 68.58 35.2 
" style="fill: none; stroke: #000000; stroke-width: 2.5; stroke-linejoin: miter; stroke-linecap: square"/>
   </g>
   <g id="patch_164">
    <path d="M 693.2 338.58 
L 693.2 35.2 
" style="fill: none; stroke: #000000; stroke-width: 2.5; stroke-linejoin: miter; stroke-linecap: square"/>
   </g>
   <g id="patch_165">
    <path d="M 68.58 338.58 
L 693.2 338.58 
" style="fill: none; stroke: #000000; stroke-width: 2.5; stroke-linejoin: miter; stroke-linecap: square"/>
   </g>
   <g id="patch_166">
    <path d="M 68.58 35.2 
L 693.2 35.2 
" style="fill: none; stroke: #000000; stroke-width: 2.5; stroke-linejoin: miter; stroke-linecap: square"/>
   </g>
   <g id="text_15">
    <!-- On-target vs Off-target Energy Distribution -->
    <g transform="translate(177.788906 25.2) scale(0.19 -0.19)">
     <defs>
      <path id="DejaVuSans-4f" d="M 2522 4238 
Q 1834 4238 1429 3725 
Q 1025 3213 1025 2328 
Q 1025 1447 1429 934 
Q 1834 422 2522 422 
Q 3209 422 3611 934 
Q 4013 1447 4013 2328 
Q 4013 3213 3611 3725 
Q 3209 4238 2522 4238 
z
M 2522 4750 
Q 3503 4750 4090 4092 
Q 4678 3434 4678 2328 
Q 4678 1225 4090 567 
Q 3503 -91 2522 -91 
Q 1538 -91 948 565 
Q 359 1222 359 2328 
Q 359 3434 948 4092 
Q 1538 4750 2522 4750 
z
" transform="scale(0.015625)"/>
      <path id="DejaVuSans-2d" d="M 313 2009 
L 1997 2009 
L 1997 1497 
L 313 1497 
L 313 2009 
z
" transform="scale(0.015625)"/>
      <path id="DejaVuSans-74" d="M 1172 4494 
L 1172 3500 
L 2356 3500 
L 2356 3053 
L 1172 3053 
L 1172 1153 
Q 1172 725 1289 603 
Q 1406 481 1766 481 
L 2356 481 
L 2356 0 
L 1766 0 
Q 1100 0 847 248 
Q 594 497 594 1153 
L 594 3053 
L 172 3053 
L 172 3500 
L 594 3500 
L 594 4494 
L 1172 4494 
z
" transform="scale(0.015625)"/>
      <path id="DejaVuSans-76" d="M 191 3500 
L 800 3500 
L 1894 563 
L 2988 3500 
L 3597 3500 
L 2284 0 
L 1503 0 
L 191 3500 
z
" transform="scale(0.015625)"/>
      <path id="DejaVuSans-45" d="M 628 4666 
L 3578 4666 
L 3578 4134 
L 1259 4134 
L 1259 2753 
L 3481 2753 
L 3481 2222 
L 1259 2222 
L 1259 531 
L 3634 531 
L 3634 0 
L 628 0 
L 628 4666 
z
" transform="scale(0.015625)"/>
      <path id="DejaVuSans-44" d="M 1259 4147 
L 1259 519 
L 2022 519 
Q 2988 519 3436 956 
Q 3884 1394 3884 2338 
Q 3884 3275 3436 3711 
Q 2988 4147 2022 4147 
L 1259 4147 
z
M 628 4666 
L 1925 4666 
Q 3281 4666 3915 4102 
Q 4550 3538 4550 2338 
Q 4550 1131 3912 565 
Q 3275 0 1925 0 
L 628 0 
L 628 4666 
z
" transform="scale(0.015625)"/>
     </defs>
     <use xlink:href="#DejaVuSans-4f"/>
     <use xlink:href="#DejaVuSans-6e" transform="translate(78.710938 0)"/>
     <use xlink:href="#DejaVuSans-2d" transform="translate(142.089844 0)"/>
     <use xlink:href="#DejaVuSans-74" transform="translate(178.173828 0)"/>
     <use xlink:href="#DejaVuSans-61" transform="translate(217.382812 0)"/>
     <use xlink:href="#DejaVuSans-72" transform="translate(278.662109 0)"/>
     <use xlink:href="#DejaVuSans-67" transform="translate(318.025391 0)"/>
     <use xlink:href="#DejaVuSans-65" transform="translate(381.501953 0)"/>
     <use xlink:href="#DejaVuSans-74" transform="translate(443.025391 0)"/>
     <use xlink:href="#DejaVuSans-20" transform="translate(482.234375 0)"/>
     <use xlink:href="#DejaVuSans-76" transform="translate(514.021484 0)"/>
     <use xlink:href="#DejaVuSans-73" transform="translate(573.201172 0)"/>
     <use xlink:href="#DejaVuSans-20" transform="translate(625.300781 0)"/>
     <use xlink:href="#DejaVuSans-4f" transform="translate(657.087891 0)"/>
     <use xlink:href="#DejaVuSans-66" transform="translate(735.798828 0)"/>
     <use xlink:href="#DejaVuSans-66" transform="translate(771.003906 0)"/>
     <use xlink:href="#DejaVuSans-2d" transform="translate(800.708984 0)"/>
     <use xlink:href="#DejaVuSans-74" transform="translate(836.792969 0)"/>
     <use xlink:href="#DejaVuSans-61" transform="translate(876.001953 0)"/>
     <use xlink:href="#DejaVuSans-72" transform="translate(937.28125 0)"/>
     <use xlink:href="#DejaVuSans-67" transform="translate(976.644531 0)"/>
     <use xlink:href="#DejaVuSans-65" transform="translate(1040.121094 0)"/>
     <use xlink:href="#DejaVuSans-74" transform="translate(1101.644531 0)"/>
     <use xlink:href="#DejaVuSans-20" transform="translate(1140.853516 0)"/>
     <use xlink:href="#DejaVuSans-45" transform="translate(1172.640625 0)"/>
     <use xlink:href="#DejaVuSans-6e" transform="translate(1235.824219 0)"/>
     <use xlink:href="#DejaVuSans-65" transform="translate(1299.203125 0)"/>
     <use xlink:href="#DejaVuSans-72" transform="translate(1360.726562 0)"/>
     <use xlink:href="#DejaVuSans-67" transform="translate(1400.089844 0)"/>
     <use xlink:href="#DejaVuSans-79" transform="translate(1463.566406 0)"/>
     <use xlink:href="#DejaVuSans-20" transform="translate(1522.746094 0)"/>
     <use xlink:href="#DejaVuSans-44" transform="translate(1554.533203 0)"/>
     <use xlink:href="#DejaVuSans-69" transform="translate(1631.535156 0)"/>
     <use xlink:href="#DejaVuSans-73" transform="translate(1659.318359 0)"/>
     <use xlink:href="#DejaVuSans-74" transform="translate(1711.417969 0)"/>
     <use xlink:href="#DejaVuSans-72" transform="translate(1750.626953 0)"/>
     <use xlink:href="#DejaVuSans-69" transform="translate(1791.740234 0)"/>
     <use xlink:href="#DejaVuSans-62" transform="translate(1819.523438 0)"/>
     <use xlink:href="#DejaVuSans-75" transform="translate(1883 0)"/>
     <use xlink:href="#DejaVuSans-74" transform="translate(1946.378906 0)"/>
     <use xlink:href="#DejaVuSans-69" transform="translate(1985.587891 0)"/>
     <use xlink:href="#DejaVuSans-6f" transform="translate(2013.371094 0)"/>
     <use xlink:href="#DejaVuSans-6e" transform="translate(2074.552734 0)"/>
    </g>
   </g>
   <g id="legend_1">
    <g id="patch_167">
     <path d="M 519.2775 61.7575 
L 551.2775 61.7575 
L 551.2775 50.5575 
L 519.2775 50.5575 
z
" style="fill: #d62728; opacity: 0.8; stroke: #000000; stroke-width: 2; stroke-linejoin: miter"/>
    </g>
    <g id="text_16">
     <!-- Off-target -->
     <g transform="translate(564.0775 61.7575) scale(0.16 -0.16)">
      <use xlink:href="#DejaVuSans-4f"/>
      <use xlink:href="#DejaVuSans-66" transform="translate(78.710938 0)"/>
      <use xlink:href="#DejaVuSans-66" transform="translate(113.916016 0)"/>
      <use xlink:href="#DejaVuSans-2d" transform="translate(143.621094 0)"/>
      <use xlink:href="#DejaVuSans-74" transform="translate(179.705078 0)"/>
      <use xlink:href="#DejaVuSans-61" transform="translate(218.914062 0)"/>
      <use xlink:href="#DejaVuSans-72" transform="translate(280.193359 0)"/>
      <use xlink:href="#DejaVuSans-67" transform="translate(319.556641 0)"/>
      <use xlink:href="#DejaVuSans-65" transform="translate(383.033203 0)"/>
      <use xlink:href="#DejaVuSans-74" transform="translate(444.556641 0)"/>
     </g>
    </g>
    <g id="patch_168">
     <path d="M 519.2775 85.2425 
L 551.2775 85.2425 
L 551.2775 74.0425 
L 519.2775 74.0425 
z
" style="fill: #1f77b4; opacity: 0.8; stroke: #000000; stroke-width: 2; stroke-linejoin: miter"/>
    </g>
    <g id="text_17">
     <!-- On-target -->
     <g transform="translate(564.0775 85.2425) scale(0.16 -0.16)">
      <use xlink:href="#DejaVuSans-4f"/>
      <use xlink:href="#DejaVuSans-6e" transform="translate(78.710938 0)"/>
      <use xlink:href="#DejaVuSans-2d" transform="translate(142.089844 0)"/>
      <use xlink:href="#DejaVuSans-74" transform="translate(178.173828 0)"/>
      <use xlink:href="#DejaVuSans-61" transform="translate(217.382812 0)"/>
      <use xlink:href="#DejaVuSans-72" transform="translate(278.662109 0)"/>
      <use xlink:href="#DejaVuSans-67" transform="translate(318.025391 0)"/>
      <use xlink:href="#DejaVuSans-65" transform="translate(381.501953 0)"/>
      <use xlink:href="#DejaVuSans-74" transform="translate(443.025391 0)"/>
     </g>
    </g>
    <g id="line2d_37">
     <path d="M 519.2775 103.1275 
L 535.2775 103.1275 
L 551.2775 103.1275 
" style="fill: none; stroke-dasharray: 11.1,4.8; stroke-dashoffset: 0; stroke: #0000ff; stroke-width: 3"/>
    </g>
    <g id="text_18">
     <!-- Min On-Target -->
     <g transform="translate(564.0775 108.7275) scale(0.16 -0.16)">
      <defs>
       <path id="DejaVuSans-4d" d="M 628 4666 
L 1569 4666 
L 2759 1491 
L 3956 4666 
L 4897 4666 
L 4897 0 
L 4281 0 
L 4281 4097 
L 3078 897 
L 2444 897 
L 1241 4097 
L 1241 0 
L 628 0 
L 628 4666 
z
" transform="scale(0.015625)"/>
       <path id="DejaVuSans-54" d="M -19 4666 
L 3928 4666 
L 3928 4134 
L 2272 4134 
L 2272 0 
L 1638 0 
L 1638 4134 
L -19 4134 
L -19 4666 
z
" transform="scale(0.015625)"/>
      </defs>
      <use xlink:href="#DejaVuSans-4d"/>
      <use xlink:href="#DejaVuSans-69" transform="translate(86.279297 0)"/>
      <use xlink:href="#DejaVuSans-6e" transform="translate(114.0625 0)"/>
      <use xlink:href="#DejaVuSans-20" transform="translate(177.441406 0)"/>
      <use xlink:href="#DejaVuSans-4f" transform="translate(209.228516 0)"/>
      <use xlink:href="#DejaVuSans-6e" transform="translate(287.939453 0)"/>
      <use xlink:href="#DejaVuSans-2d" transform="translate(351.318359 0)"/>
      <use xlink:href="#DejaVuSans-54" transform="translate(378.277344 0)"/>
      <use xlink:href="#DejaVuSans-61" transform="translate(422.861328 0)"/>
      <use xlink:href="#DejaVuSans-72" transform="translate(484.140625 0)"/>
      <use xlink:href="#DejaVuSans-67" transform="translate(523.503906 0)"/>
      <use xlink:href="#DejaVuSans-65" transform="translate(586.980469 0)"/>
      <use xlink:href="#DejaVuSans-74" transform="translate(648.503906 0)"/>
     </g>
    </g>
    <g id="line2d_38">
     <path d="M 519.2775 126.6125 
L 535.2775 126.6125 
L 551.2775 126.6125 
" style="fill: none; stroke-dasharray: 11.1,4.8; stroke-dashoffset: 0; stroke: #0000ff; stroke-width: 3"/>
    </g>
    <g id="text_19">
     <!-- Max On-Target -->
     <g transform="translate(564.0775 132.2125) scale(0.16 -0.16)">
      <defs>
       <path id="DejaVuSans-78" d="M 3513 3500 
L 2247 1797 
L 3578 0 
L 2900 0 
L 1881 1375 
L 863 0 
L 184 0 
L 1544 1831 
L 300 3500 
L 978 3500 
L 1906 2253 
L 2834 3500 
L 3513 3500 
z
" transform="scale(0.015625)"/>
      </defs>
      <use xlink:href="#DejaVuSans-4d"/>
      <use xlink:href="#DejaVuSans-61" transform="translate(86.279297 0)"/>
      <use xlink:href="#DejaVuSans-78" transform="translate(147.558594 0)"/>
      <use xlink:href="#DejaVuSans-20" transform="translate(206.738281 0)"/>
      <use xlink:href="#DejaVuSans-4f" transform="translate(238.525391 0)"/>
      <use xlink:href="#DejaVuSans-6e" transform="translate(317.236328 0)"/>
      <use xlink:href="#DejaVuSans-2d" transform="translate(380.615234 0)"/>
      <use xlink:href="#DejaVuSans-54" transform="translate(407.574219 0)"/>
      <use xlink:href="#DejaVuSans-61" transform="translate(452.158203 0)"/>
      <use xlink:href="#DejaVuSans-72" transform="translate(513.4375 0)"/>
      <use xlink:href="#DejaVuSans-67" transform="translate(552.800781 0)"/>
      <use xlink:href="#DejaVuSans-65" transform="translate(616.277344 0)"/>
      <use xlink:href="#DejaVuSans-74" transform="translate(677.800781 0)"/>
     </g>
    </g>
   </g>
  </g>
 </g>
 <defs>
  <clipPath id="pa4876dc133">
   <rect x="68.58" y="35.2" width="624.62" height="303.38"/>
  </clipPath>
 </defs>
</svg>
