<?xml version="1.0" encoding="utf-8" standalone="no"?>
<!DOCTYPE svg PUBLIC "-//W3C//DTD SVG 1.1//EN"
  "http://www.w3.org/Graphics/SVG/1.1/DTD/svg11.dtd">
<svg xmlns:xlink="http://www.w3.org/1999/xlink" width="518.4pt" height="302.4pt" viewBox="0 0 518.4 302.4" xmlns="http://www.w3.org/2000/svg" version="1.1">
 <metadata>
  <rdf:RDF xmlns:dc="http://purl.org/dc/elements/1.1/" xmlns:cc="http://creativecommons.org/ns#" xmlns:rdf="http://www.w3.org/1999/02/22-rdf-syntax-ns#">
   <cc:Work>
    <dc:type rdf:resource="http://purl.org/dc/dcmitype/StillImage"/>
    <dc:date>2026-03-05T15:05:01.769229</dc:date>
    <dc:format>image/svg+xml</dc:format>
    <dc:creator>
     <cc:Agent>
      <dc:title>Matplotlib v3.10.7, https://matplotlib.org/</dc:title>
     </cc:Agent>
    </dc:creator>
   </cc:Work>
  </rdf:RDF>
 </metadata>
 <defs>
  <style type="text/css">*{stroke-linejoin: round; stroke-linecap: butt}</style>
 </defs>
 <g id="figure_1">
  <g id="patch_1">
   <path d="M 0 302.4 
L 518.4 302.4 
L 518.4 0 
L 0 0 
z
" style="fill: #ffffff"/>
  </g>
  <g id="axes_1">
   <g id="patch_2">
    <path d="M 54.2 260.44 
L 472.57 260.44 
L 472.57 24.72 
L 54.2 24.72 
z
" style="fill: #ffffff"/>
   </g>
   <g id="matplotlib.axis_1">
    <g id="xtick_1">
     <g id="line2d_1">
      <defs>
       <path id="m4532d30766" d="M 0 0 
L 0 3.5 
" style="stroke: #000000; stroke-width: 0.8"/>
      </defs>
      <g>
       <use xlink:href="#m4532d30766" x="98.021364" y="260.44" style="stroke: #000000; stroke-width: 0.8"/>
      </g>
     </g>
     <g id="text_1">
      <text style="font-size: 10px; font-family: 'Arial'; text-anchor: middle" x="98.021364" y="274.597813" transform="rotate(-0 98.021364 274.597813)">−10</text>
     </g>
    </g>
    <g id="xtick_2">
     <g id="line2d_2">
      <g>
       <use xlink:href="#m4532d30766" x="180.703182" y="260.44" style="stroke: #000000; stroke-width: 0.8"/>
      </g>
     </g>
     <g id="text_2">
      <text style="font-size: 10px; font-family: 'Arial'; text-anchor: middle" x="180.703182" y="274.597813" transform="rotate(-0 180.703182 274.597813)">−9</text>
     </g>
    </g>
    <g id="xtick_3">
     <g id="line2d_3">
      <g>
       <use xlink:href="#m4532d30766" x="263.385" y="260.44" style="stroke: #000000; stroke-width: 0.8"/>
      </g>
     </g>
     <g id="text_3">
      <text style="font-size: 10px; font-family: 'Arial'; text-anchor: middle" x="263.385" y="274.597813" transform="rotate(-0 263.385 274.597813)">−8</text>
     </g>
    </g>
    <g id="xtick_4">
     <g id="line2d_4">
      <g>
       <use xlink:href="#m4532d30766" x="346.066818" y="260.44" style="stroke: #000000; stroke-width: 0.8"/>
      </g>
     </g>
     <g id="text_4">
      <text style="font-size: 10px; font-family: 'Arial'; text-anchor: middle" x="346.066818" y="274.597813" transform="rotate(-0 346.066818 274.597813)">−7</text>
     </g>
    </g>
    <g id="xtick_5">
     <g id="line2d_5">
      <g>
       <use xlink:href="#m4532d30766" x="428.748636" y="260.44" style="stroke: #000000; stroke-width: 0.8"/>
      </g>
     </g>
     <g id="text_5">
      <text style="font-size: 10px; font-family: 'Arial'; text-anchor: middle" x="428.748636" y="274.597813" transform="rotate(-0 428.748636 274.597813)">−6</text>
     </g>
    </g>
    <g id="text_6">
     <text style="font-size: 11px; font-family: 'Arial'; text-anchor: middle" x="263.385" y="288.599844" transform="rotate(-0 263.385 288.599844)">Off-Target Binding Limit (kcal/mol)</text>
    </g>
   </g>
   <g id="matplotlib.axis_2">
    <g id="ytick_1">
     <g id="line2d_6">
      <defs>
       <path id="m4fdf484d23" d="M 0 0 
L -3.5 0 
" style="stroke: #000000; stroke-width: 0.8"/>
      </defs>
      <g>
       <use xlink:href="#m4fdf484d23" x="54.2" y="250.231813" style="stroke: #000000; stroke-width: 0.8"/>
      </g>
     </g>
     <g id="text_7">
      <text style="font-size: 10px; font-family: 'Arial'; text-anchor: end" x="47.2" y="253.810719" transform="rotate(-0 47.2 253.810719)">0</text>
     </g>
    </g>
    <g id="ytick_2">
     <g id="line2d_7">
      <g>
       <use xlink:href="#m4fdf484d23" x="54.2" y="199.595965" style="stroke: #000000; stroke-width: 0.8"/>
      </g>
     </g>
     <g id="text_8">
      <text style="font-size: 10px; font-family: 'Arial'; text-anchor: end" x="47.2" y="203.174871" transform="rotate(-0 47.2 203.174871)">500</text>
     </g>
    </g>
    <g id="ytick_3">
     <g id="line2d_8">
      <g>
       <use xlink:href="#m4fdf484d23" x="54.2" y="148.960117" style="stroke: #000000; stroke-width: 0.8"/>
      </g>
     </g>
     <g id="text_9">
      <text style="font-size: 10px; font-family: 'Arial'; text-anchor: end" x="47.2" y="152.539023" transform="rotate(-0 47.2 152.539023)">1000</text>
     </g>
    </g>
    <g id="ytick_4">
     <g id="line2d_9">
      <g>
       <use xlink:href="#m4fdf484d23" x="54.2" y="98.324269" style="stroke: #000000; stroke-width: 0.8"/>
      </g>
     </g>
     <g id="text_10">
      <text style="font-size: 10px; font-family: 'Arial'; text-anchor: end" x="47.2" y="101.903175" transform="rotate(-0 47.2 101.903175)">1500</text>
     </g>
    </g>
    <g id="ytick_5">
     <g id="line2d_10">
      <g>
       <use xlink:href="#m4fdf484d23" x="54.2" y="47.688421" style="stroke: #000000; stroke-width: 0.8"/>
      </g>
     </g>
     <g id="text_11">
      <text style="font-size: 10px; font-family: 'Arial'; text-anchor: end" x="47.2" y="51.267327" transform="rotate(-0 47.2 51.267327)">2000</text>
     </g>
    </g>
    <g id="text_12">
     <text style="font-size: 11px; font-family: 'Arial'; text-anchor: middle" x="18.77" y="142.58" transform="rotate(-90 18.77 142.58)">Independent Set Size</text>
    </g>
   </g>
   <g id="line2d_11">
    <path d="M 73.216818 95.691205 
L 81.485 122.609222 
L 89.753182 138.913965 
L 98.021364 150.965296 
L 106.289545 163.097646 
L 114.557727 172.576676 
L 122.825909 180.273325 
L 131.094091 187.868703 
L 139.362273 195.342554 
L 147.630455 202.006231 
L 155.898636 206.057099 
L 164.166818 210.067458 
L 172.435 213.571459 
L 180.703182 216.791899 
L 188.971364 219.951576 
L 197.239545 223.293542 
L 205.507727 225.865843 
L 213.775909 228.539416 
L 222.044091 231.31426 
L 230.312273 233.31944 
L 238.580455 235.203093 
L 246.848636 236.803186 
L 255.116818 237.815903 
L 263.385 239.274216 
L 271.653182 240.651511 
L 279.921364 241.319904 
L 288.189545 242.373129 
L 296.457727 243.406101 
L 304.725909 243.871951 
L 312.994091 244.499835 
L 321.262273 245.249246 
L 329.530455 245.755604 
L 337.798636 246.302471 
L 346.066818 246.768321 
L 354.335 247.254425 
L 362.603182 247.720275 
L 370.871364 247.862055 
L 379.139545 248.327905 
L 387.407727 248.449431 
L 395.675909 248.692483 
L 403.944091 248.753246 
L 412.212273 249.016553 
L 420.480455 249.23935 
L 428.748636 249.381131 
L 437.016818 249.502657 
L 445.285 249.522911 
L 453.553182 249.644437 
" clip-path="url(#pd5d5b7037e)" style="fill: none; stroke: #a9dca3; stroke-width: 1.6; stroke-linecap: square"/>
    <defs>
     <path id="md61f1c77c4" d="M 0 1.9 
C 0.503886 1.9 0.987202 1.699804 1.343503 1.343503 
C 1.699804 0.987202 1.9 0.503886 1.9 0 
C 1.9 -0.503886 1.699804 -0.987202 1.343503 -1.343503 
C 0.987202 -1.699804 0.503886 -1.9 0 -1.9 
C -0.503886 -1.9 -0.987202 -1.699804 -1.343503 -1.343503 
C -1.699804 -0.987202 -1.9 -0.503886 -1.9 0 
C -1.9 0.503886 -1.699804 0.987202 -1.343503 1.343503 
C -0.987202 1.699804 -0.503886 1.9 0 1.9 
z
" style="stroke: #a9dca3"/>
    </defs>
    <g clip-path="url(#pd5d5b7037e)">
     <use xlink:href="#md61f1c77c4" x="73.216818" y="95.691205" style="fill: #a9dca3; stroke: #a9dca3"/>
     <use xlink:href="#md61f1c77c4" x="81.485" y="122.609222" style="fill: #a9dca3; stroke: #a9dca3"/>
     <use xlink:href="#md61f1c77c4" x="89.753182" y="138.913965" style="fill: #a9dca3; stroke: #a9dca3"/>
     <use xlink:href="#md61f1c77c4" x="98.021364" y="150.965296" style="fill: #a9dca3; stroke: #a9dca3"/>
     <use xlink:href="#md61f1c77c4" x="106.289545" y="163.097646" style="fill: #a9dca3; stroke: #a9dca3"/>
     <use xlink:href="#md61f1c77c4" x="114.557727" y="172.576676" style="fill: #a9dca3; stroke: #a9dca3"/>
     <use xlink:href="#md61f1c77c4" x="122.825909" y="180.273325" style="fill: #a9dca3; stroke: #a9dca3"/>
     <use xlink:href="#md61f1c77c4" x="131.094091" y="187.868703" style="fill: #a9dca3; stroke: #a9dca3"/>
     <use xlink:href="#md61f1c77c4" x="139.362273" y="195.342554" style="fill: #a9dca3; stroke: #a9dca3"/>
     <use xlink:href="#md61f1c77c4" x="147.630455" y="202.006231" style="fill: #a9dca3; stroke: #a9dca3"/>
     <use xlink:href="#md61f1c77c4" x="155.898636" y="206.057099" style="fill: #a9dca3; stroke: #a9dca3"/>
     <use xlink:href="#md61f1c77c4" x="164.166818" y="210.067458" style="fill: #a9dca3; stroke: #a9dca3"/>
     <use xlink:href="#md61f1c77c4" x="172.435" y="213.571459" style="fill: #a9dca3; stroke: #a9dca3"/>
     <use xlink:href="#md61f1c77c4" x="180.703182" y="216.791899" style="fill: #a9dca3; stroke: #a9dca3"/>
     <use xlink:href="#md61f1c77c4" x="188.971364" y="219.951576" style="fill: #a9dca3; stroke: #a9dca3"/>
     <use xlink:href="#md61f1c77c4" x="197.239545" y="223.293542" style="fill: #a9dca3; stroke: #a9dca3"/>
     <use xlink:href="#md61f1c77c4" x="205.507727" y="225.865843" style="fill: #a9dca3; stroke: #a9dca3"/>
     <use xlink:href="#md61f1c77c4" x="213.775909" y="228.539416" style="fill: #a9dca3; stroke: #a9dca3"/>
     <use xlink:href="#md61f1c77c4" x="222.044091" y="231.31426" style="fill: #a9dca3; stroke: #a9dca3"/>
     <use xlink:href="#md61f1c77c4" x="230.312273" y="233.31944" style="fill: #a9dca3; stroke: #a9dca3"/>
     <use xlink:href="#md61f1c77c4" x="238.580455" y="235.203093" style="fill: #a9dca3; stroke: #a9dca3"/>
     <use xlink:href="#md61f1c77c4" x="246.848636" y="236.803186" style="fill: #a9dca3; stroke: #a9dca3"/>
     <use xlink:href="#md61f1c77c4" x="255.116818" y="237.815903" style="fill: #a9dca3; stroke: #a9dca3"/>
     <use xlink:href="#md61f1c77c4" x="263.385" y="239.274216" style="fill: #a9dca3; stroke: #a9dca3"/>
     <use xlink:href="#md61f1c77c4" x="271.653182" y="240.651511" style="fill: #a9dca3; stroke: #a9dca3"/>
     <use xlink:href="#md61f1c77c4" x="279.921364" y="241.319904" style="fill: #a9dca3; stroke: #a9dca3"/>
     <use xlink:href="#md61f1c77c4" x="288.189545" y="242.373129" style="fill: #a9dca3; stroke: #a9dca3"/>
     <use xlink:href="#md61f1c77c4" x="296.457727" y="243.406101" style="fill: #a9dca3; stroke: #a9dca3"/>
     <use xlink:href="#md61f1c77c4" x="304.725909" y="243.871951" style="fill: #a9dca3; stroke: #a9dca3"/>
     <use xlink:href="#md61f1c77c4" x="312.994091" y="244.499835" style="fill: #a9dca3; stroke: #a9dca3"/>
     <use xlink:href="#md61f1c77c4" x="321.262273" y="245.249246" style="fill: #a9dca3; stroke: #a9dca3"/>
     <use xlink:href="#md61f1c77c4" x="329.530455" y="245.755604" style="fill: #a9dca3; stroke: #a9dca3"/>
     <use xlink:href="#md61f1c77c4" x="337.798636" y="246.302471" style="fill: #a9dca3; stroke: #a9dca3"/>
     <use xlink:href="#md61f1c77c4" x="346.066818" y="246.768321" style="fill: #a9dca3; stroke: #a9dca3"/>
     <use xlink:href="#md61f1c77c4" x="354.335" y="247.254425" style="fill: #a9dca3; stroke: #a9dca3"/>
     <use xlink:href="#md61f1c77c4" x="362.603182" y="247.720275" style="fill: #a9dca3; stroke: #a9dca3"/>
     <use xlink:href="#md61f1c77c4" x="370.871364" y="247.862055" style="fill: #a9dca3; stroke: #a9dca3"/>
     <use xlink:href="#md61f1c77c4" x="379.139545" y="248.327905" style="fill: #a9dca3; stroke: #a9dca3"/>
     <use xlink:href="#md61f1c77c4" x="387.407727" y="248.449431" style="fill: #a9dca3; stroke: #a9dca3"/>
     <use xlink:href="#md61f1c77c4" x="395.675909" y="248.692483" style="fill: #a9dca3; stroke: #a9dca3"/>
     <use xlink:href="#md61f1c77c4" x="403.944091" y="248.753246" style="fill: #a9dca3; stroke: #a9dca3"/>
     <use xlink:href="#md61f1c77c4" x="412.212273" y="249.016553" style="fill: #a9dca3; stroke: #a9dca3"/>
     <use xlink:href="#md61f1c77c4" x="420.480455" y="249.23935" style="fill: #a9dca3; stroke: #a9dca3"/>
     <use xlink:href="#md61f1c77c4" x="428.748636" y="249.381131" style="fill: #a9dca3; stroke: #a9dca3"/>
     <use xlink:href="#md61f1c77c4" x="437.016818" y="249.502657" style="fill: #a9dca3; stroke: #a9dca3"/>
     <use xlink:href="#md61f1c77c4" x="445.285" y="249.522911" style="fill: #a9dca3; stroke: #a9dca3"/>
     <use xlink:href="#md61f1c77c4" x="453.553182" y="249.644437" style="fill: #a9dca3; stroke: #a9dca3"/>
    </g>
   </g>
   <g id="line2d_12">
    <path d="M 73.216818 81.006809 
L 81.485 108.350167 
L 89.753182 126.4778 
L 98.021364 138.934219 
L 106.289545 150.742499 
L 114.557727 159.856951 
L 122.825909 168.363774 
L 131.094091 175.027451 
L 139.362273 184.060887 
L 147.630455 191.514484 
L 155.898636 197.469259 
L 164.166818 202.613861 
L 172.435 206.705238 
L 180.703182 209.621863 
L 188.971364 212.538488 
L 197.239545 215.839945 
L 205.507727 218.635044 
L 213.775909 222.179553 
L 222.044091 225.6633 
L 230.312273 227.871023 
L 238.580455 230.504087 
L 246.848636 232.448503 
L 255.116818 233.92707 
L 263.385 235.60818 
L 271.653182 237.390562 
L 279.921364 238.626077 
L 288.189545 239.9021 
L 296.457727 241.097106 
L 304.725909 242.211095 
L 312.994091 243.061777 
L 321.262273 243.73017 
L 329.530455 244.297292 
L 337.798636 244.884667 
L 346.066818 245.512552 
L 354.335 246.221454 
L 362.603182 246.687304 
L 370.871364 247.051882 
L 379.139545 247.456969 
L 387.407727 247.659512 
L 395.675909 248.003836 
L 403.944091 248.246888 
L 412.212273 248.510194 
L 420.480455 248.773501 
L 428.748636 248.95579 
L 437.016818 249.178587 
L 445.285 249.219096 
L 453.553182 249.340622 
" clip-path="url(#pd5d5b7037e)" style="fill: none; stroke: #fc9b7c; stroke-width: 1.6; stroke-linecap: square"/>
    <defs>
     <path id="m025582db18" d="M 0 1.9 
C 0.503886 1.9 0.987202 1.699804 1.343503 1.343503 
C 1.699804 0.987202 1.9 0.503886 1.9 0 
C 1.9 -0.503886 1.699804 -0.987202 1.343503 -1.343503 
C 0.987202 -1.699804 0.503886 -1.9 0 -1.9 
C -0.503886 -1.9 -0.987202 -1.699804 -1.343503 -1.343503 
C -1.699804 -0.987202 -1.9 -0.503886 -1.9 0 
C -1.9 0.503886 -1.699804 0.987202 -1.343503 1.343503 
C -0.987202 1.699804 -0.503886 1.9 0 1.9 
z
" style="stroke: #fc9b7c"/>
    </defs>
    <g clip-path="url(#pd5d5b7037e)">
     <use xlink:href="#m025582db18" x="73.216818" y="81.006809" style="fill: #fc9b7c; stroke: #fc9b7c"/>
     <use xlink:href="#m025582db18" x="81.485" y="108.350167" style="fill: #fc9b7c; stroke: #fc9b7c"/>
     <use xlink:href="#m025582db18" x="89.753182" y="126.4778" style="fill: #fc9b7c; stroke: #fc9b7c"/>
     <use xlink:href="#m025582db18" x="98.021364" y="138.934219" style="fill: #fc9b7c; stroke: #fc9b7c"/>
     <use xlink:href="#m025582db18" x="106.289545" y="150.742499" style="fill: #fc9b7c; stroke: #fc9b7c"/>
     <use xlink:href="#m025582db18" x="114.557727" y="159.856951" style="fill: #fc9b7c; stroke: #fc9b7c"/>
     <use xlink:href="#m025582db18" x="122.825909" y="168.363774" style="fill: #fc9b7c; stroke: #fc9b7c"/>
     <use xlink:href="#m025582db18" x="131.094091" y="175.027451" style="fill: #fc9b7c; stroke: #fc9b7c"/>
     <use xlink:href="#m025582db18" x="139.362273" y="184.060887" style="fill: #fc9b7c; stroke: #fc9b7c"/>
     <use xlink:href="#m025582db18" x="147.630455" y="191.514484" style="fill: #fc9b7c; stroke: #fc9b7c"/>
     <use xlink:href="#m025582db18" x="155.898636" y="197.469259" style="fill: #fc9b7c; stroke: #fc9b7c"/>
     <use xlink:href="#m025582db18" x="164.166818" y="202.613861" style="fill: #fc9b7c; stroke: #fc9b7c"/>
     <use xlink:href="#m025582db18" x="172.435" y="206.705238" style="fill: #fc9b7c; stroke: #fc9b7c"/>
     <use xlink:href="#m025582db18" x="180.703182" y="209.621863" style="fill: #fc9b7c; stroke: #fc9b7c"/>
     <use xlink:href="#m025582db18" x="188.971364" y="212.538488" style="fill: #fc9b7c; stroke: #fc9b7c"/>
     <use xlink:href="#m025582db18" x="197.239545" y="215.839945" style="fill: #fc9b7c; stroke: #fc9b7c"/>
     <use xlink:href="#m025582db18" x="205.507727" y="218.635044" style="fill: #fc9b7c; stroke: #fc9b7c"/>
     <use xlink:href="#m025582db18" x="213.775909" y="222.179553" style="fill: #fc9b7c; stroke: #fc9b7c"/>
     <use xlink:href="#m025582db18" x="222.044091" y="225.6633" style="fill: #fc9b7c; stroke: #fc9b7c"/>
     <use xlink:href="#m025582db18" x="230.312273" y="227.871023" style="fill: #fc9b7c; stroke: #fc9b7c"/>
     <use xlink:href="#m025582db18" x="238.580455" y="230.504087" style="fill: #fc9b7c; stroke: #fc9b7c"/>
     <use xlink:href="#m025582db18" x="246.848636" y="232.448503" style="fill: #fc9b7c; stroke: #fc9b7c"/>
     <use xlink:href="#m025582db18" x="255.116818" y="233.92707" style="fill: #fc9b7c; stroke: #fc9b7c"/>
     <use xlink:href="#m025582db18" x="263.385" y="235.60818" style="fill: #fc9b7c; stroke: #fc9b7c"/>
     <use xlink:href="#m025582db18" x="271.653182" y="237.390562" style="fill: #fc9b7c; stroke: #fc9b7c"/>
     <use xlink:href="#m025582db18" x="279.921364" y="238.626077" style="fill: #fc9b7c; stroke: #fc9b7c"/>
     <use xlink:href="#m025582db18" x="288.189545" y="239.9021" style="fill: #fc9b7c; stroke: #fc9b7c"/>
     <use xlink:href="#m025582db18" x="296.457727" y="241.097106" style="fill: #fc9b7c; stroke: #fc9b7c"/>
     <use xlink:href="#m025582db18" x="304.725909" y="242.211095" style="fill: #fc9b7c; stroke: #fc9b7c"/>
     <use xlink:href="#m025582db18" x="312.994091" y="243.061777" style="fill: #fc9b7c; stroke: #fc9b7c"/>
     <use xlink:href="#m025582db18" x="321.262273" y="243.73017" style="fill: #fc9b7c; stroke: #fc9b7c"/>
     <use xlink:href="#m025582db18" x="329.530455" y="244.297292" style="fill: #fc9b7c; stroke: #fc9b7c"/>
     <use xlink:href="#m025582db18" x="337.798636" y="244.884667" style="fill: #fc9b7c; stroke: #fc9b7c"/>
     <use xlink:href="#m025582db18" x="346.066818" y="245.512552" style="fill: #fc9b7c; stroke: #fc9b7c"/>
     <use xlink:href="#m025582db18" x="354.335" y="246.221454" style="fill: #fc9b7c; stroke: #fc9b7c"/>
     <use xlink:href="#m025582db18" x="362.603182" y="246.687304" style="fill: #fc9b7c; stroke: #fc9b7c"/>
     <use xlink:href="#m025582db18" x="370.871364" y="247.051882" style="fill: #fc9b7c; stroke: #fc9b7c"/>
     <use xlink:href="#m025582db18" x="379.139545" y="247.456969" style="fill: #fc9b7c; stroke: #fc9b7c"/>
     <use xlink:href="#m025582db18" x="387.407727" y="247.659512" style="fill: #fc9b7c; stroke: #fc9b7c"/>
     <use xlink:href="#m025582db18" x="395.675909" y="248.003836" style="fill: #fc9b7c; stroke: #fc9b7c"/>
     <use xlink:href="#m025582db18" x="403.944091" y="248.246888" style="fill: #fc9b7c; stroke: #fc9b7c"/>
     <use xlink:href="#m025582db18" x="412.212273" y="248.510194" style="fill: #fc9b7c; stroke: #fc9b7c"/>
     <use xlink:href="#m025582db18" x="420.480455" y="248.773501" style="fill: #fc9b7c; stroke: #fc9b7c"/>
     <use xlink:href="#m025582db18" x="428.748636" y="248.95579" style="fill: #fc9b7c; stroke: #fc9b7c"/>
     <use xlink:href="#m025582db18" x="437.016818" y="249.178587" style="fill: #fc9b7c; stroke: #fc9b7c"/>
     <use xlink:href="#m025582db18" x="445.285" y="249.219096" style="fill: #fc9b7c; stroke: #fc9b7c"/>
     <use xlink:href="#m025582db18" x="453.553182" y="249.340622" style="fill: #fc9b7c; stroke: #fc9b7c"/>
    </g>
   </g>
   <g id="line2d_13">
    <path d="M 73.216818 71.102437 
L 81.485 108.491947 
L 89.753182 131.278079 
L 98.021364 147.461296 
L 106.289545 161.355772 
L 114.557727 172.677948 
L 122.825909 180.57714 
L 131.094091 188.172518 
L 139.362273 194.147548 
L 147.630455 200.608682 
L 155.898636 205.327943 
L 164.166818 209.621863 
L 172.435 213.368916 
L 180.703182 216.852662 
L 188.971364 219.951576 
L 197.239545 222.746675 
L 205.507727 225.80508 
L 213.775909 228.519161 
L 222.044091 231.17248 
L 230.312273 233.258677 
L 238.580455 235.203093 
L 246.848636 236.418354 
L 255.116818 237.977938 
L 263.385 239.395742 
L 271.653182 240.550239 
L 279.921364 241.562956 
L 288.189545 242.818725 
L 296.457727 243.811187 
L 304.725909 244.378309 
L 312.994091 244.904922 
L 321.262273 245.674587 
L 329.530455 245.998656 
L 337.798636 246.667049 
L 346.066818 247.031627 
L 354.335 247.477223 
L 362.603182 247.841801 
L 370.871364 248.02409 
L 379.139545 248.327905 
L 387.407727 248.510194 
L 395.675909 248.611466 
L 403.944091 248.834264 
L 412.212273 249.036807 
L 420.480455 249.259605 
L 428.748636 249.462148 
L 437.016818 249.543165 
L 445.285 249.664692 
" clip-path="url(#pd5d5b7037e)" style="fill: none; stroke: #005321; stroke-width: 1.6; stroke-linecap: square"/>
    <defs>
     <path id="m17d09a54f2" d="M 0 1.9 
C 0.503886 1.9 0.987202 1.699804 1.343503 1.343503 
C 1.699804 0.987202 1.9 0.503886 1.9 0 
C 1.9 -0.503886 1.699804 -0.987202 1.343503 -1.343503 
C 0.987202 -1.699804 0.503886 -1.9 0 -1.9 
C -0.503886 -1.9 -0.987202 -1.699804 -1.343503 -1.343503 
C -1.699804 -0.987202 -1.9 -0.503886 -1.9 0 
C -1.9 0.503886 -1.699804 0.987202 -1.343503 1.343503 
C -0.987202 1.699804 -0.503886 1.9 0 1.9 
z
" style="stroke: #005321"/>
    </defs>
    <g clip-path="url(#pd5d5b7037e)">
     <use xlink:href="#m17d09a54f2" x="73.216818" y="71.102437" style="fill: #005321; stroke: #005321"/>
     <use xlink:href="#m17d09a54f2" x="81.485" y="108.491947" style="fill: #005321; stroke: #005321"/>
     <use xlink:href="#m17d09a54f2" x="89.753182" y="131.278079" style="fill: #005321; stroke: #005321"/>
     <use xlink:href="#m17d09a54f2" x="98.021364" y="147.461296" style="fill: #005321; stroke: #005321"/>
     <use xlink:href="#m17d09a54f2" x="106.289545" y="161.355772" style="fill: #005321; stroke: #005321"/>
     <use xlink:href="#m17d09a54f2" x="114.557727" y="172.677948" style="fill: #005321; stroke: #005321"/>
     <use xlink:href="#m17d09a54f2" x="122.825909" y="180.57714" style="fill: #005321; stroke: #005321"/>
     <use xlink:href="#m17d09a54f2" x="131.094091" y="188.172518" style="fill: #005321; stroke: #005321"/>
     <use xlink:href="#m17d09a54f2" x="139.362273" y="194.147548" style="fill: #005321; stroke: #005321"/>
     <use xlink:href="#m17d09a54f2" x="147.630455" y="200.608682" style="fill: #005321; stroke: #005321"/>
     <use xlink:href="#m17d09a54f2" x="155.898636" y="205.327943" style="fill: #005321; stroke: #005321"/>
     <use xlink:href="#m17d09a54f2" x="164.166818" y="209.621863" style="fill: #005321; stroke: #005321"/>
     <use xlink:href="#m17d09a54f2" x="172.435" y="213.368916" style="fill: #005321; stroke: #005321"/>
     <use xlink:href="#m17d09a54f2" x="180.703182" y="216.852662" style="fill: #005321; stroke: #005321"/>
     <use xlink:href="#m17d09a54f2" x="188.971364" y="219.951576" style="fill: #005321; stroke: #005321"/>
     <use xlink:href="#m17d09a54f2" x="197.239545" y="222.746675" style="fill: #005321; stroke: #005321"/>
     <use xlink:href="#m17d09a54f2" x="205.507727" y="225.80508" style="fill: #005321; stroke: #005321"/>
     <use xlink:href="#m17d09a54f2" x="213.775909" y="228.519161" style="fill: #005321; stroke: #005321"/>
     <use xlink:href="#m17d09a54f2" x="222.044091" y="231.17248" style="fill: #005321; stroke: #005321"/>
     <use xlink:href="#m17d09a54f2" x="230.312273" y="233.258677" style="fill: #005321; stroke: #005321"/>
     <use xlink:href="#m17d09a54f2" x="238.580455" y="235.203093" style="fill: #005321; stroke: #005321"/>
     <use xlink:href="#m17d09a54f2" x="246.848636" y="236.418354" style="fill: #005321; stroke: #005321"/>
     <use xlink:href="#m17d09a54f2" x="255.116818" y="237.977938" style="fill: #005321; stroke: #005321"/>
     <use xlink:href="#m17d09a54f2" x="263.385" y="239.395742" style="fill: #005321; stroke: #005321"/>
     <use xlink:href="#m17d09a54f2" x="271.653182" y="240.550239" style="fill: #005321; stroke: #005321"/>
     <use xlink:href="#m17d09a54f2" x="279.921364" y="241.562956" style="fill: #005321; stroke: #005321"/>
     <use xlink:href="#m17d09a54f2" x="288.189545" y="242.818725" style="fill: #005321; stroke: #005321"/>
     <use xlink:href="#m17d09a54f2" x="296.457727" y="243.811187" style="fill: #005321; stroke: #005321"/>
     <use xlink:href="#m17d09a54f2" x="304.725909" y="244.378309" style="fill: #005321; stroke: #005321"/>
     <use xlink:href="#m17d09a54f2" x="312.994091" y="244.904922" style="fill: #005321; stroke: #005321"/>
     <use xlink:href="#m17d09a54f2" x="321.262273" y="245.674587" style="fill: #005321; stroke: #005321"/>
     <use xlink:href="#m17d09a54f2" x="329.530455" y="245.998656" style="fill: #005321; stroke: #005321"/>
     <use xlink:href="#m17d09a54f2" x="337.798636" y="246.667049" style="fill: #005321; stroke: #005321"/>
     <use xlink:href="#m17d09a54f2" x="346.066818" y="247.031627" style="fill: #005321; stroke: #005321"/>
     <use xlink:href="#m17d09a54f2" x="354.335" y="247.477223" style="fill: #005321; stroke: #005321"/>
     <use xlink:href="#m17d09a54f2" x="362.603182" y="247.841801" style="fill: #005321; stroke: #005321"/>
     <use xlink:href="#m17d09a54f2" x="370.871364" y="248.02409" style="fill: #005321; stroke: #005321"/>
     <use xlink:href="#m17d09a54f2" x="379.139545" y="248.327905" style="fill: #005321; stroke: #005321"/>
     <use xlink:href="#m17d09a54f2" x="387.407727" y="248.510194" style="fill: #005321; stroke: #005321"/>
     <use xlink:href="#m17d09a54f2" x="395.675909" y="248.611466" style="fill: #005321; stroke: #005321"/>
     <use xlink:href="#m17d09a54f2" x="403.944091" y="248.834264" style="fill: #005321; stroke: #005321"/>
     <use xlink:href="#m17d09a54f2" x="412.212273" y="249.036807" style="fill: #005321; stroke: #005321"/>
     <use xlink:href="#m17d09a54f2" x="420.480455" y="249.259605" style="fill: #005321; stroke: #005321"/>
     <use xlink:href="#m17d09a54f2" x="428.748636" y="249.462148" style="fill: #005321; stroke: #005321"/>
     <use xlink:href="#m17d09a54f2" x="437.016818" y="249.543165" style="fill: #005321; stroke: #005321"/>
     <use xlink:href="#m17d09a54f2" x="445.285" y="249.664692" style="fill: #005321; stroke: #005321"/>
    </g>
   </g>
   <g id="line2d_14">
    <path d="M 73.216818 35.576326 
L 81.485 78.150947 
L 89.753182 104.238536 
L 98.021364 123.014308 
L 106.289545 138.367097 
L 114.557727 151.674198 
L 122.825909 162.449507 
L 131.094091 172.698202 
L 139.362273 181.772146 
L 147.630455 189.610576 
L 155.898636 195.848912 
L 164.166818 200.993514 
L 172.435 205.591249 
L 180.703182 208.872452 
L 188.971364 212.133401 
L 197.239545 215.39435 
L 205.507727 218.938859 
L 213.775909 222.179553 
L 222.044091 225.683554 
L 230.312273 228.478653 
L 238.580455 230.868665 
L 246.848636 232.630792 
L 255.116818 234.230885 
L 263.385 235.93225 
L 271.653182 237.572851 
L 279.921364 238.929892 
L 288.189545 240.205915 
L 296.457727 241.643973 
L 304.725909 242.535164 
L 312.994091 243.284575 
L 321.262273 243.831442 
L 329.530455 244.398563 
L 337.798636 245.066957 
L 346.066818 245.492298 
L 354.335 246.140437 
L 362.603182 246.788575 
L 370.871364 247.112645 
L 379.139545 247.477223 
L 387.407727 247.801292 
L 395.675909 248.145616 
L 403.944091 248.287396 
L 412.212273 248.591212 
L 420.480455 248.814009 
L 428.748636 249.016553 
L 437.016818 249.178587 
L 445.285 249.259605 
" clip-path="url(#pd5d5b7037e)" style="fill: none; stroke: #7e0610; stroke-width: 1.6; stroke-linecap: square"/>
    <defs>
     <path id="mbb9fece4e8" d="M 0 1.9 
C 0.503886 1.9 0.987202 1.699804 1.343503 1.343503 
C 1.699804 0.987202 1.9 0.503886 1.9 0 
C 1.9 -0.503886 1.699804 -0.987202 1.343503 -1.343503 
C 0.987202 -1.699804 0.503886 -1.9 0 -1.9 
C -0.503886 -1.9 -0.987202 -1.699804 -1.343503 -1.343503 
C -1.699804 -0.987202 -1.9 -0.503886 -1.9 0 
C -1.9 0.503886 -1.699804 0.987202 -1.343503 1.343503 
C -0.987202 1.699804 -0.503886 1.9 0 1.9 
z
" style="stroke: #7e0610"/>
    </defs>
    <g clip-path="url(#pd5d5b7037e)">
     <use xlink:href="#mbb9fece4e8" x="73.216818" y="35.576326" style="fill: #7e0610; stroke: #7e0610"/>
     <use xlink:href="#mbb9fece4e8" x="81.485" y="78.150947" style="fill: #7e0610; stroke: #7e0610"/>
     <use xlink:href="#mbb9fece4e8" x="89.753182" y="104.238536" style="fill: #7e0610; stroke: #7e0610"/>
     <use xlink:href="#mbb9fece4e8" x="98.021364" y="123.014308" style="fill: #7e0610; stroke: #7e0610"/>
     <use xlink:href="#mbb9fece4e8" x="106.289545" y="138.367097" style="fill: #7e0610; stroke: #7e0610"/>
     <use xlink:href="#mbb9fece4e8" x="114.557727" y="151.674198" style="fill: #7e0610; stroke: #7e0610"/>
     <use xlink:href="#mbb9fece4e8" x="122.825909" y="162.449507" style="fill: #7e0610; stroke: #7e0610"/>
     <use xlink:href="#mbb9fece4e8" x="131.094091" y="172.698202" style="fill: #7e0610; stroke: #7e0610"/>
     <use xlink:href="#mbb9fece4e8" x="139.362273" y="181.772146" style="fill: #7e0610; stroke: #7e0610"/>
     <use xlink:href="#mbb9fece4e8" x="147.630455" y="189.610576" style="fill: #7e0610; stroke: #7e0610"/>
     <use xlink:href="#mbb9fece4e8" x="155.898636" y="195.848912" style="fill: #7e0610; stroke: #7e0610"/>
     <use xlink:href="#mbb9fece4e8" x="164.166818" y="200.993514" style="fill: #7e0610; stroke: #7e0610"/>
     <use xlink:href="#mbb9fece4e8" x="172.435" y="205.591249" style="fill: #7e0610; stroke: #7e0610"/>
     <use xlink:href="#mbb9fece4e8" x="180.703182" y="208.872452" style="fill: #7e0610; stroke: #7e0610"/>
     <use xlink:href="#mbb9fece4e8" x="188.971364" y="212.133401" style="fill: #7e0610; stroke: #7e0610"/>
     <use xlink:href="#mbb9fece4e8" x="197.239545" y="215.39435" style="fill: #7e0610; stroke: #7e0610"/>
     <use xlink:href="#mbb9fece4e8" x="205.507727" y="218.938859" style="fill: #7e0610; stroke: #7e0610"/>
     <use xlink:href="#mbb9fece4e8" x="213.775909" y="222.179553" style="fill: #7e0610; stroke: #7e0610"/>
     <use xlink:href="#mbb9fece4e8" x="222.044091" y="225.683554" style="fill: #7e0610; stroke: #7e0610"/>
     <use xlink:href="#mbb9fece4e8" x="230.312273" y="228.478653" style="fill: #7e0610; stroke: #7e0610"/>
     <use xlink:href="#mbb9fece4e8" x="238.580455" y="230.868665" style="fill: #7e0610; stroke: #7e0610"/>
     <use xlink:href="#mbb9fece4e8" x="246.848636" y="232.630792" style="fill: #7e0610; stroke: #7e0610"/>
     <use xlink:href="#mbb9fece4e8" x="255.116818" y="234.230885" style="fill: #7e0610; stroke: #7e0610"/>
     <use xlink:href="#mbb9fece4e8" x="263.385" y="235.93225" style="fill: #7e0610; stroke: #7e0610"/>
     <use xlink:href="#mbb9fece4e8" x="271.653182" y="237.572851" style="fill: #7e0610; stroke: #7e0610"/>
     <use xlink:href="#mbb9fece4e8" x="279.921364" y="238.929892" style="fill: #7e0610; stroke: #7e0610"/>
     <use xlink:href="#mbb9fece4e8" x="288.189545" y="240.205915" style="fill: #7e0610; stroke: #7e0610"/>
     <use xlink:href="#mbb9fece4e8" x="296.457727" y="241.643973" style="fill: #7e0610; stroke: #7e0610"/>
     <use xlink:href="#mbb9fece4e8" x="304.725909" y="242.535164" style="fill: #7e0610; stroke: #7e0610"/>
     <use xlink:href="#mbb9fece4e8" x="312.994091" y="243.284575" style="fill: #7e0610; stroke: #7e0610"/>
     <use xlink:href="#mbb9fece4e8" x="321.262273" y="243.831442" style="fill: #7e0610; stroke: #7e0610"/>
     <use xlink:href="#mbb9fece4e8" x="329.530455" y="244.398563" style="fill: #7e0610; stroke: #7e0610"/>
     <use xlink:href="#mbb9fece4e8" x="337.798636" y="245.066957" style="fill: #7e0610; stroke: #7e0610"/>
     <use xlink:href="#mbb9fece4e8" x="346.066818" y="245.492298" style="fill: #7e0610; stroke: #7e0610"/>
     <use xlink:href="#mbb9fece4e8" x="354.335" y="246.140437" style="fill: #7e0610; stroke: #7e0610"/>
     <use xlink:href="#mbb9fece4e8" x="362.603182" y="246.788575" style="fill: #7e0610; stroke: #7e0610"/>
     <use xlink:href="#mbb9fece4e8" x="370.871364" y="247.112645" style="fill: #7e0610; stroke: #7e0610"/>
     <use xlink:href="#mbb9fece4e8" x="379.139545" y="247.477223" style="fill: #7e0610; stroke: #7e0610"/>
     <use xlink:href="#mbb9fece4e8" x="387.407727" y="247.801292" style="fill: #7e0610; stroke: #7e0610"/>
     <use xlink:href="#mbb9fece4e8" x="395.675909" y="248.145616" style="fill: #7e0610; stroke: #7e0610"/>
     <use xlink:href="#mbb9fece4e8" x="403.944091" y="248.287396" style="fill: #7e0610; stroke: #7e0610"/>
     <use xlink:href="#mbb9fece4e8" x="412.212273" y="248.591212" style="fill: #7e0610; stroke: #7e0610"/>
     <use xlink:href="#mbb9fece4e8" x="420.480455" y="248.814009" style="fill: #7e0610; stroke: #7e0610"/>
     <use xlink:href="#mbb9fece4e8" x="428.748636" y="249.016553" style="fill: #7e0610; stroke: #7e0610"/>
     <use xlink:href="#mbb9fece4e8" x="437.016818" y="249.178587" style="fill: #7e0610; stroke: #7e0610"/>
     <use xlink:href="#mbb9fece4e8" x="445.285" y="249.259605" style="fill: #7e0610; stroke: #7e0610"/>
    </g>
   </g>
   <g id="patch_3">
    <path d="M 54.2 260.44 
L 54.2 24.72 
" style="fill: none; stroke: #000000; stroke-linejoin: miter; stroke-linecap: square"/>
   </g>
   <g id="patch_4">
    <path d="M 472.57 260.44 
L 472.57 24.72 
" style="fill: none; stroke: #000000; stroke-linejoin: miter; stroke-linecap: square"/>
   </g>
   <g id="patch_5">
    <path d="M 54.2 260.44 
L 472.57 260.44 
" style="fill: none; stroke: #000000; stroke-linejoin: miter; stroke-linecap: square"/>
   </g>
   <g id="patch_6">
    <path d="M 54.2 24.72 
L 472.57 24.72 
" style="fill: none; stroke: #000000; stroke-linejoin: miter; stroke-linecap: square"/>
   </g>
   <g id="text_13">
    <text style="font-size: 11px; font-family: 'Arial'; text-anchor: middle" x="263.385" y="18.72" transform="rotate(-0 263.385 18.72)">Sequence Length = 8</text>
   </g>
   <g id="legend_1">
    <g id="line2d_15">
     <path d="M 105.654062 36.221719 
L 114.654062 36.221719 
L 123.654062 36.221719 
" style="fill: none; stroke: #a9dca3; stroke-width: 1.6; stroke-linecap: square"/>
     <g>
      <use xlink:href="#md61f1c77c4" x="114.654062" y="36.221719" style="fill: #a9dca3; stroke: #a9dca3"/>
     </g>
    </g>
    <g id="text_14">
     <text style="font-size: 9px; font-family: 'Arial'; text-anchor: start" x="130.854062" y="39.371719" transform="rotate(-0 130.854062 39.371719)">N = 3366, Naive</text>
    </g>
    <g id="line2d_16">
     <path d="M 105.654062 48.9525 
L 114.654062 48.9525 
L 123.654062 48.9525 
" style="fill: none; stroke: #005321; stroke-width: 1.6; stroke-linecap: square"/>
     <g>
      <use xlink:href="#m17d09a54f2" x="114.654062" y="48.9525" style="fill: #005321; stroke: #005321"/>
     </g>
    </g>
    <g id="text_15">
     <text style="font-size: 9px; font-family: 'Arial'; text-anchor: start" x="130.854062" y="52.1025" transform="rotate(-0 130.854062 52.1025)">N = 6062, Naive</text>
    </g>
    <g id="line2d_17">
     <path d="M 213.64 36.221719 
L 222.64 36.221719 
L 231.64 36.221719 
" style="fill: none; stroke: #fc9b7c; stroke-width: 1.6; stroke-linecap: square"/>
     <g>
      <use xlink:href="#m025582db18" x="222.64" y="36.221719" style="fill: #fc9b7c; stroke: #fc9b7c"/>
     </g>
    </g>
    <g id="text_16">
     <text style="font-size: 9px; font-family: 'Arial'; text-anchor: start" x="238.84" y="39.371719" transform="rotate(-0 238.84 39.371719)">N = 3366, Graph</text>
    </g>
    <g id="line2d_18">
     <path d="M 213.64 49.062188 
L 222.64 49.062188 
L 231.64 49.062188 
" style="fill: none; stroke: #7e0610; stroke-width: 1.6; stroke-linecap: square"/>
     <g>
      <use xlink:href="#mbb9fece4e8" x="222.64" y="49.062188" style="fill: #7e0610; stroke: #7e0610"/>
     </g>
    </g>
    <g id="text_17">
     <text style="font-size: 9px; font-family: 'Arial'; text-anchor: start" x="238.84" y="52.212188" transform="rotate(-0 238.84 52.212188)">N = 6062, Graph</text>
    </g>
    <g id="line2d_19">
     <path d="M 323.628437 36.221719 
L 332.628437 36.221719 
L 341.628437 36.221719 
" style="fill: none; stroke: #c3c3c3; stroke-width: 0.9; stroke-linecap: square"/>
    </g>
    <g id="text_18">
     <text style="font-size: 9px; font-family: 'Arial'; text-anchor: start" x="348.828437" y="39.371719" transform="rotate(-0 348.828437 39.371719)">Conflict Probability, N = 3366</text>
    </g>
    <g id="line2d_20">
     <path d="M 323.628437 49.167656 
L 332.628437 49.167656 
L 341.628437 49.167656 
" style="fill: none; stroke: #0e0e0e; stroke-width: 0.9; stroke-linecap: square"/>
    </g>
    <g id="text_19">
     <text style="font-size: 9px; font-family: 'Arial'; text-anchor: start" x="348.828437" y="52.317656" transform="rotate(-0 348.828437 52.317656)">Conflict Probability, N = 6062</text>
    </g>
   </g>
  </g>
  <g id="axes_2">
   <g id="matplotlib.axis_3">
    <g id="ytick_6">
     <g id="line2d_21">
      <defs>
       <path id="m9a99b533c3" d="M 0 0 
L 3.5 0 
" style="stroke: #000000; stroke-width: 0.8"/>
      </defs>
      <g>
       <use xlink:href="#m9a99b533c3" x="472.57" y="260.44" style="stroke: #000000; stroke-width: 0.8"/>
      </g>
     </g>
     <g id="text_20">
      <text style="font-size: 10px; font-family: 'Arial'; text-anchor: start" x="479.57" y="264.018906" transform="rotate(-0 479.57 264.018906)">0.0</text>
     </g>
    </g>
    <g id="ytick_7">
     <g id="line2d_22">
      <g>
       <use xlink:href="#m9a99b533c3" x="472.57" y="213.296" style="stroke: #000000; stroke-width: 0.8"/>
      </g>
     </g>
     <g id="text_21">
      <text style="font-size: 10px; font-family: 'Arial'; text-anchor: start" x="479.57" y="216.874906" transform="rotate(-0 479.57 216.874906)">0.2</text>
     </g>
    </g>
    <g id="ytick_8">
     <g id="line2d_23">
      <g>
       <use xlink:href="#m9a99b533c3" x="472.57" y="166.152" style="stroke: #000000; stroke-width: 0.8"/>
      </g>
     </g>
     <g id="text_22">
      <text style="font-size: 10px; font-family: 'Arial'; text-anchor: start" x="479.57" y="169.730906" transform="rotate(-0 479.57 169.730906)">0.4</text>
     </g>
    </g>
    <g id="ytick_9">
     <g id="line2d_24">
      <g>
       <use xlink:href="#m9a99b533c3" x="472.57" y="119.008" style="stroke: #000000; stroke-width: 0.8"/>
      </g>
     </g>
     <g id="text_23">
      <text style="font-size: 10px; font-family: 'Arial'; text-anchor: start" x="479.57" y="122.586906" transform="rotate(-0 479.57 122.586906)">0.6</text>
     </g>
    </g>
    <g id="ytick_10">
     <g id="line2d_25">
      <g>
       <use xlink:href="#m9a99b533c3" x="472.57" y="71.864" style="stroke: #000000; stroke-width: 0.8"/>
      </g>
     </g>
     <g id="text_24">
      <text style="font-size: 10px; font-family: 'Arial'; text-anchor: start" x="479.57" y="75.442906" transform="rotate(-0 479.57 75.442906)">0.8</text>
     </g>
    </g>
    <g id="ytick_11">
     <g id="line2d_26">
      <g>
       <use xlink:href="#m9a99b533c3" x="472.57" y="24.72" style="stroke: #000000; stroke-width: 0.8"/>
      </g>
     </g>
     <g id="text_25">
      <text style="font-size: 10px; font-family: 'Arial'; text-anchor: start" x="479.57" y="28.298906" transform="rotate(-0 479.57 28.298906)">1.0</text>
     </g>
    </g>
    <g id="text_26">
     <text style="font-size: 11px; font-family: 'Arial'; text-anchor: middle" x="505.477656" y="142.58" transform="rotate(-90 505.477656 142.58)">Conflict Probability</text>
    </g>
   </g>
   <g id="line2d_27">
    <path d="M 73.216818 260.23476 
L 81.485 260.168996 
L 89.753182 260.108852 
L 98.021364 260.040508 
L 106.289545 259.959761 
L 114.557727 259.871521 
L 122.825909 259.776997 
L 131.094091 259.650839 
L 139.362273 259.491508 
L 147.630455 259.320815 
L 155.898636 259.132973 
L 164.166818 258.911334 
L 172.435 258.684325 
L 180.703182 258.444413 
L 188.971364 258.147063 
L 197.239545 257.826695 
L 205.507727 257.463998 
L 213.775909 256.978097 
L 222.044091 256.465975 
L 230.312273 255.925883 
L 238.580455 255.281568 
L 246.848636 254.557879 
L 255.116818 253.814336 
L 263.385 252.966737 
L 271.653182 252.036685 
L 279.921364 251.002576 
L 288.189545 249.634614 
L 296.457727 247.89796 
L 304.725909 246.065825 
L 312.994091 244.066159 
L 321.262273 241.909369 
L 329.530455 239.477205 
L 337.798636 236.647297 
L 346.066818 233.601244 
L 354.335 230.305831 
L 362.603182 226.209104 
L 370.871364 221.220283 
L 379.139545 215.259745 
L 387.407727 208.764943 
L 395.675909 201.727259 
L 403.944091 193.475033 
L 412.212273 184.655701 
L 420.480455 175.711419 
L 428.748636 166.167442 
L 437.016818 156.143391 
L 445.285 145.093806 
L 453.553182 132.347692 
" clip-path="url(#pd5d5b7037e)" style="fill: none; stroke: #c3c3c3; stroke-opacity: 0.7; stroke-width: 0.9; stroke-linecap: square"/>
   </g>
   <g id="line2d_28">
    <path d="M 73.216818 260.173509 
L 81.485 260.102373 
L 89.753182 260.033175 
L 98.021364 259.954597 
L 106.289545 259.858094 
L 114.557727 259.743434 
L 122.825909 259.626517 
L 131.094091 259.494715 
L 139.362273 259.338072 
L 147.630455 259.160771 
L 155.898636 258.947337 
L 164.166818 258.693588 
L 172.435 258.428586 
L 180.703182 258.132892 
L 188.971364 257.78169 
L 197.239545 257.381588 
L 205.507727 256.939786 
L 213.775909 256.408716 
L 222.044091 255.81539 
L 230.312273 255.144038 
L 238.580455 254.360207 
L 246.848636 253.472432 
L 255.116818 252.52553 
L 263.385 251.502501 
L 271.653182 250.322482 
L 279.921364 249.005491 
L 288.189545 247.35453 
L 296.457727 245.40436 
L 304.725909 243.350924 
L 312.994091 241.164942 
L 321.262273 238.745188 
L 329.530455 236.064539 
L 337.798636 233.031046 
L 346.066818 229.817582 
L 354.335 226.34099 
L 362.603182 222.054802 
L 370.871364 216.7355 
L 379.139545 210.242249 
L 387.407727 202.975573 
L 395.675909 195.217232 
L 403.944091 186.470289 
L 412.212273 177.323308 
L 420.480455 167.976559 
L 428.748636 157.955609 
L 437.016818 147.316979 
L 445.285 135.777511 
" clip-path="url(#pd5d5b7037e)" style="fill: none; stroke: #0e0e0e; stroke-opacity: 0.7; stroke-width: 0.9; stroke-linecap: square"/>
   </g>
   <g id="patch_7">
    <path d="M 54.2 260.44 
L 54.2 24.72 
" style="fill: none; stroke: #000000; stroke-linejoin: miter; stroke-linecap: square"/>
   </g>
   <g id="patch_8">
    <path d="M 472.57 260.44 
L 472.57 24.72 
" style="fill: none; stroke: #000000; stroke-linejoin: miter; stroke-linecap: square"/>
   </g>
   <g id="patch_9">
    <path d="M 54.2 260.44 
L 472.57 260.44 
" style="fill: none; stroke: #000000; stroke-linejoin: miter; stroke-linecap: square"/>
   </g>
   <g id="patch_10">
    <path d="M 54.2 24.72 
L 472.57 24.72 
" style="fill: none; stroke: #000000; stroke-linejoin: miter; stroke-linecap: square"/>
   </g>
  </g>
 </g>
 <defs>
  <clipPath id="pd5d5b7037e">
   <rect x="54.2" y="24.72" width="418.37" height="235.72"/>
  </clipPath>
 </defs>
</svg>
